/* XPM */
static char *puff_fotor_bg_remover_20240129225658__1_1706565446[] = {
/* columns rows colors chars-per-pixel */
"50 50 212 2 ",
"   c #090706",
".  c #120E0A",
"X  c #16110D",
"o  c #19130E",
"O  c #1B1512",
"+  c #23190F",
"@  c #241B15",
"#  c #291E16",
"$  c #261D19",
"%  c #281F19",
"&  c #2E2216",
"*  c #2D221A",
"=  c #312317",
"-  c #33261B",
";  c #36281C",
":  c #3B2C1D",
">  c #362A21",
",  c #322A25",
"<  c #3D2D21",
"1  c #3E3127",
"2  c #3F3633",
"3  c #402F1F",
"4  c #42301F",
"5  c #402F21",
"6  c #453323",
"7  c #493624",
"8  c #4D3926",
"9  c #47372B",
"0  c #4D3A2A",
"q  c #523C27",
"w  c #533E29",
"e  c #4C3D32",
"r  c #5B4227",
"t  c #56412C",
"y  c #5A432B",
"u  c #544333",
"i  c #5B4631",
"p  c #5E4933",
"a  c #56473A",
"s  c #5C4A3A",
"d  c #62492F",
"f  c #634D36",
"g  c #644F3A",
"h  c #65513E",
"j  c #59524C",
"k  c #655341",
"l  c #695644",
"z  c #685A4B",
"x  c #705F4C",
"c  c #6C5E52",
"v  c #78644E",
"b  c #766453",
"n  c #776858",
"m  c #7B6B5B",
"M  c #6C6863",
"N  c #847563",
"B  c #867867",
"V  c #8A7C6B",
"C  c #8F7F6C",
"Z  c #EFAB25",
"A  c #EFAD2B",
"S  c #F0AD26",
"D  c #F0AE29",
"F  c #F1B126",
"G  c #F2B32A",
"H  c #F4BB2D",
"J  c #EFAF33",
"K  c #EFB035",
"L  c #EFB33D",
"P  c #F1B434",
"I  c #F4BD32",
"U  c #F0B43C",
"Y  c #F2BB3D",
"T  c #F6C02F",
"R  c #F6C332",
"E  c #F8C733",
"W  c #FACD36",
"Q  c #F6C53E",
"!  c #FACE3A",
"~  c #F9D03D",
"^  c #94836D",
"/  c #99876B",
"(  c #948775",
")  c #9E8C73",
"_  c #A8967A",
"`  c #B29D78",
"'  c #EFB544",
"]  c #EEB94E",
"[  c #F1BA44",
"{  c #F1BC4D",
"}  c #EFBC54",
"|  c #E6B75C",
" . c #EDBD5C",
".. c #F1BD54",
"X. c #F1BF5D",
"o. c #DFB86D",
"O. c #D0AF70",
"+. c #D5B373",
"@. c #E7BC68",
"#. c #E3BC6E",
"$. c #E5BE71",
"%. c #F5C445",
"&. c #F6C944",
"*. c #F6CA4B",
"=. c #F9D143",
"-. c #F9D24B",
";. c #F3C354",
":. c #F5C955",
">. c #F8CE51",
",. c #F3C65C",
"<. c #F4CB5E",
"1. c #F9D454",
"2. c #F8D558",
"3. c #F8D55B",
"4. c #EEC169",
"5. c #F2C463",
"6. c #F4CB68",
"7. c #F7D461",
"8. c #F8D760",
"9. c #F8D863",
"0. c #F6D26C",
"q. c #F7D86E",
"w. c #F8D96B",
"e. c #E4C27A",
"r. c #EDC978",
"t. c #F1C773",
"y. c #F3CA76",
"u. c #F2CC7C",
"i. c #F6D572",
"p. c #F7DB73",
"a. c #F5D379",
"s. c #F7DB7D",
"d. c #F8DC79",
"f. c #938C82",
"g. c #A29581",
"h. c #AA9C85",
"j. c #A49C93",
"k. c #AFA38F",
"l. c #B8A686",
"z. c #AEA69E",
"x. c #B5AA96",
"c. c #BCB39E",
"v. c #B3ADA6",
"b. c #CCB68D",
"n. c #C3B799",
"m. c #C5BBA3",
"M. c #DBC697",
"N. c #EACC88",
"B. c #F2CE85",
"V. c #F4D284",
"C. c #F7DE84",
"Z. c #F8DE81",
"A. c #F4D48A",
"S. c #F6DB8B",
"D. c #E5CB97",
"F. c #EED49A",
"G. c #F4D492",
"H. c #F5DE92",
"J. c #F6DE9B",
"K. c #F8E085",
"L. c #F7E18C",
"P. c #F7E295",
"I. c #F9E497",
"U. c #F7E49D",
"Y. c #CDC2A6",
"T. c #CCC1AA",
"R. c #D8C8A2",
"E. c #DCD1AF",
"W. c #DBD2B8",
"Q. c #EAD3A3",
"!. c #E6D5AA",
"~. c #ECD8AD",
"^. c #F6DBA2",
"/. c #F4DCAA",
"(. c #E0D6B6",
"). c #E3D9B5",
"_. c #ECDCB3",
"`. c #E5DBB9",
"'. c #EDDDBB",
"]. c #F7E5A4",
"[. c #F6E6AB",
"{. c #F6E8AD",
"}. c #F8E9AB",
"|. c #ECE3BF",
" X c #F7E4B4",
".X c #F7E7B5",
"XX c #F6E9B5",
"oX c #F8E6BD",
"OX c #F6EAB9",
"+X c #F8ECBB",
"@X c #DCD7CE",
"#X c #E9DEC6",
"$X c #EEE4C6",
"%X c #F7EAC3",
"&X c #F6ECC2",
"*X c #F9EECA",
"=X c #F9F0CE",
"-X c #ECE6D6",
";X c #EAE5DB",
":X c #F9EDD4",
">X c #F9F2D3",
",X c #FAF3DC",
"<X c #EEECE5",
"1X c #EFEEEB",
"2X c #FBF5E3",
"3X c #F8F6EA",
"4X c #FCF7EB",
"5X c #EDEFF1",
"6X c #F3F2F3",
"7X c #FDFBF4",
"8X c #F4F6F8",
"9X c #FDFEFD",
/* pixels */
". * 9 q q 6 5 * ; 7 6 0 u w 0 0 * O > w q 7 6 ; * 6 7 6 u t w 0 0 t q q q 8 7 t q q q 4 8 u t 0 0 9 ",
"  @ 6 q 8 ; @ @ - 6 : 6 7 7 7 6 X   * 7 q 7 - @ @ < 7 ; 6 7 7 9 : 4 t q q q 7 t q q q 4 ; 6 7 7 7 & ",
"  O 6 q 8 @ X * 6 0 6 0 0 w w 6 o   * 7 q 6 O O > 6 7 7 w w q q : 4 w q 8 8 6 8 q q 8 4 8 w q q 7 ; ",
". * 0 q 7 @ . % < 7 9 0 p w 0 w * o < t q < . O , 9 0 0 u t 0 w 8 7 w 8 6 8 6 q t q t 8 0 f y q t 6 ",
"; 8 w q 7 + @ $ * < * < w q w q : ; w w q 0 j f.x.n.m.c.x.g.m s 8 6 q q q q 4 q q q q 6 7 t w q t < ",
"w w w q 7 * < ; - < % < q q q 7 : q w 8 n T.&X+X&X+X{.}.OX+X$Xm.c ; q q q w 4 q q q 8 4 4 q q 8 7 * ",
"q q q w 8 : 8 7 0 6 - : q q q 7 : 8 w B `.+XOXOX+XOXK.p.}.OX+XOX!.B q 8 8 8 3 4 8 w 0 0 w q q q 8 ; ",
"w w r r q : 7 w 7 < @ * 6 w r q 7 q ^ $X+XOXOXOXOXOXOX}.OXOXOXXXU.F.x.N g 8 ; 3 q q w 7 q w q t 8 6 ",
"d r r r w ; 3 ; # o O & : q t q 4 N $XOXOXOXOXOXOXOXOXOXOXOXU.w.2.,.XX$XE.V 5 : 4 7 8 - 3 q q w 8 : ",
"r w w q q 8 r 6 @ O & 8 8 q q 4 m W.XXOXOXOXP.2.K.OXOXOXXXL.%.G G G q.].S.N.( i w t w 6 6 w q 8 8 6 ",
"d g y t 8 7 d y < % * 6 q t i ^ E.+XOXOXOXXX9.! 2.XXOXXX0.P Z Z G I I [ I D @.( f p t 6 4 w q 8 8 : ",
"y p w w 8 6 w q 9 < 1 m g.x.Y.|.+X+XXXOXOXOXL.~ -.}.{.i.G Z Z F W T S A 0.0.P +.v w w 3 4 q q 8 7 - ",
"8 6 3 : - = 8 8 6 6 M *X&X&X+XXXOXOXOXXXOXU.9.2.L.XX0.G F D H W W S Z G C.{.:.[ l.t q 6 7 q q 7 7 - ",
"d q 8 5 X @ 8 3 - 6 ^ oXOX+XXX+XOXOXOXOXOX].-.W 2.K.2.W W E W W H Z S E 2.}.U.Q e.b q 7 7 w q 6 8 : ",
"y w w 6 + = q 5 < ( `.OXU.q.9.K.OXOX}.}.OXOXK.W W ~ ~ W ~ W W R A Z S R =.K.P.~ >.` w 6 7 w w 7 8 6 ",
"y w w q < 5 w 8 V $X{.OXU.2.W =.L.[.K.I.OXOXP.1.1.~ ~ W ~ W W H Z Z Z H R =.2.W ! M.s 4 7 q q q 8 : ",
"y w 0 q 8 7 q x ).P.K.{.OXs.W ~ w.K.P.{.XXK.2.&.%.R I I E ~ ! W G Z Z S Z H W W E e.z 6 8 w w w 0 6 ",
"y 8 6 0 q 8 y x.U.-.P.].].L.~ =.L.L.XXXX9.R F Z G Z Z Z G H W W W H G H G G T W T e.l 6 6 u 0 8 0 < ",
"r 7 ; 6 8 7 b ).<.C.OXOXOXd.W q.U.p.XXK.I Z S ;.3.G Z Z Z Z R R W W W W W I R E U b.u < < 7 7 8 9 # ",
"y < @ < 8 4 ( S.Y p.Z.d.Z.-.w.{.s.L.{.a.A Z I P.].>.&.H A Z H H W W W ! W W E Y D.B 6 > 0 t t w q : ",
"w 3 @ : 8 6 _ a.G W R R &.9.].OXI.w.p.%.Z G 2.K.[.w.3.-.H Z G G H H R W W W R [ R.s 6 > < u y q w 6 ",
"w 8 > 6 8 4 V P.W T F G R =.].OXd.W 1.:.Z I ~ ~ 1.~ -.3.R A F P F Z G W W W W ! M.k 6 * * 0 w w w < ",
"w 8 5 9 7 4 l !.%.F Z A W ~ s.].2.W 2.7.H W ~ W W W W ! G Z Z R G A G W W W W %.m.s u , * 8 q w 8 - ",
"q q q 8 7 : w n.;.Z Z Z W W ~ ~ ~ W -.~ W W W W W W W R Z Z F E G S G W E E P G.v.a z.M @ 8 w w 8 < ",
"w w w w 8 ; 3 V  .Z Z Z I W W W ! W W W W W W W W W W E G Z Z W Y J y.<.P  .~.1X@Xz.@Xj # 4 q d q 5 ",
"d w q q 8 : 3 6 ` ;.Z Z G E W W W W W W W W ~ W W W W W H Z H ! { ..2X:XQ.).#X'.'.^.x., ; 4 q w q < ",
"w w w w 0 8 t w ( U.A F R W W W E W W W W W W W W W R F Z G E 1...t.9X9X X@.X.V./.y.x.8 4 r w q 8 6 ",
"d f d w q 7 y p h.OX,.G R ~ W W G F E W ~ W W W E H Z Z G E E <.J ^.9X:X,X4X4X9X XS.m.7 3 d d q 8 - ",
"w q 8 q 6 3 8 N `.+X{.V.%.R R H S S S H ! W R S S S G H R H 5.5.Z V.u.A.7X9X9X4XV. Xm.6 4 d r q 8 = ",
"w 7 3 ; @ # t m.OX+X+X+X].5.D S S S S S G W W R R H H G [ r.G.K Z Z U ,X9X9X7XJ.H.(.b 6 4 w w 8 7 - ",
"d w q 6 X + l ).C.].OXOX+X.XA.,.,.,.[ S Z S H R ! W Y 5.t.5.K Z Z Z P A.^.G.V.H.}.n.e 6 8 w q 6 7 3 ",
"t y w 6 & - v _.*.s.OXOXOXOXOXOX.XOX].{ Z Z S S G Y ..U S Z A Y :.;.' [ { a.{.oXU.r.n < 7 q q 8 8 5 ",
"y y q 8 6 3 v _.Y :.U.].OXOXOXOXOXXXOX[.V.X.P S D D J U [ 5.L.[.XXXX{.{.{.+XOXP.1.*.^ 4 8 w q q q 5 ",
"r w q q q 6 h E.:.I =.2.].OXOXOXOXOXOXOXoX2X:X%XoXJ.J.].{.OXOXOXOXOXOXOX+XXXJ.Q E ;.^ 7 8 t t q 0 6 ",
"y q q q 8 8 q g.Z.W W R 9.OXOXOX.XOXOXOXOX&X9X9X9X9X:X*X>X+XOXOXOXOXOXOX XV.~...F } N : < t 8 7 0 ; ",
"y q q q 8 8 q k R.=.W R >.P.OXOXOXOXOXOXOXOX*X>X>X4X7X2X,X>X=X*XOXOXXX[.V.'.5XN.Z @.c 4 6 7 8 w 7 * ",
"r q 8 7 7 6 q q ) ;.G G H P s.U.XXOXOXOXOXOX+X%X+XoX*X,X2X,X*X>X3XXX0.V._.6X8XF.} _ u 7 0 u y t w 6 ",
"w q q 6 8 6 q q s ` ] Z F S P <.C.{.OXOXOXOXOX.XOX+XOXOX&X2X7XoXJ.r._.<X8X8X5XB.l.2 < < > t t 0 w 6 ",
"r q q q 8 6 q q q u / o.[ S S S 6.{.OXOXOXOXoX.XOXOXOX+X+X*X+XG._.;X$X<X8X8X_.$.c * > * * 8 q q q = ",
"w q q 8 8 3 q q w 8 7 n N.I S A G %.d.}.}.OX.X XXXOXU.S.U.F.G.;X8X`.4.<X8X$Xu._ 9 6 6 ; - 8 q q q - ",
"w q q q 8 : 8 w w 0 8 w )  .S L y.U G &.1.C.d.i.0.,.Y ..#X`.F.6X<XX.[ '.-XN._ t 0 t 9 - * 6 t t q < ",
"w q q w 8 - 3 6 7 6 ; 8 t / #.[ B. X..D G Y 7.H S Z L Q.1X$X<X<XG.] ' 4.M.) 6 ; < ; * X O - 4 t q < ",
"d q w q 7 4 8 8 w 0 ; 7 q q x _ #.G.*XoX^...B.$...@.'.6X1XQ.4.X.$.) C N z w 4 q 6 & O O : 4 q r q 5 ",
"i d w q q 8 p d p t 6 7 q q 8 0 m O.t.'.%X6.' Q.#X-X6X;XW.$.| +.N 0 p t w w 6 y p < $ * 6 q q w q 3 ",
"y f i w q 6 y y w q : 6 q q 0 7 3 h / O.+.@.] u.~.W.v.j.h N x d 5 3 d d w w 8 w p 8 < * 4 w t r w = ",
"q 7 7 7 5 ; q q q q 3 7 q 8 7 6 ; 8 4 8 u k B k.v.f.s z w r q 8 3 ; 8 6 6 3 - 6 8 8 7 < 6 t w r w - ",
"y q 6 7 6 ; 8 q q q 6 q q 8 6 7 6 w 7 6 - X & 7 > ; 6 5 q w 7 6 6 7 q 7 3 # o 3 8 - 6 6 8 w r w 8 - ",
"d w w q 8 8 w q 8 q 6 q q 8 9 8 q w w q : X : 7 - > 7 7 w q 7 7 7 w w q q # o 6 7 - 3 7 4 w r w 8 5 ",
"t t w q w q w q q 8 3 q q q q 8 6 w w w 6 - 6 q 6 7 6 6 w q q q 7 6 t t 8 < - q 8 6 7 5 7 w q q 8 3 ",
"y w q w q 7 w q q q 6 w q q q 8 8 w q q q 6 8 q q q 8 8 w q q q 7 8 w w w 8 6 8 q q q 7 q w q q q 5 "
};
