/* XPM */
static char *snapedit_1705282709294_prev_ui_copy1705282935[] = {
/* columns rows colors chars-per-pixel */
"50 50 226 2 ",
"   c None",
".  c #280C07",
"X  c #2C0B0A",
"o  c #301109",
"O  c #31100A",
"+  c #42190B",
"@  c #4B1E0B",
"#  c #56140B",
"$  c #5E170C",
"%  c #59180D",
"&  c #651D0C",
"*  c #49230C",
"=  c #52230D",
"-  c #5D200D",
";  c #5E220D",
":  c #602C0E",
">  c #70270E",
",  c #772F0F",
"<  c #6A3511",
"1  c #693610",
"2  c #734517",
"3  c #7D4110",
"4  c #7C4D14",
"5  c #853F11",
"6  c #834717",
"7  c #874D11",
"8  c #884C14",
"9  c #915612",
"0  c #9B5B17",
"q  c #9F5915",
"w  c #945619",
"e  c #965E1A",
"r  c #A05B17",
"t  c #A06015",
"y  c #A66718",
"u  c #A3731B",
"i  c #BC7516",
"p  c #B2751B",
"a  c #BA7A19",
"s  c #BB7E1B",
"d  c #BC7D1E",
"f  c #845B27",
"g  c #BD851D",
"h  c #B98121",
"j  c #B78428",
"k  c #BE8B36",
"l  c #C2821B",
"z  c #C4811A",
"x  c #C8841E",
"c  c #CC8A1F",
"v  c #D18019",
"b  c #D58919",
"n  c #D48B1A",
"m  c #D48D1A",
"M  c #D0881C",
"N  c #D78C1C",
"B  c #D5901B",
"V  c #D9911B",
"C  c #D9951E",
"Z  c #D79A1F",
"A  c #DA991E",
"S  c #DA9D1F",
"D  c #CC8D20",
"F  c #D18B21",
"G  c #C69123",
"H  c #CD9323",
"J  c #CF9E25",
"K  c #C59B28",
"L  c #D49423",
"P  c #D99120",
"I  c #D19C26",
"U  c #D79E24",
"Y  c #DA9D21",
"T  c #DC9E23",
"R  c #D99C24",
"E  c #CD8F30",
"W  c #D3A023",
"Q  c #D7A127",
"!  c #D9A121",
"~  c #DFA022",
"^  c #DEA523",
"/  c #DBA026",
"(  c #DBA327",
")  c #DCA026",
"_  c #DAA427",
"`  c #DEA424",
"'  c #DFA425",
"]  c #DEA527",
"[  c #DAA329",
"{  c #D9A62B",
"}  c #DCA428",
"|  c #DFA729",
" . c #DCA42A",
".. c #DAA42C",
"X. c #D8A72C",
"o. c #DDAA28",
"O. c #DDA92B",
"+. c #DEA92A",
"@. c #DDAB2B",
"#. c #DFAB2B",
"$. c #DAAD29",
"%. c #DFAE28",
"&. c #D9A82F",
"*. c #DEAB2C",
"=. c #DFAB2C",
"-. c #D1A036",
";. c #DBAA31",
":. c #DFAE31",
">. c #DDAE33",
",. c #DEAD35",
"<. c #DCAD36",
"1. c #D4A639",
"2. c #DFB231",
"3. c #DFB632",
"4. c #DFB237",
"5. c #DEB138",
"6. c #DEB23A",
"7. c #DDB43F",
"8. c #E1AD27",
"9. c #E0AE2C",
"0. c #E2B028",
"q. c #E0B02E",
"w. c #E1B22F",
"e. c #E0B32F",
"r. c #E1B32F",
"t. c #E1B42D",
"y. c #E3B62D",
"u. c #E2B52F",
"i. c #E3B82F",
"p. c #E3B92F",
"a. c #E3BA2E",
"s. c #E0B030",
"d. c #E0B230",
"f. c #E0B132",
"g. c #E1B731",
"h. c #E2B631",
"j. c #E0B533",
"k. c #E2B533",
"l. c #E2B735",
"z. c #E0B637",
"x. c #E1B737",
"c. c #E3B930",
"v. c #E3BB31",
"b. c #E1B932",
"n. c #E2B832",
"m. c #E2BA32",
"M. c #E4BF33",
"N. c #E2B934",
"B. c #E2BA34",
"V. c #E2BC37",
"C. c #E4BF35",
"Z. c #E0B73E",
"A. c #E1BB39",
"S. c #E2BC39",
"D. c #E3BE3A",
"F. c #E4BE38",
"G. c #E1BB3E",
"H. c #E4C238",
"J. c #CCA143",
"K. c #DFB741",
"L. c #D9B044",
"P. c #DEB847",
"I. c #DEB748",
"U. c #DAB64E",
"Y. c #DEB84D",
"T. c #DFBA4F",
"R. c #DFBF4F",
"E. c #CEAE59",
"W. c #DDBB57",
"Q. c #DEBA58",
"!. c #DFBD5A",
"~. c #DDB95E",
"^. c #E0BC45",
"/. c #E0B94F",
"(. c #DDBC63",
"). c #CFB47C",
"_. c #D7BE7B",
"`. c #E3C140",
"'. c #E3C344",
"]. c #E3C349",
"[. c #E2C04A",
"{. c #E1C050",
"}. c #E1C354",
"|. c #E1C459",
" X c #E3C958",
".X c #DFC262",
"XX c #DFC461",
"oX c #DEC16E",
"OX c #DEC76F",
"+X c #DFC673",
"@X c #E2C760",
"#X c #E1C969",
"$X c #E0C86C",
"%X c #E0C773",
"&X c #E0C776",
"*X c #E0CC72",
"=X c #E1CA74",
"-X c #E0CC74",
";X c #E1CE7F",
":X c #D8C686",
">X c #DDD19E",
",X c #E2CC80",
"<X c #E0CE86",
"1X c #E1CF8A",
"2X c #E3D087",
"3X c #E3D389",
"4X c #E1D28A",
"5X c #E1D195",
"6X c #E1D297",
"7X c #E2D397",
"8X c #E2D19D",
"9X c #D4C5A1",
"0X c #D6C8A2",
"qX c #E2D5A0",
"wX c #E2D7A5",
"eX c #E2D6A6",
"rX c #E2D8A5",
"tX c #E2D8A6",
"yX c #E2D6AF",
"uX c #E1D8A9",
"iX c #E2DAB6",
"pX c #E3DBB7",
"aX c #E0DBB9",
"sX c #E2DBBB",
"dX c #E2DCBF",
"fX c #E1E1DA",
/* pixels */
"                                                                                                    ",
"                                                                                                    ",
"                                                                                                    ",
"                                                                                                    ",
"                                                                                                    ",
"                                                                                                    ",
"                                                                                                    ",
"                                                                                                    ",
"                                                                                                    ",
"                                                                                                    ",
"                                                                                                    ",
"                                                                                                    ",
"                                                                                                    ",
"                                              8X(.W.XX                                              ",
"                                          fXaX&XY.{.R.J.                                            ",
"                                          dX;XI.Z.'.>.-.U.                                          ",
"                                        yX3X|.z.:.z.T [ &.                                          ",
"                                        =X X].z.z.8.@.] d.X.                                        ",
"                                        L.G.`.A.w.n.h.T n.K                                         ",
"                                      Q.<.:.D.A.9.d.w.C 8.u                                         ",
"                                      K.z.w.S.9.] x I ~ b 9                                         ",
"                                      z.N.n.N.8.h.L c g 7 ,                                         ",
"                                      @.h.H.h.9.M.o.M z : + .                                       ",
"                                      R d.C.n.a.$.0 6 a = o o                                       ",
"                                      F @.M.a.a.y $ % t * O *                                       ",
"                                      E ( y.%.Q , # ; 7 < 4                                         ",
"                                      ~.=.0.^ a & % 6 e < 2                                         ",
"                                      2X/.] Y q > w h G 1 f                                         ",
"                                      +X2XP.>.D r d Q { j E.                                        ",
"                                      P.>X:XOX4.{ &.^.OX,X@X                                        ",
"                                      3._.9X>X*X#X-X4XwX6XK.                                        ",
"                                      J E ).9XrXrXuXiXqX!.R                                         ",
"                                        p 1._.pXiXsXwX@X@.B                                         ",
"                                        H _ [.2X7X+X}.n.Z                                           ",
"                                          z ) S.6. .%.! i                                           ",
"                                            b Y N V A                                               ",
"                                              b v P                                                 ",
"                                                                                                    ",
"                                                                                                    ",
"                                                                                                    ",
"                                                                                                    ",
"                                                                                                    ",
"                                                                                                    ",
"                                                                                                    ",
"                                                                                                    ",
"                                                                                                    ",
"                                                                                                    ",
"                                                                                                    ",
"                                                                                                    ",
"                                                                                                    "
};
