/* XPM */
static char *dd1_fotor_bg_remover_2024013001454__1_1706570122[] = {
/* columns rows colors chars-per-pixel */
"50 50 236 2 ",
"   c #080605",
".  c #130E0B",
"X  c #16110E",
"o  c #1E1612",
"O  c #231B13",
"+  c #281E18",
"@  c #2D2217",
"#  c #2C2119",
"$  c #33261A",
"%  c #34271A",
"&  c #3B2C1E",
"*  c #3F301E",
"=  c #372A20",
"-  c #3D2E21",
";  c #37312B",
":  c #3E3A34",
">  c #3E3B3A",
",  c #402F1F",
"<  c #41301F",
"1  c #402F22",
"2  c #443223",
"3  c #493624",
"4  c #4E3926",
"5  c #44372B",
"6  c #4D3A29",
"7  c #523C26",
"8  c #543E29",
"9  c #583F28",
"0  c #473B31",
"q  c #443D34",
"w  c #413E3C",
"e  c #56412B",
"r  c #5B432B",
"t  c #5C4529",
"y  c #4C4031",
"u  c #42433E",
"i  c #544432",
"p  c #5B4633",
"a  c #5C4B3A",
"s  c #634629",
"d  c #64492D",
"f  c #6B4D2D",
"g  c #76562C",
"h  c #654D35",
"j  c #624E3B",
"k  c #665138",
"l  c #73583C",
"z  c #4A4947",
"x  c #574E48",
"c  c #58514B",
"v  c #5C524B",
"b  c #585655",
"n  c #5C5B5B",
"m  c #655341",
"M  c #6B5A4A",
"N  c #755E47",
"B  c #655C54",
"V  c #7B6142",
"C  c #75614D",
"Z  c #696159",
"A  c #746253",
"S  c #776859",
"D  c #796A5C",
"F  c #686564",
"G  c #6C6B6B",
"H  c #766E68",
"J  c #7D7369",
"K  c #716F70",
"L  c #767574",
"P  c #7A7877",
"I  c #A5191D",
"U  c #9A2A1E",
"Y  c #AF1A21",
"T  c #9D2621",
"R  c #993521",
"E  c #AC2B25",
"W  c #B42B26",
"Q  c #B92A26",
"!  c #A43425",
"~  c #AB3424",
"^  c #A83C27",
"/  c #BC3126",
"(  c #B33A27",
")  c #BB352A",
"_  c #BC3B2A",
"`  c #C61E26",
"'  c #D61F29",
"]  c #E11F2A",
"[  c #C32526",
"{  c #C42727",
"}  c #CB2527",
"|  c #CC2429",
" . c #C42928",
".. c #CB2C29",
"X. c #D22627",
"o. c #D4232A",
"O. c #DB232B",
"+. c #D42A2C",
"@. c #DB2A2C",
"#. c #C3342A",
"$. c #CA342D",
"%. c #C53A2B",
"&. c #D3342E",
"*. c #D93C2E",
"=. c #DF2830",
"-. c #CD3D32",
";. c #DA3A32",
":. c #E3232C",
">. c #E9232C",
",. c #E1292E",
"<. c #E22E32",
"1. c #9C4924",
"2. c #845F2A",
"3. c #9A5827",
"4. c #AA4527",
"5. c #B5422B",
"6. c #B8472B",
"7. c #AB532B",
"8. c #A8592A",
"9. c #B6572B",
"0. c #BC4B32",
"q. c #A95D30",
"w. c #B85632",
"e. c #8B6229",
"r. c #976728",
"t. c #9C6B29",
"y. c #AB632E",
"u. c #A8662C",
"i. c #A16E29",
"p. c #BA692F",
"a. c #A17029",
"s. c #A86833",
"d. c #B56735",
"f. c #A97336",
"g. c #B67735",
"h. c #CD4B2D",
"j. c #D9402D",
"k. c #C94533",
"l. c #D44535",
"z. c #DD4334",
"x. c #C75635",
"c. c #D55F33",
"v. c #E04039",
"b. c #C5632F",
"n. c #C86C37",
"m. c #DB613A",
"M. c #D86638",
"N. c #C87337",
"B. c #D57938",
"V. c #82684A",
"C. c #85776A",
"Z. c #857C73",
"A. c #DD6641",
"S. c #D16A42",
"D. c #CD7744",
"F. c #D87A45",
"G. c #E26A43",
"H. c #BE8335",
"J. c #BE883E",
"K. c #C78838",
"L. c #C4893B",
"P. c #CB8C3B",
"I. c #D48E3A",
"U. c #CE903D",
"Y. c #D3923B",
"T. c #DB973C",
"R. c #B78748",
"E. c #8C837C",
"W. c #93867A",
"Q. c #C98C43",
"!. c #D88942",
"~. c #C89047",
"^. c #CC944B",
"/. c #D59544",
"(. c #DD9B46",
"). c #D59548",
"_. c #DC9C49",
"`. c #CD9850",
"'. c #D99F56",
"]. c #E18444",
"[. c #E59B46",
"{. c #E39E4A",
"}. c #E98D51",
"|. c #D9A056",
" X c #E8A447",
".X c #E5A14C",
"XX c #EAA34C",
"oX c #E9A554",
"OX c #E4A559",
"+X c #EFAA5C",
"@X c #F4AC54",
"#X c #F9B257",
"$X c #FCB762",
"%X c #817F80",
"&X c #848383",
"*X c #898786",
"=X c #8C8B8A",
"-X c #958B82",
";X c #968D86",
":X c #9D9389",
">X c #8F9090",
",X c #949494",
"<X c #9D9893",
"1X c #9B9B9A",
"2X c #A6998E",
"3X c #A59D96",
"4X c #AEA59F",
"5X c #A4A4A4",
"6X c #AAA7A6",
"7X c #ACACAC",
"8X c #B3AEAA",
"9X c #B0AFAF",
"0X c #B6B2AD",
"qX c #B3B3B3",
"wX c #B9B6B3",
"eX c #B9B8B9",
"rX c #BCBCBB",
"tX c #C2BEB9",
"yX c #C2C0BE",
"uX c #BFC1C0",
"iX c #C4C4C4",
"pX c #C9C8C6",
"aX c #CCCBCB",
"sX c #D1CFCD",
"dX c #D2D1CE",
"fX c #D4D4D3",
"gX c #D9D6D5",
"hX c #DCDAD7",
"jX c #DDDDDC",
"kX c #E4E4E4",
"lX c #E7E8E8",
"zX c #EBEBEB",
"xX c #F0EFEF",
"cX c #F4F4F4",
"vX c #F8F7F8",
"bX c #F8F8F9",
/* pixels */
"  # 5 7 4 1 $ O $ 5 & 2 6 4 6 5 o . $ 3 A 6X8X0XrXsXdXtXJ y 4 3 < < e 7 7 7 4 e 7 7 7 < & 6 6 3 6 - ",
"  o 2 7 4 $ o + - 3 & 3 3 4 7 < .   + 3 W.lXcXbXvXbXbXcX0Xe 3 4 & < e 7 7 4 < e e 7 4 < 2 3 3 6 5 @ ",
"  o 3 7 6 O . # 2 6 5 e e 9 7 3 5 n J a E.lXcXvXcXcXvXvX8Xh Z.Z.p 4 7 4 3 4 3 4 7 7 7 3 7 i e 7 4 & ",
"o - e 7 3 o X + $ 2 - 5 i j D <XsXxXxX:XJ kXxXxXzXxXxXxX:XC.sXjXpX3XA j 4 3 2 3 7 e e < 4 p e 7 e 3 ",
"< 7 e 7 3 O + $ # - + - Z 9XjXzXcXvXvXrXE.aXkXlXzXxXzXjX,X,XdXlXcXvXkXdX;Xe < 4 7 7 7 * < e 7 7 7 % ",
"r 7 7 7 3 $ 1 - - - # - 1XiXjXcXvXvXvXfX,XfXkXzXlXkXlXgX>X7XjXlXcXcXcXcXpXm < e 7 7 4 3 4 9 7 4 4 $ ",
"7 7 7 9 4 & 7 7 7 5 # = Z.iXjXzXcXcXvXjX1XfXzXlXkXjXkXsX=XrXlXzXzXlXkXhX8Xa < < 4 e 6 6 7 7 7 7 4 & ",
"r r r t 7 & 2 3 < & F J B qXjXzXcXvXcXkX7XpXkXkXjXjXkXiX=XpXlXzXkXfXpX7XE.;X0XF 4 4 4 2 < e 7 r 4 2 ",
"r 9 r 7 9 * < % + L lXlX,X1XfXlXzXcXxXjX7XuXjXjXjXjXjXqX,XfXlXlXjXpX7X=X>XlXbXjXD 3 3 % < 7 7 7 7 - ",
"r t e 9 4 4 r i Z.kXbXcXaX=X9XkXzXlXjXjXuXqXgXjXjXjXdX5X9XjXzXlXkXfX5X&XaXcXcXcXdXC.r 3 3 7 7 4 4 2 ",
"p k t e 7 3 k 3XkXxXcXcXzXeX>XaXjXjXjXjXuX,X7XuXaXeX7X>XeXjXlXkXjXiX,X9XzXcXcXcXzXaXD < < 7 7 4 4 % ",
"e e 6 4 3 & M aXkXzXxXcXzXfX1XeXuXfXhXrX&Xn c z c c z b K ,XuXfXfX9X1XfXxXcXlXlXjXpX;X< < 7 7 4 4 @ ",
"7 2 , & # 5 M 5XsXkXlXxXzXjXqX1X5X,XL z : : y y e y y 0 > u b =X7X,XpXkXlXlXkXlXfX9XD p y 9 4 5 3 $ ",
"d 7 7 & ; eX0X=X1XaXjXlXlXjXiX*Xb u : i g 2.e.t.r.t.r.e.g p q > c L pXjXjXkXlXjX9X&X:XdXW.e 7 3 3 - ",
"r e 8 3 -XxXlXaX1X,XuXjXjXjX5Xz > p e.t.a.t.r.r.e.r.r.r.i.t.e.f u w &XfXaXdXjX7X>XrXzXbXdXl 4 4 4 2 ",
"r e 7 C hXvXvXcXhX1X,XiXaX,Xz q g t.t.3.R U 3.r.r.r.r.R R 3.t.a.e.y u &X9XrX1X1XsXxXbXcXlXW.4 e 7 - ",
"t t k 0XzXzXcXcXzXgX9X1X%Xw y e.a.3.R U U Y 3.r.t.e.r.U U U U 1.t.t.t u G ,X1XaXjXxXcXxXzXrXm 4 6 2 ",
"t < J jXlXzXlXzXzXlXjX>Xu y e.t.1.W ` [ k.X.N.L.K.K.N.( U U I I R r.t.t > G iXjXzXxXxXzXlXhX-X6 6 - ",
"r < b tXfXpXaXjXlXlXiXn q g i.4._ ;.' :.:.@.B.T.I.(. X*.' ' I I R T r.r.y z eXjXzXkXkXjXfXaXE.4 5 + ",
"r e E.6X,X>X7XfXjXjX*X> f a.7.O.#.&.' :.>.@.B. XT. X Xz.>.>.O.[ E I R u.e.q L aXjXjXaXeX3X<XW.N 4 1 ",
"7 C.xXlXpX7X,X1XqXqXb y t.p...,.:.:.O.>.>.@.F..X{..X{.z.>.] ' >.:.' I 1.a.d z 5XuX9X1X5XqXfXxXrXp 1 ",
"7 :XcXvXcXlXfX9X1XL w f g.x.+.O.:.>.O.:.>.:.B.L._.P.^.z.>.] ' :.>.O.+._ y.e.q n 1X5XpXjXcXbXbXhXj & ",
"t 3XzXcXbXcXkXgXrXF y a.B.6.$.:.>.>.O.:.>.,.]. X{.{.{.z.:.:.' >.>.O.$.k.h.H.k u 5XfXjXzXcXcXvXhXj % ",
"p 0XlXzXzXxXzXkXdXb p L.h.O.} [ ..,.O.:.>.@.].@XXXXX{.;.>.@.O.:...Q } o.@.(.R.w 5XkXlXxXxXzXxXjXS & ",
"A sXkXlXkXkXkXjXqXz 2.I.5.W R [ [ 0.+.:.>.=.]. X(.XXoXz.>.,.' -.)  .~ E / !.).i =XjXkXkXkXlXlXkXE.1 ",
"C wXaXaXsXdXfXaX,X: R.Q._ #.4.{ ..k.O.:.:.=.B._.OXoXOXz.>.,.' -.#.Q ( ( Q d._.M P pXfXiXaXaXaXaXZ.1 ",
"d S Z.=X1X5XeXqXL q R.N.7.7.6.5.q.0.%.@.O.=.F.^.OX).).z.:.=.$.k.q.4.4.7.7.w.|.V.n 6XqX5XqXqX-XC.k 1 ",
"p h k 6XaXjXzXkX&Xz f.s.f.f.3.u.p.f.w.5.| ,.}.#X+X+X+Xz.O.) 7.s.g.u.3.s.f.s.g.N F iXhXkXzXzX-X7 4 & ",
"e 6 a yXkXxXvXcX6Xx Q.n.4.R 5.( 1.4.| O.>.=.}.$X+X$X#Xz.:.O.` ) 1.! 5.4.^ 0.OXV.G aXkXxXbXvX3X8 4 # ",
"e 3 i rXkXxXxXcXrXv `.n.) ) ^ { | %.+.:.>.:.}.$XoXoX_.z.>.:.O.-.+.[ ~ ^ Q 0.+XV.G fXlXxXxXlX-X2 4 % ",
"d 4 a aXlXlXlXzXqXc ~.m.{ W ! Q  . .' =.l.@.B._././.).z.;.;.O.+.Q Q E W Q ;.oXV.L fXlXzXlXgXS , 4 & ",
"t e a qXdXaXaXpX&Xx Q.c.' =.O.[ +.>.' h.^.;.N.L.{.Q.!.l.n.F.o.:.o.| +.:.=.;./.N n 7XyXiXsXyXM 4 4 1 ",
"e e p *X7XqXqXeXP c ^.m.-.l.O.:.>.>.+.9.f.x.!.XXoXXX{.x.y.g.$.>.:.:.:.+.x.*.Y.V n 3XeXeXrX9XZ 6 4 1 ",
"t 7 M rXjXlXxXcX5Xc ).m.X.+.O.O.:.:.x.w.9.q.).@XXX@X{.N.9.7.d.<.:.:.O.O.o.*.Y.V F pXjXcXbXcXW.4 6 2 ",
"t 7 M pXkXxXvXcX6Xv ~.c.:.:.:.:.:.@.S.;.+._ /.@X{.@X).S.@.+.9.z.>.O.O.:.:.;.I.N H pXkXcXcXcXW.4 6 - ",
"r 7 k yXlXcXcXcX5Xx R.c.&.l.' :.:.' w.x.j.n.).).).).K.N.l.l.n.<.>.:.O.@.l.*.I.l %XjXkXzXcXzXW.8 4 + ",
"r 7 m iXkXzXlXjX>Xv `.A...&.' :.>.:.W 4.g.6.N.K.P.L.g.4.8.d.%.:.>.:.@.O.#.z.T.V.P jXkXlXzXlX;Xe 7 1 ",
"9 7 i 3XrXeXrX6XK b |.G.:.=. .Q ) +.' ` [ X.B.T.I.Y.T.%.` } ' @.#.W Q +.@.;.[.V.n qXrX0XeX9XD y 8 3 ",
"9 7 i 1XiXiXaXfX=Xv |.F.) / R +.| 0.X.>.>.:.B.T.I.T.T.*.>.>.O.-.#.o.! ~ Q h. XV.F 7XeXiXaXiXD 8 8 % ",
"9 7 k iXkXcXcXbXwXv '.D.) ) 5.) ) 5.o.>.>.:.B.T.P.T.T.*.:.>.' %.) Q ( ( #.6.XXV.L fXkXcXbXcXW.7 4 % ",
"7 7 k pXlXcXvXcX6Xv R.g.s.q.7.7.s.d.0.&.@.,.N.K.P.P.P.*.:.+.k.w.f.9.7.q.y.q.P.N K dXkXcXvXcX;X6 4 & ",
"e 7 m aXzXxXzXkX=Xx f.u.s.q.3.q.y.y.4.#.X.@.b.K.I.K.Q.z.O.#.4.q.s.8.3.s.s.q.g.N G aXlXcXcXzX:Xe 7 1 ",
"t 7 j wXfXjXkXgX%Xx N.p.^ ! 5.) ~ 5.' :.] O.B. X[. X Xz.:.>.' ) ~ E _ ^ W 9.I.V G aXkXlXjXiXC.7 4 1 ",
"r e i *X5X7X9X7XP v R.b./ W ^ | o._ o.] :.@.].@X{. X(.;.>.:.' #...o.! ~ Q 6.{.V.n 5X7X7X9X,XM 7 7 1 ",
"d j j 5XjXlXkXkX6Xv J.c.o.[ W W W { O.<.:.>.I.T.Y.T.Y.*.:.] ' o.W W W [ } v.+XV.F qXiXfXkXaXJ e 7 % ",
"8 8 p wXzXcXvXvXrXv R.c.&.l.' ' k.;.O.O.l.@.n.K.P.H.L.*.&.l.O.:.k.$.O.:.l.v.+XV.K sXkXxXbXxXW.t 9 @ ",
"8 3 p iXzXxXvXcX0Xc Q.c.| $.>.' $.@.] | %.O.n.K.P.H.L.*.| -.' >.#.o.' @.$.;.+XV.F aXkXzXzXxX2Xr 7 % ",
"d 7 j aXkXlXzXcXrXv ^.!.m.c.A.c.c.m.m.m.m.M.K.U.L.U.Y.M.A.A.A.G.G.A.m.G.G.F.oXV G fXkXkXlXzX2X7 4 , ",
"r r a wXgXaXfXfX3Xv R._._._.[._._.(.(.(./.Y.P.K.K./._.OXOXOXOXOXOXOXOX'./.P.L.l F aXhXfXfXpXC.4 4 1 ",
"r e 7 A H N D N a 8 8 f f f f s s f f f s 9 s f s f d d g f f f d d f f s s 7 8 i S C.C.C.A s 7 4 1 "
};
