/* XPM */
static char *Pngtree___castle_closed_gate_8760517__1_1704926391[] = {
/* columns rows colors chars-per-pixel */
"50 50 186 2 ",
"   c None",
".  c #190F0C",
"X  c #1D120D",
"o  c #1D1514",
"O  c #1F191B",
"+  c #181518",
"@  c #2D150E",
"#  c #321B0F",
"$  c #38180E",
"%  c #211713",
"&  c #2B1511",
"*  c #271C19",
"=  c #341B11",
"-  c #3D1B12",
";  c #2C211E",
":  c #3D2314",
">  c #33231B",
",  c #382116",
"<  c #211F21",
"1  c #2A2527",
"2  c #362923",
"3  c #332C2C",
"4  c #3D3634",
"5  c #42190E",
"6  c #4B1C0F",
"7  c #411E12",
"8  c #4B1D11",
"9  c #511F11",
"0  c #432415",
"q  c #4C2315",
"w  c #432916",
"e  c #4D2C15",
"r  c #42261B",
"t  c #462C1A",
"y  c #4C2B1A",
"u  c #542314",
"i  c #5B2515",
"p  c #562618",
"a  c #582719",
"s  c #532B1B",
"d  c #5C2A1A",
"f  c #512B16",
"g  c #4B311C",
"h  c #54321D",
"j  c #5C331E",
"k  c #593A1D",
"l  c #612717",
"z  c #632917",
"x  c #632C1B",
"c  c #6A2E1B",
"v  c #64321F",
"b  c #6C321E",
"n  c #623A1B",
"m  c #74331D",
"M  c #78361F",
"N  c #502E24",
"B  c #5A3620",
"V  c #5D3C24",
"C  c #583723",
"Z  c #453935",
"A  c #563E36",
"S  c #643321",
"D  c #6B3522",
"F  c #633C25",
"G  c #6C3B25",
"H  c #6E3D28",
"J  c #613929",
"K  c #723621",
"L  c #783721",
"P  c #743A24",
"I  c #7B3C25",
"U  c #743D29",
"Y  c #7C3F29",
"T  c #6A3E30",
"R  c #67441E",
"E  c #48403E",
"W  c #624126",
"Q  c #644328",
"!  c #6E412A",
"~  c #6D4723",
"^  c #724B24",
"/  c #75412C",
"(  c #7D422C",
")  c #734D29",
"_  c #6C4436",
"`  c #754332",
"'  c #7A4532",
"]  c #7E4935",
"[  c #7E4B38",
"{  c #77512B",
"}  c #4A4A4E",
"|  c #474141",
" . c #574A46",
".. c #5D595A",
"X. c #555458",
"o. c #615C5A",
"O. c #6E4E45",
"+. c #5B5E63",
"@. c #67686A",
"#. c #776764",
"$. c #76716F",
"%. c #696D74",
"&. c #6F7075",
"*. c #737477",
"=. c #73767B",
"-. c #7B7A7C",
";. c #7A7779",
":. c #813E26",
">. c #84432C",
",. c #8A462D",
"<. c #8D482E",
"1. c #834027",
"2. c #91492F",
"3. c #824631",
"4. c #854933",
"5. c #8B4C34",
"6. c #8A4E38",
"7. c #934E32",
"8. c #8D5136",
"9. c #8D513A",
"0. c #945136",
"q. c #9B5436",
"w. c #93543B",
"e. c #9C5639",
"r. c #96593D",
"t. c #9C5A3E",
"y. c #8C5429",
"u. c #A15B3C",
"i. c #966031",
"p. c #815E4F",
"a. c #9D5D41",
"s. c #A45F41",
"d. c #8E604C",
"f. c #93624C",
"g. c #9A644C",
"h. c #856356",
"j. c #8C6453",
"k. c #86675C",
"l. c #966A57",
"z. c #A66142",
"x. c #AA6343",
"c. c #AF6947",
"v. c #AF6A48",
"b. c #8F756C",
"n. c #9A7667",
"m. c #877C7A",
"M. c #A17E6F",
"N. c #9B8178",
"B. c #A78576",
"V. c #7B7D82",
"C. c #7D8288",
"Z. c #838485",
"A. c #82868A",
"S. c #85898D",
"D. c #8A8B8D",
"F. c #948E8C",
"G. c #868B91",
"H. c #8B8E92",
"J. c #918F91",
"K. c #8D9296",
"L. c #8E9499",
"P. c #929395",
"I. c #92969A",
"U. c #94999D",
"Y. c #9B9B9C",
"T. c #A69690",
"R. c #959DA3",
"E. c #999EA2",
"W. c #9BA1A5",
"Q. c #9DA4AA",
"!. c #A1A3A5",
"~. c #A0A6AA",
"^. c #A4AAAE",
"/. c #ADAFAF",
"(. c #A6ADB2",
"). c #A9AFB3",
"_. c #ACB1B6",
"`. c #AEB4B9",
"'. c #B1B4B5",
"]. c #B1B6BB",
"[. c #B4B9BC",
"{. c #B9BCBE",
"}. c #B6BDC2",
"|. c #BABFC1",
" X c #BDC1C4",
".X c #C0C3C5",
/* pixels */
"                                                                                                    ",
"                                                }.}.}.}.}. X}.  }.                                  ",
"                                          [.{.}.}.}.}.}.}. X[._.}.`.}.                              ",
"                                  `.`.).~._.`.].].[.[.}.}.}.(.`.].}.]. X}.}.                        ",
"                              _.`.`.`.(.(.`.`._.`._._._.}.`.Q._.`.`.`.].]. X                        ",
"                          _.).(._._.`.~.^.`._.`.'.'.]._.(.G.U.(._._._._._.`. X                      ",
"                        R.(.).(.(.(.Q.L.o.m.W._.^.P.*. .4 4 ..=.C.U._._._._.Q.U.                    ",
"                    {.[.(.I.^.(.Q.W.U.=.2 1 Z X.E 2 % X X X 1 X.@.*.L._.(.R.U.'..X                  ",
"                  [.[.[.[.!.P.Q.H.&.} 3 * < O * = * O + o o + O 1 E @.L.H.C._.{.{.{. X              ",
"                {.[.{.[.{.[.Y.@.Z 3 3 < = - - 5 : = $ - = = & o X % ; } =.!./.'.{. X X              ",
"                '.{.{.'.[./.+.3 2 2 t s r t 0 0 0 : - 0 : 0 8 - # % o O 3 Z.'./.[.|. X}.            ",
"                /.'.{.{.{.&.* - r q d N t t y q w : 0 0 0 r q 0 : # # @ . 3 Y./.'.[.].~.            ",
"            Q.W.W.!._.[.Z.3 r d s d K c s s i i s 0 6 9 w q u i u 5 5 - @ . } ^.Y.I.^.[.            ",
"            ~.~.~.Q.L.U.| s B x B x I K S x x i s q 8 i u u i l d 8 5 6 - # o +.;.U.`.[.}.          ",
"            ~.^.^.^.U.X.N P v b B D I K m x x d u 8 8 u 9 9 i i i 8 5 6 5 6 @ O S.(.(.`.}.          ",
"          ~.~.~.^.^.R.O.P P S D v D :.I L b c x p u u 9 i i i l l u 5 6 6 9 q & =.).^.`.].}.        ",
"          Q.~.(.~.(.L._ I I H P D K :.:.I m b x d p p p i i z x z u 6 6 u 9 9 - ..^.^.)._.}.        ",
"            L.E.Q.Q.Z.U 1.( Y P D U ,.>.I P K D x a p x l x c c b i q u 9 i i 6 Z S.~.~.(.).        ",
"          ~.E.Q.(.(.Y.] >.>.( P H U <.3.1.I P D S d d x z z c m m a q i i i i p #.I.Q.Q.R.R.).      ",
"        P.~.).].[.].!.4.>.,.( ( U Y 7.<.>.I I K S d x v c c m m M z p i i z l u m._.(._.].`.`.      ",
"        I.E.).`.].}.T.Y ,.,.>.( U Y 7.2.,.1.I P D x x b m m m M M b a d d z z u k.).).).].].(.      ",
"          E./.].].].M.3.8.<.,.' Y 3.0.0.<.>.( I H D D D K K L L M b d z z c c i O./.).).].[.(.      ",
"          ~.(.].`.}.b.H ! / H H H H / / / G G G B d j v v b K b b d f f a z a u T !.).`.].}.^.      ",
"          =.A.R.R.R.k.g g ~ g g N g g g g k R g t r w w R g : 0 : : : : e w # # s -.G.E.Q.R.        ",
"          U.L.I.W.R.#.G G / F H F F ! U G G ~ j j s y s n s s s s q 0 0 s f 0 0 h -.L.R.Q.(.        ",
"          W.Q.).(.W.j.8.e.q.0.8.4.0.s.u.q.7.5.4.( / Y / >.>.<.2.<.I D D m I L b ' J.Q.Q._._.].      ",
"        U.U.R.Q.(.W.h.8.e.e.r.8.6.0.s.u.e.0.0.4.4.>.( >.,.,.2.2.q.:.P P P I M b ` J.Q.R.^.(.`.      ",
"        L.L.U.Q.Q.K.h.w.t.e.q.9.6.w.z.u.u.0.8.5.4.' 3.3.,.<.2.7.7.Y U P I I :.m H Z.W.Q.Q.(._.      ",
"          -.S.W.L.C.j.w.t.u.w.0.6.w.z.s.e.q.0.6.4.' >.4.,.<.2.7.0.1.U I I :.I P H %.S.R.R.R.~.      ",
"          '.'.[.{.[.n.8.u.e.w.w.6.w.e.8.i.5.0.8.4.4.4.,.5.5.2.<.y.U U Y I :.:.K U V.'.{.|.{.[.      ",
"          '.'.'.{.{.n.r.u.t.w.w.8.0.' G I ! 0.6.4.4.4.4.5.<.2.G D s D Y :.:.:.K H F.[.{.|.|..X      ",
"          '.'.[. X XB.w.s.u.w.w.8.5./ / I F 6.0.4.4.4.,.5.7.>.j L a B Y :.>.:.K U Y.{.{.|.|.|.      ",
"          '.'.'.{.{.n.a.a.t.r.r.9.w.4.G G ! 0.0.4.4.4.4.8.7.<.v n s x ( 1.>.1.I / Y.{.{.{.{. X      ",
"          '.'.{.{.'.l.r.a.u.e.r.9.r.u.0.5.7.w.9.8.4.4.6.<.7.7.>.P b U 1.>.>.1.M / Y.{.}. X|. X      ",
"          P.D.L.I.G.j.r.s.s.e.a.9.t.x.s.u.e.r.9.6.4.4.5.8.7.7.q.q.>.U >.>.>.1.P / =.K.W.(.].        ",
"            U.R.~.R.d.w.r.r.9.6.8.r.z.g.t.0.0.9.4.4.4.5.<.7.q.q.q.3.Y ( 1.>.1.I / V.R.R.~.          ",
"            ~.`._.~.#.V ) ) V W W W Q Q Q ) { J V F F W ) Q F F V h k h j W f e J P.).(._.(.        ",
"            W._._.~.d.V ~ ) V V V V V V V ! ) J C C g h ^ k g e g t r w h n w : V P.(.(.`.`.        ",
"          P.K.~._.Q.l.9.e.e.6.6.4.9.t.e.w.6.4.:./ ' U U ( ( >.>.>.P G H m I P v ` J.Q.(._.}.        ",
"          K.D.W.(.U.h.a.z.s.t.r.0.g.v.x.z.t.a.:.9.8.4.9.2.0.q.u.u.,.( >.>.<.,./ ' H.W.Q._.}.        ",
"          S.S.E.(.L.j.a.z.s.r.r.a.a.s.s.s.s.0.a.6.6.4.6.7.q.q.q.t.,.>.>.>.,.,.Y ' G.Q.Q.).`.        ",
"          D.A.I.U.G.j.r.z.s.e.a.6.a.c.s.s.s.a.a.9.6.6.7.7.2.u.u.u.,.' >.,.<.,.Y ' =.A.I.~.(.        ",
"          W.).)._.U.f.a.s.s.a.r.d.q.v.x.s.s.a.0.6.6.6.6.7.q.q.u.u.,.' >.>.<.,.I ' V.E.).).}.        ",
"          E._.].}.L.f.a.s.s.r.a.a.s.v.x.s.s.a.6.9.0.6.6.0.0.q.u.u.4.( >.,.2.<.Y ' V.~.].].}.        ",
"          U.)._.].R.f.a.s.s.s.a.d.e.x.c.s.a.a.6.9.9.6.9.0.0.e.e.u.5.Y ,.3.2.,.Y ' =.I.).}.}.        ",
"          Y.)._.`.R.f.a.s.s.a.a.6.a.v.s.s.a.r.a.9.9.6.6.0.q.u.u.u.5.3.>.,.2.,.:.3.=.D.^.].].        ",
"          Y.^.).`.U.g.s.s.s.a.w.a.a.c.x.s.s.w.w.a.9.9.0.7.q.u.u.u.5.( ,.,.2.<.:.[ *.Z.~.}.`.        ",
"          D.U.^.`.J.l.a.s.s.a.a.a.s.c.x.s.s.a.a.6.9.9.w.0.q.u.u.u.5.3.3.,.2.<.' [ &.-.W.]._.        ",
"            ;.D.~.K.;.#.#.#.                                                _ A  .%.m.E.(.R.        ",
"                                                                                                    "
};
