/* XPM */
static char *dd1705173317[] = {
/* columns rows colors chars-per-pixel */
"50 50 185 2 ",
"   c #000000",
".  c #090604",
"X  c #0E0A07",
"o  c #070808",
"O  c #0C0B0B",
"+  c #1B0703",
"@  c #160D07",
"#  c #1D0B06",
"$  c #140E0B",
"%  c #1D0F0A",
"&  c #17110D",
"*  c #1A130D",
"=  c #0F0F10",
"-  c #141414",
";  c #1D1612",
":  c #1F1812",
">  c #1B1C1C",
",  c #230C06",
"<  c #230E08",
"1  c #290F09",
"2  c #24120C",
"3  c #2B120C",
"4  c #2C180F",
"5  c #33150C",
"6  c #39160E",
"7  c #33180E",
"8  c #3E180F",
"9  c #231612",
"0  c #2E1611",
"q  c #251A13",
"w  c #2C1C15",
"e  c #241C1A",
"r  c #2A1E1A",
"t  c #341B13",
"y  c #331B14",
"u  c #3C1B12",
"i  c #2E2117",
"p  c #2D221D",
"a  c #342216",
"s  c #3D2515",
"d  c #32221A",
"f  c #3B251C",
"g  c #1F2020",
"h  c #242324",
"j  c #2D2423",
"k  c #262728",
"l  c #272829",
"z  c #2B2A2A",
"x  c #322521",
"c  c #342A23",
"v  c #3C2B21",
"b  c #352C2A",
"n  c #3B2C2A",
"m  c #3A312E",
"M  c #2F3031",
"N  c #323334",
"B  c #3E3633",
"V  c #353639",
"C  c #373A3D",
"Z  c #3A3A3D",
"A  c #441D13",
"S  c #4A1F13",
"D  c #442214",
"F  c #4B2216",
"G  c #442319",
"H  c #4C2419",
"J  c #452D1B",
"K  c #4B2C1B",
"L  c #522417",
"P  c #512F14",
"I  c #53261A",
"U  c #542A1C",
"Y  c #5C2C1E",
"T  c #4A3119",
"R  c #5E331A",
"E  c #5A391A",
"W  c #612E1E",
"Q  c #65311E",
"!  c #68301F",
"~  c #422F26",
"^  c #542C21",
"/  c #5B2E20",
"(  c #44342F",
")  c #5D3323",
"_  c #5A3726",
"`  c #57362B",
"'  c #453532",
"]  c #4B3936",
"[  c #443B38",
"{  c #503B37",
"}  c #533D38",
"|  c #612F20",
" . c #643323",
".. c #6A3525",
"X. c #6C3827",
"o. c #653A2A",
"O. c #6B3B2B",
"+. c #713927",
"@. c #723C2A",
"#. c #4E423B",
"$. c #5A403B",
"%. c #75402E",
"&. c #7B432F",
"*. c #6F4432",
"=. c #764432",
"-. c #7B4432",
";. c #734833",
":. c #7B4B37",
">. c #7E4C39",
",. c #3C3E41",
"<. c #3F4143",
"1. c #414346",
"2. c #4E4845",
"3. c #44464A",
"4. c #46494C",
"5. c #4B4C4E",
"6. c #534B49",
"7. c #5E524E",
"8. c #474B50",
"9. c #4A4D51",
"0. c #4F5458",
"q. c #525456",
"w. c #5B5656",
"e. c #535658",
"r. c #56595B",
"t. c #5A5C5E",
"y. c #625A58",
"u. c #5C5E61",
"i. c #5E6164",
"p. c #5D636A",
"a. c #626365",
"s. c #626669",
"d. c #66696B",
"f. c #6A6B6C",
"g. c #716B6A",
"h. c #75716F",
"j. c #6A6E72",
"k. c #6E7174",
"l. c #6E747B",
"z. c #717375",
"x. c #72777B",
"c. c #797B7C",
"v. c #834A36",
"b. c #834E3A",
"n. c #894F3A",
"m. c #86513C",
"M. c #88513E",
"N. c #8C5440",
"B. c #797E81",
"V. c #7D8185",
"C. c #7E858C",
"Z. c #7F888F",
"A. c #838384",
"S. c #83878A",
"D. c #85898D",
"F. c #8B8C8E",
"G. c #868B90",
"H. c #8A8E92",
"J. c #8C9195",
"K. c #8E949A",
"L. c #929395",
"P. c #91969B",
"I. c #949A9D",
"U. c #999C9E",
"Y. c #969DA2",
"T. c #9A9EA2",
"R. c #9BA1A6",
"E. c #9DA5AA",
"W. c #A3A4A6",
"Q. c #A2A6AA",
"!. c #A3AAAD",
"~. c #AAABAC",
"^. c #A5ADB1",
"/. c #A9AEB2",
"(. c #ACB2B6",
"). c #AEB4B9",
"_. c #AFB8BD",
"`. c #B1B4B5",
"'. c #B1B6BA",
"]. c #B5B9BC",
"[. c #B8BCBE",
"{. c #B4BCC1",
"}. c #B9BEC2",
"|. c #BCC1C5",
" X c #C0C4C7",
/* pixels */
"                                                      o = > z O                                     ",
"                                          = l Z 9.i.x.S.I.E.).r.k r.l o                             ",
"                                      l N r.(.].|.|.|.|.|.|.|.E.G.{.!.C.9.>                         ",
"                                . z k.!.U.B.'.'.).'.'.].{.}.{.^._._._.|.].E.9.                      ",
"                              z k.!.).).E.E.).).(.`.'.(.(.{.(.E.(.(.).)._.|.(.1.                    ",
"                          > i.R.(.(.).(.Q.^.).`.(.(.`.'.^.^.G.Y.^.(.(.(.(.(.].(.Z                   ",
"                      g z j.(./.!.!.!.E.D.w.A.!.(.Q.F.g.6.m B y.c.A.Y.(.^.(.!.E.k.g                 ",
"                  O r.Q.!.S.K.~.^.E.R.I.k.d n 2.a.#.n p r 9 9 N w.d.c.I.(.^.I.U.(.Q.q.O             ",
"                  f.].[.[.`.U.I.E.F.k.9.N d N M ' v c l k i p l b b 2.d.Y.D.F.`.}.}.}.f.o           ",
"                N /.[.].[.`.[.A.w.( ( [ N c z p - w X o o ; e h l r j b 5.c.~.~.].}.}.].V           ",
"                w.[.].].[.[.W.#.4 a n #.' c q - * i * & & i q & e i d q # b L.`.~.[.}. XB.          ",
"              > N F.[.].[.`.7.4 s s f i : i q q : d q : ; i q * * w 2 3 3 # [ W.`.`.{.'.x.o         ",
"              s.J.c.R.`.].h.4 5 6 K w     q o     w X     q X     9 & 6 3 1 , y.~.U.I.^.!.l         ",
"            - J.!.!.T.P.J.d 1 6 u U a     $ .     $ .     X o     $ @ G 6 1 , 9 a.c.T.).{.j.        ",
"            Z E.E.E.^.J.Z # 3 8 A ^ d                               . I A 5 1 + z P.^.^.{.T.>       ",
"            j.!.!.!.!.D.p # 3 8 A  .f                               . I A 5 1 + q D.~.^.(.{.e.      ",
"          O B.!.!.!.!.B.> , 3 A G O.f                               . ) S 6 1 , < z.!.!.(.{.G.O     ",
"            l B.E.E.T.u.9 < 5 S H O.f                               .  .F 8 1 , 2 5.P.Q.E.^.!.V     ",
"          M t.B.E.!.!.B.e < 7 H U @.f                               . o.U A 5 , w c.Y.E.T.Y.Y.j.    ",
"          s.^.`.).{.{.S.j < 6 L U %.f                               .  .Y S 5 , 0 F./.^.(.'.{.G..   ",
"          a.Q./.).'.{.x.j 1 8 I / =.f                               . o.R S 6 1 9 z././.(.'.'.S.o   ",
"          9.E.^.'.{.'.k.j 3 u I Y =.f                               . o.Q F 8 1 3 u././.(.'.{.l.    ",
"          M W./.'.{.(.u.j 3 u U / -.f                               . o. .L 8 1 2 4.Q./.(.{.{.u.    ",
"          > j.G.Y.Y.K.,.e % 2 s J ;.v                               . o.R D 5 % % ,.C.H.T.T.Y.,.    ",
"          C P.K.Y.E.J.V e $ 2 s s *.f                               . o.T s % @ @ V G.P.R.E.^.<.    ",
"          e.R.Q.^.^.J.C j < u H K ;.f                               . o.K 8 3 , * V P.R.E.(._.k.    ",
"          s.Y.U.!.^.K.C b 5 S / ) >.f                               o o. .I S 3 3 ,.I.R.Y.^.(.V..   ",
"        . d.P.I.E.E.V.V n 5 H |  .v.d                               o O.X.Y H 5 0 ,.G.R.E.E.^.J.O   ",
"          1.B.F.T.H.s.N b 6 H  . .b.r                               . O.O.W H 5 7 C p.V.R.Y.Y.k.O   ",
"          t.`.).].}.Q.1.b s R .. .b.d                               . O.O.W U 6 0 C D.'.[.[.].4.    ",
"          t.'.`.].[.'.0.~ G E Q X.b.y                               . O.+.W R P u <.T.[.}.}.|.t.    ",
"          r.'.`.].}.].f.( 6 y ^  .b.d                               . O.O.Q H 3 0 3.Q.].[.}.|.u.    ",
"          e.'.`.].[.).i.' u 0 K ..b.i                               . O.O. .D % 0 3.^.].[.}. Xi.    ",
"          9.].`.].[.E.4.' u u Y X.b.r                               . O.+.Q S < t 3.!.{.[.}. Xa.    ",
"          e s.c.L.P.j.,.] u F  .O.b.i                               . o.+.Q F 3 7 3.B.K.R.R.L.3.    ",
"            N S.Y.!.i.V ] 6 L ..X.m.r                               . O.+...I 5 7 <.Z.Y.Y.K.Z       ",
"            e.(.(.(.J.<.b 0 G U _ m.w                               . O.O. .P 5 q 3.R.^.(.).p.      ",
"            e.E.(.(.R.4.i * q T J :.w                               o o._ T a 2 2 <.R.!.!.].k.      ",
"            t.P.E.(.I.4.x 3 s D G :.w                               . o.K D 4 < 2 1.I.Q.^._.V.      ",
"            u.H.E.^.G.8.' u U /  .b.q                               . o. .L D 7 3 3.Y.R.E.).F.o     ",
"            i.G.E.E.Z.0.[ S Y ..o.b.w                               o O.@.| | A u 5.K.Y.E.).G.o     ",
"          o a.D.I.I.l.9.] G Y .. .N.q                               . O.&.| | A u 3.B.G.Y.!.G.=     ",
"          k U.^.(.).j.<.] F  ...X.b.q                               . O.&.! | A s 8.C.T.^./.).V     ",
"          g U.'.).].d.<.{ F  ...X.n.q                               . O.v.+. .A A 8.C.Q.).{.{.N     ",
"          - P.(.).].a.<.{ F  ...X.m.q                               o O.v.+...S A 3.B.P.(.{.(.k     ",
"          = D./.(.'.u.3.} H ..X.O.M.9                               o *.n.&.+.L G 8.p.F./.{.!.>     ",
"          O A.^.(.(.e.3.} I ..X.O.M.9                               . O.N.-.@./ G 9.u.V./.{.T.-     ",
"          . f.T././.4.5.$.I ..+.O.M.9                               o O.N.N.n.O.^ 9.0.B.Q.{.K.O     ",
"            N y.S.I.,.0.y.$.` K G ` $                               . _ b.>.>.O.o.9.8.x.P.L.u.      ",
"              O g k = > h h O                                         O $ & & ; & > - h k - o       "
};
