/* XPM */
static char *dopen_fotor_bg_remover_2024013001730__1_1706570281[] = {
/* columns rows colors chars-per-pixel */
"50 50 227 2 ",
"   c None",
".  c #020202",
"X  c #0E0806",
"o  c #0D0B0B",
"O  c #100A07",
"+  c #141313",
"@  c #1E150B",
"#  c #2A1D0F",
"$  c #22190E",
"%  c #2C1E11",
"&  c #241F1B",
"*  c #301F13",
"=  c #2E2112",
"-  c #302115",
";  c #362418",
":  c #2A2827",
">  c #352F2C",
",  c #32312F",
"<  c #3A3837",
"1  c #5A3E1A",
"2  c #553D1E",
"3  c #4A3318",
"4  c #79361F",
"5  c #413E3C",
"6  c #453C34",
"7  c #5A3E21",
"8  c #5F421D",
"9  c #63441D",
"0  c #5B492F",
"q  c #494138",
"w  c #574631",
"e  c #634421",
"r  c #6A4C2A",
"t  c #644D2F",
"y  c #7B4822",
"u  c #7F5B2A",
"i  c #6B5235",
"p  c #494644",
"a  c #484646",
"s  c #524C46",
"d  c #5B5958",
"f  c #755C43",
"g  c #725C4A",
"h  c #6C5945",
"j  c #7C634B",
"k  c #786144",
"l  c #6A6868",
"z  c #757474",
"x  c #7E7C7D",
"c  c #7E7876",
"v  c #716D6F",
"b  c #8C1F1B",
"n  c #981B1D",
"m  c #A6181E",
"M  c #89261C",
"N  c #86361E",
"B  c #96341F",
"V  c #98271E",
"C  c #B41A21",
"Z  c #BD1C24",
"A  c #9C2721",
"S  c #943321",
"D  c #993925",
"F  c #8A3F23",
"G  c #A22321",
"H  c #AD2721",
"J  c #B42B25",
"K  c #BB2B26",
"L  c #B82625",
"P  c #A33924",
"I  c #A83524",
"U  c #BE3C2C",
"Y  c #B93628",
"T  c #C71E26",
"R  c #D91F2A",
"E  c #E11F2A",
"W  c #C22526",
"Q  c #CD2428",
"!  c #C22D28",
"~  c #CD2B2A",
"^  c #C92828",
"/  c #D32429",
"(  c #DC232B",
")  c #D42B2B",
"_  c #DA2B2D",
"`  c #D02527",
"'  c #C3332B",
"]  c #CB332C",
"[  c #C33B2C",
"{  c #CD3B2D",
"}  c #C13926",
"|  c #D3342C",
" . c #DC362E",
".. c #D53C2E",
"X. c #DA3E2E",
"o. c #CE3A31",
"O. c #D43B31",
"+. c #DD3A32",
"@. c #DA3531",
"#. c #DE2B30",
"$. c #E4222C",
"%. c #E9222C",
"&. c #E32A2E",
"*. c #E13B32",
"=. c #874725",
"-. c #875A26",
";. c #9B592B",
":. c #9A5725",
">. c #984F22",
",. c #AC4C2C",
"<. c #A94727",
"1. c #B3442A",
"2. c #B7462C",
"3. c #A4532A",
"4. c #A85A2C",
"5. c #BD4D32",
"6. c #B55E32",
"7. c #B15F28",
"8. c #9C6C29",
"9. c #966628",
"0. c #90682D",
"q. c #AD622B",
"w. c #A06C28",
"e. c #A8722B",
"r. c #AB6332",
"t. c #A56934",
"y. c #B36434",
"u. c #BB6837",
"i. c #B37533",
"p. c #B67A33",
"a. c #BA7E36",
"s. c #B87D3A",
"d. c #A6773A",
"f. c #C2432D",
"g. c #D2462F",
"h. c #C74833",
"j. c #DC4433",
"k. c #D44935",
"l. c #D55737",
"z. c #C85D38",
"x. c #E14536",
"c. c #C7693B",
"v. c #D16A32",
"b. c #D37A3A",
"n. c #C8713F",
"m. c #817E7F",
"M. c #D97944",
"N. c #CE6A41",
"B. c #BD8139",
"V. c #C28536",
"C. c #CA8A37",
"Z. c #C4853B",
"A. c #C5893B",
"S. c #CB8B3A",
"D. c #C9863A",
"F. c #D48B3A",
"G. c #D58838",
"H. c #D4923B",
"J. c #DA943D",
"K. c #D9983B",
"L. c #CF923C",
"P. c #CE8F42",
"I. c #C98C48",
"U. c #D78D43",
"Y. c #CE934A",
"T. c #D39344",
"R. c #DD9A46",
"E. c #DA954E",
"W. c #DB9B49",
"Q. c #D8984A",
"!. c #D59C55",
"~. c #E68649",
"^. c #E39C45",
"/. c #E29C4B",
"(. c #E6994A",
"). c #EB9653",
"_. c #E39C54",
"`. c #D6A056",
"'. c #ECA44D",
"]. c #E5A457",
"[. c #E6A659",
"{. c #EAA359",
"}. c #EBAA58",
"|. c #F3A959",
" X c #F5B15E",
".X c #F0A44E",
"XX c #D4AA6F",
"oX c #827F81",
"OX c #858384",
"+X c #8D8C8C",
"@X c #8C8887",
"#X c #928F8C",
"$X c #939393",
"%X c #9C9C9C",
"&X c #9A9592",
"*X c #928F91",
"=X c #A69D98",
"-X c #A3A3A3",
";X c #ABABAB",
":X c #ACA8A5",
">X c #B3AEAC",
",X c #B3B3B3",
"<X c #BCBBBB",
"1X c #BAB8B4",
"2X c #B9B2AE",
"3X c #D5BD9D",
"4X c #C1BEBC",
"5X c #E1D0B7",
"6X c #C3C3C3",
"7X c #CBCBCA",
"8X c #C9C7C6",
"9X c #D0CECC",
"0X c #D4D4D4",
"qX c #DCDCDC",
"wX c #D9D6D5",
"eX c #D0D0D0",
"rX c #E0DFDE",
"tX c #E1D8CA",
"yX c #E3E1DF",
"uX c #DFDEE0",
"iX c #DFE0E0",
"pX c #E4E4E4",
"aX c #EBEBEB",
"sX c #E7E7E7",
"dX c #F4F4F4",
"fX c #F8F8F8",
"gX c #F0EFEE",
/* pixels */
"                                                      qXsXeX                                        ",
"                                              0XpXdXdXdXdXaX<X                                      ",
"                                              qXdXdXdXdXdXdX6X                                      ",
"                                      pXaXuX  0XaXdXaXdXdXaX1X>X0XqXqX                              ",
"                                <XqXsXdXdXdX;X;XiXsXsXgXaXrX&X;XqXaXdXdXsXeX                        ",
"                                4XqXdXfXfXdX,X;XiXaXaXpXsXwX*X<XiXgXdXdXdX0X                        ",
"                                <XwXgXdXdXdX6X;XpXaXpXqXsX7X+X7XaXaXsXpXrX4X                        ",
"                            sX%X-XwXaXdXfXdX0X;XiXpXiXqXpX<X$XeXaXsXqX7X,X$X,XiX                    ",
"                          aXdX<X+X7XaXaXgXsXeX;XwXiXqXiXqX,X%XqXsXpXqX,X$X+XsXdXpX                  ",
"                        iXdXfXsX%X%XiXaXpXqXqX;X6XqXpXpX7X-X<XpXaXsXiX1X+X6XdXdXdXpX                ",
"                      eXaXgXdXdX0X$X<X0XqXiX0X%X+X%X;X-X%XOX,XwXpXiX0X-X;XsXfXdXaXpX6X              ",
"    i.H.              7XpXaXgXgXqX;X;X<X7X<Xx d a p < < 5 a d oX;XeX<X%X7XaXgXsXpX0X<X              ",
"    i.H.K.K.        -X-X7XpXsXaXiX6X%X+Xl a < < , : > r t 0 q 6 q z +X,XuXiXpXpXpX<X%X              ",
"    i.C.D.G.K.K.  pX7X%X%X8XqXpXiX7Xz a < , - + o . $ 9.8.8.9.u 0 6 a +XwXqXuXaX8X$X=XpXaX          ",
"    p.C.D.g.l.F.W.5XgXpX-X*X6XqX7Xx < < & o . . . . @ -.9.>.:.w.8.u q p %X8X6X<X$X<XsXfXdXwX        ",
"    p.B.Z. .| g.G.Q.5XdXqX;X%X,Xz < , + . . . . . . @ -.9.A G D >.8.0.w a oX-X$X<XpXdXdXaXqX        ",
"    p.J.G...f.( ..b.`.tXaXpX1Xl 5 , o . . . . . . . $ 8.8.B S G m D 9.8.0 q z <XqXsXdXaXaXuX<X      ",
"    a.^.^. .R ( $...G.XXyXpX%Xp , o . . . . . . . . % S.T...Z C G G A :.0.w s <XiXsXsXsXpXwX<X      ",
"    a.'..X*.%.$.) h.h.F.3X7Xd < + . . . . . . . . . = W..Xx.E $.T A A A 8.0.6 OXqXiXqX0X<X:X>X      ",
"    a.R.R.*.%.$.( ( ( v.!.#Xp : o . . . . . . . . . = W.(.j.$.$.( $.T m B w.r s ,X7X;X%X-X<XpXuX    ",
"    a.P.U.*.%.R $.%.(  .F.f < + . . . . . . . . . . = A.T.j.%.$.( %.%.Q J >.0.6 l %X-X7XpXfXdXaX    ",
"    B.'.(. .$.( $.$./ ..b.0.: . . . . . . . . . . . = T./.x.%.( R $.$.Q h.[ e.t a ,XqXpXgXfXfXaX    ",
"    p.^.^. .$.( $.$.` ] g.e.& . . . . . . . . . . . - R.(.x.$.$.R #.! W ( _ U.d.a <XiXaXaXaXgXsX    ",
"    a.}.|.*.$.( _ U L ^ ) q.- . . . . . . . . . . . = R..Xx.E R _ h.W L I Y M.Y.s -XqXiXpXsXsXpX4X  ",
"    Z._._.*.$.E O.' W P J ;.3 . . . . . . . . . . . - !._.x.%.( ( 2.K J <.K 6.Q.h OX7X7X6X7X6X6X>X  ",
"    s.!.E.*.$.) [ ,.I 1.I =.2 . . . . . . . . . . . - Y.E.j.( ] f.6.r.<.4.4.y.Y.g v ,X,X;X6X-X      ",
"    B. X|.+./ 2.y.i.q.4.;.y 0 . . . . . . . . . . . % [. Xj.( Y ,.q.q.3.4.t.r.s.g x 0XpXdXdXwX      ",
"    B. X{.+.$./ K 3.<.3.=.y 1 . . . . . . . . . . . - [.|.j.$.$.( 1.I I 1.J 2.[.j oXwXaXdXdXwX      ",
"    p.'.(. .%.( | ! L P M =.r . . . . . . . . . . . = T.(.O.$.$.#.' ` J P L f.{.j OXuXaXaXaX8X      ",
"    p.H.E.+.$.( ) ! K I b D r . . . . . . . . . . . = A.Y.j.l.k.( ~ K L ^ ` +.R.g x wXqXpXqX1X      ",
"    B.P.U.k.M.O.$./ W Q m S 8 . . . . . . . . . . . = L.R.g.u.N.( $.( ( $.O.X.D.f l -X;X,X,X&X      ",
"    B..X(.h.i.h.$.$.( R S B 8 . . . . . . . . . . . = /.'.c.q.t.k.#.$.( $.[ O.D.f z 7XqXyXpX8X      ",
"    B..X/.u.7.6.+.E ( T n S 1 . . . . X . . . . . . = '.R.N.{ Y z.&.%.( %.$. .S.f oXeXaXfXfX0X      ",
"    B.'.T.l.| f.j.%.R T m S 1 . . . . . . . . . . . = T.A.n. .| c.&.%.( ( O.O.F.f *XuXaXdXdX7X      ",
"    p.P.B.c.| z.j.$.R C S B 1 . . . . . . . . . . . # p.p.4.u.u.O.%.%.( ( [ O.F.f $XuXpXaXaX7X      ",
"    p.B.p.,.u.5.#.%.( C n S 8 X . . . . . . . . . . # V.F.} L Q ( ) ! K ( ( *.W.f c 7X4X6X6X;X      ",
"    p.H.F.' W R ( U H V n D e . . . . . . . . . . . # S.K.j.E %./ h.Q J I K g.(.g v ,X1X4X6X:X      ",
"    p.K.J. .$.$.o.] L M b F e . . . . . . . . . . . # C.J.X.%.E / U Y Y 1.Y 2.E.j +XqXaXdXdX0X      ",
"    p.K.G. .%.$.! 2.P N 4 =.e . . . . . . . . . . . # B.C.g.$.] 5.y.t.,.4.4.r.I.f OXqXaXdXdXwX      ",
"    p.C.D. .( f.y.i.:.=.=.y 3 X . . . . . . . . . . % B.F.+.( ' 1.4.4.4.4.r.r.i.h oXqXaXdXgXwX      ",
"    p.V.U.+.$.! Y ;.>.N 4 4 2 . . . . . . . . . . . % W.'.j.$.$.Q Y I Y 1.J 1.F.f m.0XuXuX8X:X      ",
"    a.'.(.*.%.E ~ Y G M b N e . . . . . . . . . . . % K.J.X.$.$./ U Q J D L f./.f l ;X;X,X-X@X      ",
"    a.^.J.*.$.( ^ K G M n D r . . . . . . . . . . . # C.F.X.$.( ( ` J J / / *.{.0.oX8X0XaXsX<X      ",
"    p.J.F. .$.( ( ! G C A P r . . . . . . . . . . . # p.D.X.o.h.( _ h.( $.k.j.{.l oXqXsXdXdX0X      ",
"    p.C.D. .h.O.E U L C A D t . . . . . . . . . . . # p.D.g.) ) _ ) | ) #.) j.{.f m.qXsXsXgXwX      ",
"    p.V.D.+./ ) @.o.U 2.,.;.e . . . . . . . . . . . % A.W.(.).).).).).).).(.E.R.f oXqXrXyXpX9X      ",
"    i.C.P.M.~.).{.).E.I.d.9.e O X X X X X X O X O X ; I.].].].].[.[.}.[.W.L.S.D.i m.9X8X6X2X=X      ",
"    p.R.[. X X}.[.                                                                                  ",
"                                                                                                    ",
"                                                                                                    "
};
