/* XPM */
static char *en_removebg_preview__1_1706567230[] = {
/* columns rows colors chars-per-pixel */
"50 50 246 2 ",
"   c #050100",
".  c #0C0200",
"X  c #0D0901",
"o  c #070900",
"O  c #130300",
"+  c #1B0100",
"@  c #140B02",
"#  c #1A0C02",
"$  c #170C0B",
"%  c #1C1203",
"&  c #1C130B",
"*  c #1A1706",
"=  c #1D1411",
"-  c #230100",
";  c #2B0100",
":  c #220B02",
">  c #2B0C01",
",  c #220B0A",
"<  c #330100",
"1  c #3C0101",
"2  c #3C0A01",
"3  c #340F08",
"4  c #231403",
"5  c #2B1202",
"6  c #2C1B02",
"7  c #23150C",
"8  c #221A0D",
"9  c #291A08",
"0  c #331D02",
"q  c #381607",
"w  c #231513",
"e  c #241A14",
"r  c #2B1C13",
"t  c #2B1A14",
"y  c #361916",
"u  c #2C2201",
"i  c #2D220D",
"p  c #232000",
"a  c #352B01",
"s  c #3B2B01",
"d  c #32250B",
"f  c #3A2508",
"g  c #3C3200",
"h  c #2B2113",
"j  c #2D231B",
"k  c #242014",
"l  c #342414",
"z  c #3A2415",
"x  c #332914",
"c  c #3D2C14",
"v  c #34241C",
"b  c #3A251B",
"n  c #352A1C",
"m  c #3B2B1C",
"M  c #3C311D",
"N  c #3D3418",
"B  c #2F2521",
"V  c #352B22",
"C  c #3B2D22",
"Z  c #382B28",
"A  c #3D3124",
"S  c #3C322B",
"D  c #393525",
"F  c #3E3632",
"G  c #430200",
"H  c #4C0200",
"J  c #4B0A01",
"K  c #450C08",
"L  c #530300",
"P  c #5C0300",
"I  c #540C02",
"U  c #560A09",
"Y  c #4D130A",
"T  c #451706",
"R  c #5D130B",
"E  c #561606",
"W  c #451C13",
"Q  c #491A15",
"!  c #551712",
"~  c #550F11",
"^  c #620300",
"/  c #6B0202",
"(  c #640C02",
")  c #6B0C03",
"_  c #6E0E0B",
"`  c #740300",
"'  c #7B0301",
"]  c #740C02",
"[  c #7C0B01",
"{  c #7B0D0D",
"}  c #631303",
"|  c #64140B",
" . c #6C130A",
".. c #6C170B",
"X. c #731305",
"o. c #73130C",
"O. c #79180B",
"+. c #681812",
"@. c #731B13",
"#. c #791612",
"$. c #6C0D14",
"%. c #472407",
"&. c #5C240C",
"*. c #432C1C",
"=. c #4C2C1B",
"-. c #462617",
";. c #552518",
":. c #44321D",
">. c #4B341D",
",. c #4A391A",
"<. c #553B16",
"1. c #7B2213",
"2. c #68311B",
"3. c #432D22",
"4. c #4C2E25",
"5. c #472E2A",
"6. c #522F25",
"7. c #443322",
"8. c #4A3524",
"9. c #433926",
"0. c #4D3A25",
"q. c #44342A",
"w. c #4B362B",
"e. c #443A2B",
"r. c #4D3B2B",
"t. c #513523",
"y. c #523C25",
"u. c #593B23",
"i. c #53352A",
"p. c #523D2B",
"a. c #5A3D2C",
"s. c #5B3325",
"d. c #4D3731",
"f. c #4C3C32",
"g. c #443A32",
"h. c #543D31",
"j. c #5A3C32",
"k. c #543A37",
"l. c #6E3122",
"z. c #4A431A",
"x. c #584912",
"c. c #654E1F",
"v. c #4D412C",
"b. c #494027",
"n. c #524124",
"m. c #54412C",
"M. c #59422C",
"N. c #5C4828",
"B. c #4D4333",
"V. c #4B4239",
"C. c #544233",
"Z. c #5B4433",
"A. c #5C4A34",
"S. c #55433A",
"D. c #5B483A",
"F. c #5E5035",
"G. c #65442C",
"H. c #68582B",
"J. c #71592A",
"K. c #624D35",
"L. c #614C3C",
"P. c #634536",
"I. c #6C5C32",
"U. c #66563D",
"Y. c #725C32",
"T. c #74452A",
"R. c #77632B",
"E. c #786536",
"W. c #5D5446",
"Q. c #57524A",
"!. c #674C47",
"~. c #675845",
"^. c #665954",
"/. c #745E4F",
"(. c #7A704F",
"). c #840601",
"_. c #8B0400",
"`. c #830B02",
"'. c #8C0A02",
"]. c #800D08",
"[. c #9C0400",
"{. c #930C01",
"}. c #9A0A01",
"|. c #960B07",
" X c #84140B",
".X c #8A130A",
"XX c #891608",
"oX c #921309",
"OX c #9A1707",
"+X c #871B15",
"@X c #9A1E15",
"#X c #951914",
"$X c #A70B02",
"%X c #A41708",
"&X c #A41C15",
"*X c #B21503",
"=X c #8C210C",
"-X c #9E260E",
";X c #892718",
":X c #982616",
">X c #9F351D",
",X c #A8200C",
"<X c #BA270B",
"1X c #A72417",
"2X c #BD2915",
"3X c #BD2A18",
"4X c #B63619",
"5X c #953323",
"6X c #98372C",
"7X c #993128",
"8X c #A92E24",
"9X c #BB2D22",
"0X c #AA3A2A",
"qX c #B73525",
"wX c #A83C30",
"eX c #C42A18",
"rX c #CA381A",
"tX c #D63317",
"yX c #D02D0A",
"uX c #E43712",
"iX c #C63826",
"pX c #D1382A",
"aX c #9D4733",
"sX c #B94C38",
"dX c #AA4033",
"fX c #C44225",
"gX c #955B43",
"hX c #8C7843",
"jX c #8F7757",
"kX c #B67257",
"lX c #89796E",
"zX c #7E8274",
"xX c #9E805C",
"cX c #898077",
"vX c #968782",
"bX c #A6978C",
"nX c #B2A59B",
"mX c #BCB6A8",
"MX c #BDB8B2",
"NX c #C8BBB6",
"BX c #C2B4A9",
"VX c #CCC4BB",
"CX c #DDDACB",
"ZX c #D5CBC6",
"AX c #E6D7D4",
"SX c #E2D5CF",
/* pixels */
"e S f.k.8.9.V v 3.8.r.e.B.e.r.f.w = C r.p.r.q.D e D r.*.m.Z.i.h.d.e.9.7.p.j.w.d.j.y.y.,.9.V.!.k.h.w.",
"$ v d.r.7.x w w -.=.5 : . @ e.A @ $ v w.r.7.h * 8 A :.z 0.:.w.r.V O @ : *.8.h.h.j.j.,.:.n D *.i.w.m ",
"O l r.0.M * $ Z 3.< G ! + S v.N X . v r.r.7.4 % n v.r.7.C.r.r.B.C b ; q ; ; n 7.4.y.n.N 0.0.M.,.t.3.",
"5 m C.p.x * @ O ; R wXP ; f.v.b.h # q.S.r.7.O % h 7.e.7.C.D.0.m.i.d.; 2 +.K < + - 8.M.n.9.F.N.n.C.0.",
"3.p.y.p.D + - 1 ].&X@X$.; i.i.a.M x C.C.w.*.# h 8 v S t 8.Z.8.m.t.6.4.; ) .X;X( 1 - =.8.=.0.v.B.m.8.",
"a.P.t.p.l > | 7X&X_.|.;X; w.P.3.m C.C.w.i.C r q.j Z C 7 q.w.m.m.*.*.w.; ;X'.).#X#.I 1 -.=.a.r.r.r.*.",
"j.s.M.t.; +.8XOX'.`.'.5X; V.C A h 9.f.h.h.3.v h.w.f.q.y w.f.e.9.n x e.- 6X].`.`.OXwX+.; <.m.p.e.r.:.",
"a.a.Z.=.H +X|.).] ] ] ..+ D # @ X . 7.Z.D.w.b f.h.q.C w v 3.O . X @ D + | #./ [ _.'.+XH -.y.p.j.p.7.",
"a.M.p.< O.oX' [  .H U Y O @ i :.<.0 - -.w.b 9 9.v e $ # > - q c.,.d . + Y I L ( ' `..X) - >.a.i.r.8.",
"n.8.=.J XX'.' ] R G < - ,.6 O 6 xXT.E 1 ; - ; -.q - - - 1 ! 2.jX6 . d :.- < 1 R _ ' ' O.G -.i.p.p.0.",
"~.P.; |  X`.' ] R G + O R.(.x O f T.;X+XP +XO.H H ..1.L +X@.l.%.O c E.I.O - 1 | _ { [ O.E ; j.k.i.7.",
"a.;.G o.[ [ ` o.R ; O % 0 jX~.. + < #.'.'.OX%XOX{.1XOX'.).+X2 # . D.Y.0 # O < R  .] X.) o.1 Q d.r.A ",
"4.; { '.] X.] } ! + ,.,.O 5 D.= h > R ] _.[.eX<XeXeX_.`.#.H q 0.4 l 4 O N 8.- ~ ) ] ] / XX) - w.r.m ",
";.H OX{.[ )  .| Q > G.> < ; + d.d.j.< @.0X,X[.eX2X[.1X:X@.1 u.m.3.+ > ; 5 G.+ Q $.X.X.[ '.[ 1 z 0.7.",
"; ..1X$X`.( | ~ Q - < +.X. .G Q k.i.1 ( 5X=X{._.'.oX=X5X( H ;.i.W G ) #.| ; - Q ! R ( [ {.1X+.- 8.7.",
"1 #.iX[.' @.~ ; + - ! | ]  X_ G y + ! L 1 aXO.` ` O.aX1 I Y - b 2 +. X] $.;.+ + - 2 L [ }.iX^ ; 6.8.",
"G :XiX}.] I ; > 5 4 3 Y  .]  .@.1 ; - ! E kXL I P P kXE W + O O 2 E R I Y q , 7 w + G ] }.rX+X1 6.f.",
"/ 1XeX{.} < 3 h.V.q.: - E | P L L K - ; 2 1 @.;X5X..1 T ; + < G H 1 G < - , k.V.f.t ; P '.eX8XL W q.",
"yXrX%X[ J + h.w.0.8.C y - G J P H H L G - J ) wXwX) Y - ; G  .+X8X:XG + + r.w.q.S.g.O 1 ^ ,XrX-X; v ",
"uXyXOX_ - t f.r.0.r t v O < ;X5X=X] X. .U < G ( ( G ; G J L ).1XpXiX1.- O q.7.p.n S w + P -XrX4X< C ",
"yXyXX.H 3 w.d.f.r % # O , ~ sXfX-X[ `.[ ) L < ; ; < G H $.X.`.OXeXeX+X1 + 5.d.9 . D B.> G ] <XfX< q.",
"uX<X] - k.q.Q.e 4 i n /.vX2 o.8X=X` '.}.#X_ K 1 1 J P #.] ' / '.}.OXOX] 1 Q 4.. o b.9.z - ) <X4X< 3.",
"uX}.} ; *.7.j * x u u K.BXlXW J I ) %X$X$X|.|./ ] ] ).|.{.XX^ I o.P @X8X+.; q + @ e.e.e + H &XqX; V ",
"tX{.J 6 7.i X u 6 I.Y.5 n.nXD.9 ; L &XeX$X$X&X&X#XoX}.[.$XOX .< < K ( ] ) J - m O F n * + 1 ' wX< V ",
"9X.X; d.5.. 4 d a E.hXs 0 >.A.w.O + o.qX9X%X[ / ` #X$X$XeX&X~ O 9 4.; H } } K G.+ B r @ w - #.;X; C ",
"#X^ T d.S . d z.a x.R.s Y.0 C.B.. y 1 / &X' ^ ^ / _.$XiXiX] ; y e.9.O 1 } } &.=.+ S S r v W L  .- C ",
"1.G s.f.D . p z.s J.x.a I.p (.V.o S.1 / ' ' ' @X#X).' #X^ < W k.9.:.O - ) +X&.> b S.Z.8.5.i.< ! + A ",
"l.< s.C.b.o p z.s R.H.g I.a MXzXX y ~ { { ].'.{.}.'.` ) L < i.h.e.d O -. X+XG q !.S.m.0.*.4.; ;.+ C ",
"&.Y s.w.Z o * z.0 Y.hX%.H.a CXZX@ - #.].L P OX2XeX{.X.@.o.P W 5.C 5 5 gX:XoX; 8.k.q.q.:.-.<.-.2 O n ",
"2 ;.4.n & . x v.s hXR.g x.a CXSX, 1 .X.XG 1 ( :X&X@XH H XX] ; w.V O K.&.5X1.; l w.n M D :.N.a.> O V ",
"z i.r.j #   u ,.T J.x.a I.f CXCX< ..9XOXJ + - ; < K ; L _..XG q q.O :.f T 2.+ n w.l m :.:.0.i.y O C ",
"K.n.B.n e O 6 x.f <.H.g N.d NXZXG 6XiX:X< y V B y O - R '.@XR + b . . C.% c O 7.p.M A :.:.y.C.d.O 3.",
"u.y.r.e.V . j d u E.hXa 5 L.SXAXG aXsXX.; r.p.Z.j.W - +.}.,X .; q.. . j @ # r q.V.0.r.q.8.0.M.p.*.3.",
"N.<.p.r.f.V # x 6 H.H.4 A.lXVX!.~  .R 1 W 8.t.a.h.j.- 1 -X4XO.G : $ . j O j 7.q.A C r.r.r.p.M.t.r.8.",
"n.y.r.p.p.h.l d A.4 u U.jXbX5.- ~ P 1 + r.q.p.y.0.r.l ; ;XsXwXU + $ . . . f.f.n r r n m 3.8.0.p.r.7.",
"B.r.0.p.t.8.M.d d W.~.cXvX3.O Q @. .+ O q.f.8.m.b.0.e.y H ( X.R O X . & O S 7 % 8 v e.w.7.8.0.p.r.3.",
"V.r.8.8.t.>.m.y.n h 8 7 V l + ! @.@.2 + e.M 7.r.p.7.n V + - K ; t . $ D n 8 & O & B q.9.7.D.C.p.m.r.",
"f.p.8.8.>.>.t.C.r.l j V b j.+ s.I l.T # # r.e.C.p.r.S B Z . : !.mX& & F S $ v @ . % V D V 8.v.n.p.r.",
"p.m.8.n.>.0.m.0.C.d.m S.r.+ 5 /.> G.~.d . C 7.r.p.8.v & $ j V nXAXvX^.nX^.lXj & j # # e r q.r.r.r.7.",
"a.t.y.p.=.0.r.i.r.r.w.Z.0.O O 6 9 4 f . O C 7.j.p.4.t &   @ t mXcXF bXZXnXg.W.B X # j A l D p.r.n.:.",
"y.u.y.y.:.A B.m.p.a.t.a.0.:.m z 3.*.f c 7.n m j.0.m o   o   Q.NXw . cXVXV.  k V =   V.D h :.r.p.m.7.",
"M.<.y.b.M l :.7.>.8.-.u.m.m.C.n.t.M.m.Z.b.n z *.c % *     = ZXcX. S 8 Q.@ F . = j X j = % r 3.n.m.8.",
"y.t.t.m.8.:.0.0.0.8.-.8.0.p.0.,.<.u.0.r.v.D 0.8.7.r.S O   $ ^.# . @ O D . f.Z @ Z   # & j 7.7.0.p.7.",
"A.Z.n.0.>.n.K.A.Z.p.:.r.m.n.0.8.>.N.K.v.b.N n.F.C.~.k.B F . q.v . j $ g.& g.$ Z Q.. k r :.r.n.y.m.>.",
"K.D.A.p.,.y.A.Z.n.>.c 0.r.r.0.,.N C.!.h.C.8.8.L.C.r.e.x v.@ n w.@ j # g.# S X F B @ V t l 8.M.M.C.8.",
"0.:.:.8.-.-.0.0.p.e.:.r.r.0.8.7.x q.r.m 0.b *.j.A A r.c v.9.+ e.. e . D . F $ B @ S f.q.7.r.M.y.p.7.",
"C.8.:.8.*.m 0.m.r.8.:.b.r.8.q.0.5.p.0.N x + z i.e j e.7.m.0.# j @ D @ = @ e   =   S V q.7.y.M.M.n.7.",
"C.m.p.p.0.0.m.y.b.0.:.m.p.w.8.w.h.Z.y.n.M O *.j.h n q.q.n.>.@ $ X D X j . e @ & @ t n w.8.y.u.M.p.7.",
"M.m.p.m.y.y.M.y.0.>.:.r.0.n.p.8.:.M.a.0.7.l 7.C.7.0.7.*.m.n.7.O . V O = @ V . @ 9.7.q.7.:.u.p.y.r.8.",
"m.y.y.n.0.0.m.0.y.0.>.a.p.p.y.0.0.m.u.p.r.C 0.M.0.a.r.0.m.y.m.C . g.S @ D g.. C m.p.i.0.>.p.y.p.p.:."
};
