/* XPM */
static char *wizard_idle__1___2__removebg_preview1705596794[] = {
/* columns rows colors chars-per-pixel */
"50 50 225 2 ",
"   c #010001",
".  c #0B0102",
"X  c #05040A",
"o  c #0B060A",
"O  c #0C0B0C",
"+  c #04080B",
"@  c #140304",
"#  c #110B0D",
"$  c #1A0A0D",
"%  c #170806",
"&  c #0F170A",
"*  c #130E14",
"=  c #1B0D16",
"-  c #150E1B",
";  c #1C0D1C",
":  c #1E0718",
">  c #131215",
",  c #1B1315",
"<  c #15121C",
"1  c #1B131C",
"2  c #1C191D",
"3  c #1A1C17",
"4  c #230C0D",
"5  c #2D0B0E",
"6  c #2F070F",
"7  c #25110F",
"8  c #240716",
"9  c #2D0613",
"0  c #240B14",
"q  c #2C0C15",
"w  c #240C1B",
"e  c #2C0C1A",
"r  c #28061F",
"t  c #310613",
"y  c #320C14",
"u  c #3C0B15",
"i  c #330C1B",
"p  c #3D0E1C",
"a  c #3D031B",
"s  c #231314",
"d  c #2B1215",
"f  c #23131B",
"g  c #2B131C",
"h  c #241A1D",
"j  c #2B1B1D",
"k  c #311215",
"l  c #3D1216",
"z  c #32131C",
"x  c #3C131C",
"c  c #3A1C1D",
"v  c #1A2319",
"b  c #252E0F",
"n  c #21330B",
"m  c #252518",
"M  c #3A2B19",
"N  c #312818",
"B  c #353716",
"V  c #233A1D",
"C  c #160E22",
"Z  c #1C0F21",
"A  c #161221",
"S  c #1C1222",
"D  c #1D1B23",
"F  c #230C22",
"G  c #2A0E22",
"H  c #340D21",
"J  c #3D0F21",
"K  c #231424",
"L  c #2B1423",
"P  c #231C24",
"I  c #2D1D22",
"U  c #251C2A",
"Y  c #2E1F29",
"T  c #321524",
"R  c #3C1322",
"E  c #361A26",
"W  c #3B1B24",
"Q  c #3C1E29",
"!  c #39192C",
"~  c #222126",
"^  c #24232B",
"/  c #2A232A",
"(  c #2E292D",
")  c #282429",
"_  c #3A2224",
"`  c #342329",
"'  c #382727",
"]  c #2B3E22",
"[  c #393825",
"{  c #2A2B36",
"}  c #2A2A35",
"|  c #342631",
" . c #392935",
".. c #430B14",
"X. c #4B0C16",
"o. c #430D1B",
"O. c #4A0D1A",
"+. c #42061A",
"@. c #540D1D",
"#. c #570E1B",
"$. c #461A17",
"%. c #43141C",
"&. c #4B131D",
"*. c #441A1C",
"=. c #4A191E",
"-. c #451117",
";. c #53141D",
":. c #51191F",
">. c #5B1A1E",
",. c #5C141F",
"<. c #63121F",
"1. c #641B1E",
"2. c #6B151F",
"3. c #4F271D",
"4. c #420D24",
"5. c #590E23",
"6. c #441523",
"7. c #4B1523",
"8. c #441A23",
"9. c #4B1A25",
"0. c #431529",
"q. c #4C152B",
"w. c #421B2B",
"e. c #4C1A2A",
"r. c #531523",
"t. c #5B1524",
"y. c #531B24",
"u. c #5C1C26",
"i. c #56172B",
"p. c #5D162A",
"a. c #531B2A",
"s. c #5C1D2B",
"d. c #541C30",
"f. c #5A1E32",
"g. c #631625",
"h. c #6A1625",
"j. c #641B25",
"k. c #6B1A24",
"l. c #641729",
"z. c #6B162B",
"x. c #631C2B",
"c. c #6A1B2A",
"v. c #701B2D",
"b. c #70142D",
"n. c #631D33",
"m. c #6C1D30",
"M. c #721631",
"N. c #4F2323",
"B. c #4C2B23",
"V. c #42232C",
"C. c #4A222A",
"Z. c #4E2A2C",
"A. c #562127",
"S. c #5B2026",
"D. c #55232D",
"F. c #5B222C",
"G. c #53292D",
"H. c #453227",
"J. c #432332",
"K. c #462A31",
"L. c #4C2B32",
"P. c #462D3B",
"I. c #532332",
"U. c #5C2332",
"Y. c #522931",
"T. c #5B2935",
"R. c #473738",
"E. c #63212D",
"W. c #6A2029",
"Q. c #672736",
"!. c #623538",
"~. c #29441A",
"^. c #2B5518",
"/. c #3B5816",
"(. c #2D6D16",
"). c #3B771D",
"_. c #385030",
"`. c #38462F",
"'. c #3A6425",
"]. c #4A442E",
"[. c #444837",
"{. c #445538",
"}. c #5C5D3D",
"|. c #406724",
" X c #487829",
".X c #486C38",
"XX c #4B7D38",
"oX c #46394B",
"OX c #533544",
"+X c #773E45",
"@X c #56424D",
"#X c #575D41",
"$X c #5B5351",
"%X c #4C4B4D",
"&X c #654552",
"*X c #705D5F",
"=X c #6C4752",
"-X c #546B4C",
";X c #55754A",
":X c #586053",
">X c #5C7B52",
",X c #69586A",
"<X c #7C5665",
"1X c #7F5668",
"2X c #6B6071",
"3X c #746174",
"4X c #865364",
"5X c #8F6C72",
"6X c #867E7C",
"7X c #3A8520",
"8X c #468929",
"9X c #478434",
"0X c #63A73D",
"qX c #848C75",
"wX c #988789",
"eX c #988799",
"rX c #8D978C",
"tX c #A8888B",
"yX c #C7B7BD",
"uX c #D1BCC3",
"iX c #DCDADD",
"pX c #CDC5C7",
"aX c #E6D4DC",
"sX c #EEE9EF",
"dX c #F9ECF5",
/* pixels */
"                                          X           .   . .         +         X                   ",
"                                              . @ $ 7 7 k k s $ .                                   ",
"                                .           @ 6 *.:.u.u.x.f.D.V.q @ .                               ",
"                                    .     @ u :.x.W.k.h.,.r.9.V._ d @   .                           ",
"                                        @ 5 :.k.2.k.2.<.X.u e g V.Q g @                             ",
"                                      . 4 =.j.k.k.2.k.c.l.7.z = z _ C.d .                           ",
"                                X     @ q y.j.k.k.2.g.g.z.n.e.i q 8.L.E %                           ",
"                                      @ 5 =.u.x.W.j.;.X.5.n.d.R c ' L.Q %                           ",
"                                      , z y a.a.E.a.x t o.e.x s I ' K._ O         .                 ",
"                                  .   = W i e J.0.R w 8 R e.k 0 j '  ._ O       .                   ",
"                                    @ I E e w w L : Z = i F.a.u d ~  .d .         .                 ",
"                                    @ E Q w K Z K C C S ! f.n.O.0 1 ) *                             ",
"                                .   s _ T P.,XoX .2XoX; H q.x.s.T = P *                             ",
"                                    w W w @XwX3X@XeX2XU 8 p p.d.W w 2 > o                           ",
"                                  . z w.f , U S U U K ; : e 0.i.w.w ; 1 o     +                     ",
"                                  . W R = - - C C C S ; ; e R d.Q r - P #                           ",
"    .                             s C.8.H ; < A A ; S : w T 7.f.w.; K P *           X               ",
"                                # j D.F.0.e ; A ; 1 * w i 0.i.d.T r : / P                           ",
"                .           . 0 4 p 9.s.i.4.r ; Z Z w i 7.p.n.q.e w e _ ' $                         ",
"                  .       . 4 *.8.u O.p.m.r.i G F G i 4.u.x.f.4.9 i 9.A.Y.c .               . .     ",
"        X         .       % %.F.U.r...;.W.n.6.r r H q.u.s.y.%.i y =.s.l.U.Z.7 .           .   .     ",
"                    . . . 5 :.E.x.r.....;.F.w.e i 4.s.E.F.&.t 9 %.D.c.h.E.F.N %             .       ",
"            X     .   . % $.g.h.z.p.:.....9.8.x 7.7.r.F.y.l u x 9.u.h.v.k.S.G.s .         X         ",
"        X             @ 5 N.W.2.g.x.j.:.O.x x x u.@.X.9.7.u &.A.9.X.l.v.j.E.G.W . X                 ",
".                   . @ $.E.h.<.#.t.j.W.s.y.u o.u.#.X.&.&.;.g.x.7.%.r.p.x.E.s.L.m                   ",
".         X X       . q A.c.k.j.;.#.g.c.j.u.&.&.j.g.:.:.u.x.c.l.&.9 u 6.r.&.i.T.` &                 ",
"                    $ W S.g.j.E.7.o.l.c.c.k.t.@.z.z.#.>.>.W.x.i.R 9 y 8.6.O.5.r.K.3 +               ",
"        X         . d Z.E.c.l.y.x u u.t.1.k.l.x.M.z.c.1.1.g.i.7.i 9 z x 8.y.p.r.L.f +       .       ",
"                  @ z I.n.l.r.x q x 7.X.>.k.l.c.M.z.k.W.k.>.-.t i p p x p y.x.n.L.h .       . .     ",
"                . @ x F.r...o.x i W *.u :.W.>.g.z.h.k.j.>.=.6.p y.a.y.7.u ..g.E.L.j .               ",
"                . 4 9.f.r.+.o.6.R e.8.u O.x.;.X.c.c.W.>.&.7.p.p.t.c.c.j.:.X.g.E.L.E .               ",
"        .         s e.s.a.9.R i H e.w.*.o.u.;.X.j.1.y.-.p 8.a.r.t.c.c.k.,.#.s.y.K./ .   X           ",
"        .         h i e.U.d.R w w L g 5 u F.q.o.l.j.!.&X&X&XOX! o.j.c.h.c.l.y.R Y ^ X               ",
"                  > 0 R f.e.w w ! P.d y 7.&.&.q.S.+XtXyXpXyXrXR.l u.v.h.z.p.R f / ^ X X       X     ",
"                  O j x e.J 8 J.1X<XR *.8.u &.D.G.5XaXdXsXpXqX].l u.z.z.u.o.e > / ^ o               ",
"                  O I E Q z J.<X4XQ.7.a.8.%.=.*.3.*XyXaXiXrX{.#X$.x.z.x.q.i = < P P o               ",
"X             . .   h j L q OX<XU...r.U.7.0.6.t m $XtXwX6X#X_.#X$.x.n.i.J w - A D h O               ",
"                  . > 2 I w  .I.7.r.u.u.0.J 7.t d ` H.' m ) [.[.-.s.d.R G Z A < D , o +             ",
"  X           . .   o 3 ( P R J 7.u.N.8.R i q.H *.B.M m m _.%Xe *.a.R e Z Z A < ~ >         X       ",
"                .     X ~ h e 6.s.u.8.d q i q.4.u N.M b `.`.1 T d.e.e : C C A S ~ >           X     ",
"                        > ( L R a.O.p W q q J 0.X.3.b n ~.V 3 L C.T w ; C C S ; D &         +       ",
"X     .         .       + v | g 7.o.y x R i T w.-.3.B ^..X-X[ f L w 1 C C Z Z S P O         X       ",
"                          O ( T 6.r.&.p 8.e G T c H./.).(. X-Xv = = - A C C Z ; K *                 ",
"    .                       1 ` p F.S.*.w.i G K z B  X0X7X9X>X& > 1 A A A Z C ; f O                 ",
"                            X / R e.y.y.7.0.L w z B  X0X8X8X-Xv * - D D < ; 1 ; S O X               ",
"                          X   1 E H p A.a.a.T w g [ |.9X X9X-Xv * U } } D < 1 D 1 O                 ",
"                .           X o f w q 6.S.S.*.t *._ ~.^.'.XX%X< Z U { { D > 1 1 < +     + +   +     ",
". .               .     X     X S K L z S.S.8.t l c b V {.[.v 1 S S ^ } D > < 2 > +     .           ",
"                                > D | L 7.u.8.t p c s h N s K < U ^ ^ ^ U 1 < 1 1 X                 ",
"                                o > U g x a.0.e p W e T Q e K D ^ ^ ^ ^ U A < D 3 X                 "
};
