/* XPM */
static char *_6761529_2107_i518_026_P_m005_c25_cemetery_gravestone_set_1__1__removebg_preview1707941299[] = {
/* columns rows colors chars-per-pixel */
"50 50 195 2 ",
"   c None",
".  c #161B41",
"X  c #1D254C",
"o  c #1D2353",
"O  c #162350",
"+  c #292F47",
"@  c #21254B",
"#  c #242D4B",
"$  c #322D4D",
"%  c #202451",
"&  c #232956",
"*  c #282E5E",
"=  c #243554",
"-  c #2D3753",
";  c #28355C",
":  c #293859",
">  c #2A3B57",
",  c #343A5A",
"<  c #383E5E",
"1  c #1F2861",
"2  c #273162",
"3  c #2A3364",
"4  c #2A316B",
"5  c #2D3E69",
"6  c #313663",
"7  c #313A64",
"8  c #313D6C",
"9  c #333669",
"0  c #413D60",
"q  c #3B464C",
"w  c #3E4C4F",
"e  c #3D4A51",
"r  c #34425E",
"t  c #2F406B",
"y  c #34426C",
"u  c #3B466C",
"i  c #3D4967",
"p  c #354473",
"a  c #3B4575",
"s  c #374875",
"d  c #3B4A76",
"f  c #3D4C79",
"g  c #3A4479",
"h  c #42445F",
"j  c #4E515A",
"k  c #444F64",
"l  c #4F4E6E",
"z  c #414665",
"x  c #445068",
"c  c #4D5A6A",
"v  c #53506F",
"b  c #525661",
"n  c #444B72",
"m  c #494E73",
"M  c #404C7C",
"N  c #534F74",
"B  c #4A5375",
"V  c #4D557B",
"C  c #4B5976",
"Z  c #545474",
"A  c #585777",
"S  c #53567C",
"D  c #59567B",
"F  c #545A7F",
"G  c #5C5B7C",
"H  c #535A77",
"J  c #615B77",
"K  c #695E7C",
"L  c #596969",
"P  c #536265",
"I  c #586970",
"U  c #57667D",
"Y  c #5D627D",
"T  c #58697B",
"R  c #5F7374",
"E  c #636B6D",
"W  c #697069",
"Q  c #676A71",
"!  c #676C7D",
"~  c #6B6C7F",
"^  c #66657D",
"/  c #6F7076",
"(  c #6A797B",
")  c #657574",
"_  c #70727F",
"`  c #778763",
"'  c #7D8E6C",
"]  c #7D9365",
"[  c #6C8170",
"{  c #758078",
"}  c #768A7E",
"|  c #83876B",
" . c #869D6F",
".. c #849B73",
"X. c #91977C",
"o. c #94AB7F",
"O. c #4C5784",
"+. c #555B81",
"@. c #5A5E84",
"#. c #555E88",
"$. c #535480",
"%. c #615F87",
"&. c #695E80",
"*. c #5C6285",
"=. c #5E648A",
"-. c #5D6B8A",
";. c #566588",
":. c #636385",
">. c #6B6584",
",. c #666C86",
"<. c #6A6B85",
"1. c #62668B",
"2. c #696588",
"3. c #63698E",
"4. c #6B6C8D",
"5. c #746B83",
"6. c #706C8B",
"7. c #73678B",
"8. c #6B738D",
"9. c #6D7286",
"0. c #73738B",
"q. c #7A748E",
"w. c #757A8D",
"e. c #7E7A8C",
"r. c #656C92",
"t. c #6A6D92",
"y. c #686A9A",
"u. c #706F97",
"i. c #6D7295",
"p. c #6F7895",
"a. c #6D7399",
"s. c #6E799E",
"d. c #737394",
"f. c #7C7493",
"g. c #757994",
"h. c #7B7C93",
"j. c #74769B",
"k. c #7C759A",
"l. c #757A9C",
"z. c #7C7D9B",
"x. c #6F78A1",
"c. c #747CA3",
"v. c #7D7EA2",
"b. c #81778F",
"n. c #837B95",
"m. c #81769C",
"M. c #827C9C",
"N. c #887F9E",
"B. c #847DA2",
"V. c #8A7FA1",
"C. c #7D8293",
"Z. c #76819F",
"A. c #7B889B",
"S. c #7B809D",
"D. c #7C83A3",
"F. c #7C84AA",
"G. c #8F9284",
"H. c #828394",
"J. c #878B97",
"K. c #83839C",
"L. c #8A859D",
"P. c #8C8A9B",
"I. c #8C8A94",
"U. c #8E909D",
"Y. c #979990",
"T. c #93959D",
"R. c #959A9C",
"E. c #8DA581",
"W. c #8384A3",
"Q. c #8C84A2",
"!. c #8688A6",
"~. c #8988A5",
"^. c #8386AA",
"/. c #8B84AB",
"(. c #8589AD",
"). c #8D8BAB",
"_. c #928DA5",
"`. c #928DAB",
"'. c #988AAE",
"]. c #9284A7",
"[. c #8F92A1",
"{. c #8D90AF",
"}. c #8F99AF",
"|. c #9391A7",
" X c #9392AB",
".X c #9A95AB",
"XX c #999AAA",
"oX c #8C8EB4",
"OX c #838BB0",
"+X c #938FB0",
"@X c #9492B4",
"#X c #9999B5",
"$X c #A29DB7",
"%X c #9BA3B3",
"&X c #A9B2B9",
/* pixels */
"                                                                                                    ",
"                                                                                                    ",
"                                                                                                    ",
"                                                                                                    ",
"                                                                                                    ",
"                                                                                                    ",
"                                                      h , ,                                         ",
"                                          b.5.q.]..X#Xh.7 i y                                       ",
"                                        K b.].V.L.P. X#Xm y M ;                                     ",
"                                        K '.N.V.L.L.|. XB , 8 6                                     ",
"                                        7.V.].V.n.L._. X3.n g * i.                                  ",
"                                      f.7.V.N.m.Q.L.L.`.@X/.y.& @ X H                               ",
"                                Q.5.f.G f.L.n.b.n.N.]./.`.+XoX$.3 6 .                               ",
"                              Q.N f.W.L./ _ 5.N.N.m.B.B.B./.@Xt.o 4 & ,                             ",
"                              J %./.f.q.b.b.I.0.f.B.B.B.m.M._.B.4 4 3 X                             ",
"                              Z v./.z.q.n..X.X'.7.B.B.k.M.K.L.Q.9 1 3 X                             ",
"                            /.N m.f.f.n.`.$X$X#X+X>.k.m.k.z.Q.).n o 3 O p.                          ",
"                          @X%.$.M.^ n.N.'.M.~.B.B.k.d.f.f.N.).~.j.u 2 3 3                           ",
"                        ~.6.$.k.M.H.5.Q.6.$ u.0 D u.>.z.f.z.M.W.B.OXO.p y #                         ",
"                        K.l k.v.v >.0.~.f.J f.G 2.k.:.B.f.d.d.z.^.c.f y d r                         ",
"                      e.H.A j.j.:.>.k.M.@X@Xt./.@Xj.%.j.d.u.6.z.c.F.f s u -                         ",
"                      C.W.D t.j.g.g.0.d.D.W./.v.v.4.4.d.i.i.d.l.F.x.8 p u i                         ",
"                      H.K.G u.u.d.4.g.l.4.d.v.1.y.t.j.j.a.i.t.i.(.y.a s t k                         ",
"                      h.K.:.@.c.i.t.4.t.j.4.1.3.u.i.1.*.1.i.t.j.D.;.8 s :                           ",
"                      H.h.4.@.j.:.m @.@.t.y.S @.a.1.B *.*.#.u.j.F.O.p s : }.                        ",
"                      H.h.4.@.a.t.t.a.*.1.j.3.3.t.t.*.r.3.=.t.s.x.;.s p : A.                        ",
"                      H.g.i.F u.1.m m *.a.t.*.*.t.=.n $.;.=.r.a.F.;.t y t %X                        ",
"                      J.g.d.F i.t.+.+.1.3.r.=.r.r.r.+.-.r.3.r.x.x.O.t f =                           ",
"                      |.8.g.F y.r.@.r.@.@.r.*.+.3.=.+.=.r.=.*.s.x.f p s >                           ",
"                      %X<.g.S r.@.V @.*.1.3.V V r.#.V ;.-.3.r.x.r.y p t ;.                          ",
"                        <.z.S 1.=.y.a.1.*.=.;.=.;.*.3.r.*.*.=.c.#.5 s t -.                          ",
"                        ,.l.F 1.c.oX(.(.(.^.^.v.c.l.c.t.#.*.-.s.a.d p y C                           ",
"                        <.l.C *.{.{.).).).W.^.^.^.v.D.D.:.H 8.i.s.y g 8 p.                          ",
"                        8.l.C *.~. X X).).!.W.W.W.z.S.l.*.C 8.p.-.n a 6 !.                          ",
"                        8.l.B *.g.~.W.K.S.z.z.l.i.d.j.i.;.U 8.D.-.B C k XX                          ",
"                        8.l.n *.Y >.^ Y *.Y *.*.*.*.-.*.U ;.8.A.U T c q &X                          ",
"                        w.g.S S ,.! Y Y :.*.1.*.*.*.-.=.;.,.8.A.I R ( e                             ",
"                        H.d.t.i.h.w.9.9.g.i.a.i.a.a.t.p.p.8.p.C.} [ ) q                             ",
"                          9.d.d.C.C.w.w.g.g.j.s.c.v.i.j.p.8.p.( ..E.L k                             ",
"                             X~.U.T.J.C.K.W.!.W.W.^.z.S.g.w.w.E  .o.P - S                           ",
"                  X.    Y.    |.T.R.T.I.P.K.K.z.z.z.h.w.C.! ! { ]  .h # @ ,                         ",
"                  X.|   G.          I.I.I.P.P.K.H.H.h.C._ b j W ` ] q + z d.E                       ",
"                                                          Q /                                       ",
"                                                                                                    ",
"                                                                                                    ",
"                                                                                                    ",
"                                                                                                    ",
"                                                                                                    ",
"                                                                                                    ",
"                                                                                                    "
};
