/* XPM */
static char *land1706559515[] = {
/* columns rows colors chars-per-pixel */
"50 50 72 1 ",
"  c #020202",
". c #090706",
"X c #0C0907",
"o c #0D0B0A",
"O c #120E0D",
"+ c #16110D",
"@ c #1B140E",
"# c #141010",
"$ c #1C1513",
"% c #1F1815",
"& c #23190F",
"* c #241B14",
"= c #291E14",
"- c #241C19",
"; c #281F1B",
": c #2D2115",
"> c #2D221B",
", c #332516",
"< c #372817",
"1 c #3B2916",
"2 c #33261B",
"3 c #36281B",
"4 c #3C2C1D",
"5 c #3D301F",
"6 c #2E2421",
"7 c #322621",
"8 c #362922",
"9 c #3C2D22",
"0 c #3F3024",
"q c #3F3028",
"w c #402F1E",
"e c #43311E",
"r c #402F21",
"t c #443223",
"y c #4A3624",
"u c #4E3926",
"i c #473629",
"p c #493729",
"a c #4D3A2A",
"s c #523C27",
"d c #583F27",
"f c #543E29",
"g c #4D3C30",
"h c #513F30",
"j c #574027",
"k c #594027",
"l c #57402A",
"z c #5A422A",
"x c #544233",
"c c #5B4633",
"v c #5E4933",
"b c #554538",
"n c #5D4B3A",
"m c #61462B",
"M c #644A2D",
"N c #694C2D",
"B c #634C33",
"V c #684F35",
"C c #624E3B",
"Z c #6A5135",
"A c #64503C",
"S c #6D553B",
"D c #735635",
"F c #72583C",
"G c #5D4D40",
"H c #655242",
"J c #695542",
"K c #6B5847",
"L c #745C42",
"P c #785F42",
"I c #74604B",
"U c #796249",
/* pixels */
"o7ufutu:3filnfpc:#9fsutr=tuycBsulffsafijsssyinzuli",
" -ysf9%#-f=3ttiu. 6usu>%O9u-t9ta:3jssfyzssj3:y0ia$",
" Oisf$.8uj4BejjuO -asu.%rdyuzyzf3tjsuf4ufsu9zaszj:",
" >zsf$.>8fygJdpz>.yzsy.+6rstbVyhfufsrutssfzuuHzyli",
"2fmtfX-=-i*3dulz22Mfue 8$80%pfuMytfsys4ufsf4ezufv3",
"zfsss*t3;t+8fsfy,zssfe$a=83$ufff14kssftjsuf8ezsuf*",
"sssfu<zisg=9zsfu:ssszwwfuua-ffuj93fsif:sisuajfsuf:",
"ffjzz,svft*;yfzuiffdMe<dvu3%2uzjyyfssj,exzlfsfsfst",
"mdmfm=4=@@.==zzuezzzzy=4*$.#=3mfeyksjz:,14y&<zsfj2",
"zsdsufMi$O2zsssuujfsfyzl3#$tzfsfyfuuustBflvtyfsift",
"lIfxs3VZ8;-fsfzu4cPive4Pc2%8fsjzt4KVaz9fLcV4tfssj2",
"zMzzftzuf9-ukfMu,MMzzuyzus62ffzN41Bzlztfzsd3<fsyf-",
"t9233*fuyy9smfds*t329-,zyuttzzsm3=t3<i@tssftukfrf=",
"Duuu Omw$f4ffzsyuMys3 ,z=>fedfzstzzusf,sfsztefsts2",
"zxfsX=m87t9kfzysyxljt tf28yekffuyuhzsiuzfysryfsist",
"zzss9tzusf3dssfu3zzsu8sfufywzuszt4vfslifsfd4yfssz2",
"muffswzssfpzusfyuzusfyezssuflufstffusf3ffssyzuffut",
"zu9usyzssj4iAsixykssfyskssu3bcygfyzttftzfsfi4njybt",
"zu>uuyzsuf=5<tu9&zssfysfsuy:e<yf*<z>9ftdssf2244uaO",
"M9ots9fss79ZczdsyzuuyyefssyjVvzfiufO>z9ssst>BCzkd3",
"zt#8stdsyt>qCyalyssiiyyfsdstcvyxuyf$-f5sfyt82nfivt",
"zy6usrfffi#8fszs3jfuuyijssy<zusztej79z4sffu--ssfz,",
"duriu4zya9Orfsfy:jfustejyfttdsus13fttf4duui$;fsud*",
"sfsyu<zhi$.tfddu4ssus4ejluxfjssft9ffyf:dfg;.>ffzf8",
"dsszs=e9> .7tMzsikufz4=usuu4zudzyyfujz:3t8o >9kMf9",
"msfdu2e=,t+tyffuezusze313y3*zssftyjsff24:=t*>suff2",
"zffisuBzCvtzfksuujfuayfCcCfyzsuupsffystBvvVysfksft",
"zUxcf3VVzz=yMzsu<CUuBywFcvy,fssf44LZfv3zSlM33mMsd:",
"fuusf4syis2uNffu=sysst4ssuu2fsyu4<fyuz4yuty93Nzsd*",
"se32$+z9-j4skstu:u4,i=:zszuefftu42u3<>.yf-yyyzkef=",
"Dskj +m>$ueffu8slBszltykusstzsiyiMzfz* jt+ttuff8s9",
"fxfu$2m99y3kssuutfzuafffuuy4zsusyrxds>$zi9i4edfuf9",
"zfffytzssf9zusfurzdsduydsfutzusftuzfss9ffffeufssf3",
"musssrzusspzxkaufzuuftydssuslxfuf>3yff4sytfafxdsai",
"zssssuzssf,9cyif4zi9fusdsfs=altgi #ifsi2@Oiw:cutx2",
"zsssutzsuu2j<sj0=z2>fiyfss84f4fd: .8sf4.;4z3uwyds@",
"mssrs9fsfjyBAkffuz-Outtjsy6ynBsffoopff2 -9fyfAzfft",
"ssstswdsff3jzuxlrk3-uytjuu9-alics-,Nud=.6%t9-cfaBr",
"zsssutksuj:suffu2z88fiujsf7$sssd44kkul=%i$t--fusf=",
"fssys2ztfptzfuyu:fstuw4jty-#sssf42zusf,uiti3=jssf=",
"ssfuu<zcfcfzssfu9sfsf44zc> $yfmjytffjm:sxMh9-sfjft",
"zsszs*3wei&ssszutksfzw&2-$.#9ymjtykmjN::32= %$szf3",
"myssyyjtuj>ufsuuykysfeuyefy,jusftuszszezw$#$wyufs9",
"lCfaseVCCz0jsfuuyxZiliySBAsyzlkstynvij9zFt%-sksfs9",
"mLzBfwMzsj&yfssu,BFfBytZfzy=zNsf41FBlm9jByt-3zsmz=",
"yrwrt,susf4ssutu*ywey93frqu9kmsz4:yewu2tufy8yzzfm=",
"Vyruy*fsfz3ssuty0Mee2 :z%2s4fzwy0uzee- yk=uttdksf:",
"Mfzfiuzsus0zsuiufzdzt wf%2yyzstyyllfz* zy%9tufmsst",
"fvduxsksss,fssfu3lzsi-sfyuy3zssft4vju8>zuiu3ezsuf3",
"zssfs4zssstzsssuyzssfttzsfuyzssfyukufj9jjsfisdssf9"
};
