/* XPM */
static char *xpm__removal_ai__709ce0f8_a2c9_472f_a532_aaefb5ccfed3_4983164884753_1st_1_copy1705281141[] = {
/* columns rows colors chars-per-pixel */
"50 50 122 2 ",
"   c None",
".  c #0D0E13",
"X  c #101217",
"o  c #14151A",
"O  c #16171D",
"+  c #181A20",
"@  c #1A1C22",
"#  c #1D1E23",
"$  c #1E1F23",
"%  c #1B1E25",
"&  c #1E1F24",
"*  c #1E1F25",
"=  c #1F1F25",
"-  c #1E2026",
";  c #1F2026",
":  c #1D202A",
">  c #202227",
",  c #212327",
"<  c #2F2224",
"1  c #2F2726",
"2  c #222328",
"3  c #262629",
"4  c #20232C",
"5  c #2C2728",
"6  c #27292D",
"7  c #2C2A2B",
"8  c #2A2B2F",
"9  c #372928",
"0  c #312D2F",
"q  c #3D322F",
"w  c #222631",
"e  c #232733",
"r  c #252831",
"t  c #242833",
"y  c #252933",
"u  c #262A32",
"i  c #252935",
"p  c #272C37",
"a  c #2E2F34",
"s  c #272B38",
"d  c #282C38",
"f  c #282D39",
"g  c #282D3A",
"h  c #2A2F3B",
"j  c #2A2F3C",
"k  c #352D31",
"l  c #2E3034",
"z  c #2B303C",
"x  c #2B303D",
"c  c #2B313D",
"v  c #2C313C",
"b  c #2C313D",
"n  c #2D323E",
"m  c #2D323F",
"M  c #2E343D",
"N  c #313237",
"B  c #3F3431",
"V  c #3D3535",
"C  c #33353A",
"Z  c #36373D",
"A  c #3B3638",
"S  c #37383F",
"D  c #41302A",
"F  c #46342E",
"G  c #413531",
"H  c #453631",
"J  c #612C26",
"K  c #683E3A",
"L  c #2E3340",
"P  c #2E3441",
"I  c #303441",
"U  c #303543",
"Y  c #323743",
"T  c #343844",
"R  c #363A46",
"E  c #3A3A40",
"W  c #383C48",
"Q  c #3B3F4A",
"!  c #3D414C",
"~  c #3F4450",
"^  c #4C4441",
"/  c #564943",
"(  c #494A52",
")  c #534F53",
"_  c #655051",
"`  c #6E5D51",
"'  c #7A5451",
"]  c #725E5F",
"[  c #7E695A",
"{  c #545862",
"}  c #64656B",
"|  c #706B6E",
" . c #816C5B",
".. c #8C715B",
"X. c #8F6E67",
"o. c #89716E",
"O. c #987865",
"+. c #817A7B",
"@. c #AD947F",
"#. c #B59773",
"$. c #B4997F",
"%. c #CCA278",
"&. c #DAAD72",
"*. c #E2B575",
"=. c #E0B57D",
"-. c #7D8289",
";. c #8D8E91",
":. c #99989C",
">. c #A7A2A3",
",. c #C7A889",
"<. c #D9B183",
"1. c #DEB585",
"2. c #D4B08D",
"3. c #D4B18F",
"4. c #C8AC93",
"5. c #CFAF91",
"6. c #D8B593",
"7. c #DBB997",
"8. c #DEBA96",
"9. c #E3BC8C",
"0. c #E9C7A2",
"q. c #C4C9CD",
/* pixels */
"                                                                                                    ",
"                                                                                                    ",
"                                                                                                    ",
"                                            v Z S Z l                                               ",
"                                          l C C a N C a u                                           ",
"                                        $ N S a 3 8 S C ,                                           ",
"                                        2 N C 6 ; 6 C C ,                                           ",
"                                        ; a 8 , ; , 8 8 ,                                           ",
"                                        7 8 3 3 , ; ; , ,                                           ",
"                                         .O.` [ ..` / ` `                                           ",
"                                        3.8.,.3.6.3.$.6.3.                                          ",
"                                          7.8.1.=.1.,.3.5.                                          ",
"                                            <.*.*.*.,.5.                                            ",
"                                            #.9.*.&.@.                                              ",
"                                          E $.0.%.,.;.u u                                           ",
"                                        f ) 6.8.O.>.| p z                                           ",
"                                      v : ^ ,.4.o.>.( f U f                                         ",
"                                      v z } | +.' :.R v j f u                                       ",
"                                    v P Y :.;.( K +.C v i v v                                       ",
"                                    L U Y -.( k J | U T i f f                                       ",
"                                    L L L W : < J _ W U i i p                                       ",
"                                    z z s % + < J _ ! W i i v u                                     ",
"                                    z z s % + 9 J ] ( R i w R s                                     ",
"                                    z L s - + ) o.>.( R i 4 W I                                     ",
"                                      P s @ : -.q.q.{ R i : R Q u                                   ",
"                                      v z @ w } :.| Q R w % j ! s                                   ",
"                                        s : s 6 A 7 2 R u @ s Q v                                   ",
"                                        z P L O % : ; U i + p R U u                                 ",
"                                      f P Y z O @ ; ; U s O s P Q w                                 ",
"                                      z P Y L @ + % ; z z O i v Q s                                 ",
"                                      z U U z + X O ; s L O w z W h                                 ",
"                                      z P P p X . X % i P % : s U j f                               ",
"                                    u L P U i X . . % 4 U 4 @ f v f                                 ",
"                                    z P U U w X . . + % z s % %                                     ",
"                                    j P U P 4 X X X + + s L e r                                     ",
"                                    j U U P 4 X X X + O w L f u                                     ",
"                                    L U P j * o o o + O : v j j                                     ",
"                                  i L U P v : O O O @ O % L z s                                     ",
"                                  v P L P f % , 2 ; $ + 4 v L f                                     ",
"                                  z P L L f , %     % @ ; j L z                                     ",
"                                    f v v f 4       $ % ; f z v                                     ",
"                                          u ,       % % ;                                           ",
"                                          r 2       % ; ;                                           ",
"                                          u ,         ; ,                                           ",
"                                          6 , >       , : p                                         ",
"                                          7 3 %       , , k                                         ",
"                                          F D G       < 9 F H                                       ",
"                                          H q         $ 1 B B V                                     ",
"                                                                                                    ",
"                                                                                                    "
};
