/* XPM */
static char *m_d_fotor_bg_remover_202401292243361706564688[] = {
/* columns rows colors chars-per-pixel */
"50 50 154 2 ",
"   c #040303",
".  c #080605",
"X  c #0B0907",
"o  c #0E0B09",
"O  c #120E0C",
"+  c #16110D",
"@  c #19130E",
"#  c #0C0D11",
"$  c #0F1014",
"%  c #111216",
"&  c #1C1512",
"*  c #1E1814",
"=  c #15161B",
"-  c #17181E",
";  c #1A1A1E",
":  c #241B15",
">  c #291E16",
",  c #261D18",
"<  c #281F19",
"1  c #2D2116",
"2  c #2D221A",
"3  c #312417",
"4  c #32251B",
"5  c #36281C",
"6  c #3B2B1D",
"7  c #141720",
"8  c #171A23",
"9  c #1B1D23",
"0  c #1B1E28",
"q  c #1E2126",
"w  c #1E2129",
"e  c #222224",
"r  c #2A2525",
"t  c #2F2823",
"y  c #22242B",
"u  c #2B2729",
"i  c #27292D",
"p  c #2B2A2C",
"a  c #332125",
"s  c #352921",
"d  c #3C2E22",
"f  c #38262B",
"g  c #332E2B",
"h  c #3E3025",
"j  c #36302E",
"k  c #3C322C",
"l  c #222733",
"z  c #252935",
"x  c #2C2D33",
"c  c #262C39",
"v  c #2A2E3A",
"b  c #332E31",
"n  c #2F3136",
"m  c #2D313D",
"M  c #343234",
"N  c #3A3433",
"B  c #33343B",
"V  c #3A3739",
"C  c #373A3F",
"Z  c #3A3A3E",
"A  c #402F1E",
"S  c #42301F",
"D  c #402F21",
"F  c #5F2925",
"G  c #5F2E2B",
"H  c #453323",
"J  c #493624",
"K  c #4D3926",
"L  c #44352B",
"P  c #48362A",
"I  c #46392E",
"U  c #4D3A2A",
"Y  c #523C27",
"T  c #543E29",
"R  c #443932",
"E  c #642925",
"W  c #683C38",
"Q  c #56402B",
"!  c #5A422B",
"~  c #544231",
"^  c #5B4631",
"/  c #5E4933",
"(  c #60462A",
")  c #62492F",
"_  c #624C35",
"`  c #634F3B",
"'  c #67503A",
"]  c #2E3442",
"[  c #313643",
"{  c #353945",
"}  c #393C46",
"|  c #363B49",
" . c #3A3E4A",
".. c #3D424D",
"X. c #4D4648",
"o. c #554B40",
"O. c #484B54",
"+. c #474C58",
"@. c #555050",
"#. c #525058",
"$. c #654C4E",
"%. c #6E5C4C",
"&. c #705B47",
"*. c #665356",
"=. c #6E5F51",
"-. c #7B5452",
";. c #706154",
":. c #7F6957",
">. c #535764",
",. c #735D60",
"<. c #5F6369",
"1. c #6A6A6D",
"2. c #756B6B",
"3. c #6B6D74",
"4. c #7D7573",
"5. c #836D52",
"6. c #90765D",
"7. c #926C67",
"8. c #947C67",
"9. c #897071",
"0. c #817E7F",
"q. c #A17462",
"w. c #9B826C",
"e. c #AE987F",
"r. c #B19071",
"t. c #B2967A",
"y. c #BD9E7F",
"u. c #CEA176",
"i. c #CCA57B",
"p. c #DBB070",
"a. c #E2B575",
"s. c #E5B870",
"d. c #7C828A",
"f. c #8E8C8D",
"g. c #90908F",
"h. c #888C93",
"j. c #9A9497",
"k. c #AB9E9D",
"l. c #969DA2",
"z. c #A0A0A5",
"x. c #ACA7A9",
"c. c #C6A787",
"v. c #CCAB8B",
"b. c #DFB386",
"n. c #C8AD92",
"m. c #D5B493",
"M. c #DCB593",
"N. c #DEBC97",
"B. c #E0B485",
"V. c #E2BB96",
"C. c #E6C08C",
"Z. c #E9C8A3",
"A. c #BFC5CB",
"S. c #C7CED2",
/* pixels */
"O 2 J Y K H D 2 5 K H T ~ T U U < & s Y K J H 6 1 h K J Q ~ Q U K Y Y Y Y Y K Y Y Y Y J J ~ Q K U P ",
". : L Y Y 5 , : 4 J 5 D J P K H + o 4 P Q J 1 : , 6 S 6 H J J L 6 S Y Y Y Y K T Y Y Y h 6 L J K L 2 ",
"  & H Y K : + 2 D K H Y K Y Y H @ X < K K S * 2 g L L J Q K Q K h S Y Y K K H K Y Y K H U U Y Y K 3 ",
"O 2 Y Y J : O < d P H U / T T U 2 @ D T Q k i B Z Z M N ~ ! K Q K K Y Y J K H K Q Y Y J Y / Q Y Q H ",
"5 Y T Y J * : > < d 4 d T Y Y Y 5 5 T ! H g B B n B B n j Q Q Q J H Y Y K K S Y Y Y Y S J Q Y Y Q S ",
"Y T T Y J 1 6 5 4 d < d Y Y Y K 6 Y T Y g m } n i p C B i J Q K A A Y Y Y Y S Q Y Y K S J Y Y Y K 3 ",
"Y Y Y Y K 6 K K K L 3 A Y Y Y K 6 K Y K u M B i q i C B e k K Q S A Y Y K K 6 S Y Y U U Y Y Y Y K 5 ",
"T T ! ! Y 6 J Y K 6 : 3 S T Y K J Y T Y u x p y q q p p q 6 Q Q J J Y Y Y K 6 H K T Y U K Y Y Q Y h ",
"( T ( T Y 6 A 6 > @ & 3 A Y Y K K Y ! Q p p i i e q y e y k ! Y J K Y Y Q Y 5 6 H J J 4 A Y Y T K d ",
"! ! ! Y Y K Q S : @ 2 J Y Y Y Y K Y ! _ :.8.%.:.6.%.o.;.=.&.Y Y J K Q Y Y K H Q T T ! H H T Y K K S ",
") ' ! ! K J _ ! d < 3 K Y T ( S S ! ` ^ r.N.v.m.M.m.t.m.i.5.Q Q S J / _ Y Q H Q ` ! ! D H Y Y K Y 6 ",
"! ! Y Y Y H T Y P d 4 J T T ( K 6 Q ! Y ' y.V.B.p.b.v.v.6.! ! ! S h ! Q Y Y H K ! ! T A A Y Y K K 3 ",
"K H A 6 4 3 J J H J D K T ! T K 6 H S S 6 / c.s.s.a.c.6.! Y ! Y H 5 H S A H 4 H Y Y T H J Y Y J J 3 ",
") Y J H + : K A 4 H H Y T ! Y K J Q K J 5 + 5.C.p.p.w.~ Y ! Y Y H K T K K J 6 J Y Y Y J K Y Y H J 6 ",
"! Q T H : 1 Y D s H H Y T T Y K J Q Q Y h M e.Z.u.n.f.g k Q ! Y J K Q Q Y K K Y Y K Y H J Y Y P K H ",
"! Q T K 6 H Y Y K K D Y T Y Y K S Q Q U n @.m.N.q.k.3.x n L Y Y H J Q T Y T Y Y Y Y Y H J T Y Y Y 6 ",
"T T K K K J T Y Y Y K Y T Y Y U K Q Y N y X.c.n.7.x.#.c [ b L Y U K T Y K Y H Y Y Y Y K U Y Y Y K H ",
"( T D U K Y T Y Y K h P T K U K J Q I B v 1.2.4.-.j.} v v c M U J K Y H J Y K T T Y Y D L T T K I h ",
"T K 4 J K K T Y K J 5 H P J U D 6 U V m { l.h.X.W 0.m B x m B P 5 A K d d U J Y Y Y K 6 6 J K K J 1 ",
"T D : A K H T Y K d d Q ^ T T K J I B [ { d.O.b G 2.[ [ z v v P H J J : 4 U D K Y K J s Y ^ T T K d ",
"T D : d K H Y Y J D s L ( T T T J I m ] m  .w r F *.{ | l z c k U K H : 3 J S K T K D s d ^ T T T H ",
"( J s D K H Y Y K D , d Y Y T K H L m m c 0 8 a E $...| z z m b H H K d d K J Y Y Y P < 2 U Y T T d ",
"T K H J J H Y Y U 4 & d Y Y T S 6 U B m c 0 ; f E ,.O.{ c l } v d 6 Y H H U S Y Y U D : < K T T K 3 ",
"T T K K K d K U D : O s Y ! T J d K Z m c 9 8 #.9.z.+.| z y } { g D Y Y K K 6 J Y P < O < Y T T Y d ",
"T T T T J 5 A D 4 + O 4 J ! ! Y J Y R ] v 8 0 d.S.A.>.} z 0 {  .p K Y Y T Y 5 6 d 5 & O 1 J Y ( K H ",
"T Y T T J A A 5 5 5 > d K T T J J Q U C v 8 l <.g.4. .{ l 0 c O.c P Y Y Y Y 6 H 6 5 6 > 5 S Y T K d ",
"( T T T K K T ^ ~ Q H Y T T Y Y K T ! R v w v i Z u i { l 8 c  .m k Q Q Y Y J T ! ^ ! J J Y ! Y Y H ",
") ' ) T Y H ^ ) ! Y 6 J ( ! T J S ^ ` R m ] ] = w w 0 [ c 7 c | [ b _ ^ T T H Q _ ^ ! S S ! ( T K 4 ",
"T Y K K J A K K J J 6 K ( Q Y J 5 K Y N ] { ] 8 9 e w [ c 7 c ] } c Y K K J 6 J K H K D S ! ! Y K 3 ",
"T H A A : : J D 4 J H Y ! Y J H 6 K H x ] [ v 8 ; 0 w v ] 7 l ]  .v P H A 2 : S H 4 H H J ! Y J J 4 ",
") T T S + : K 5 2 H S Y Y S H J U Q U m ] [ v 8 $ - 0 v ] 7 l c | ] L Y J > + S H 2 d H J Y Y H J A ",
"( T T J > 5 T D 6 J S Y ! Y K K K Q R m [ [ v % # % 9 z [ 8 0 c [ m N T Y 4 1 K P d H H J Y Y K K A ",
"! T Y K H H Y Y Y Y H Y T T Y K J T R ] ] ] c # # # 9 l ] 0 0 v B j U T Y J D Y Y K K H K T T Y K D ",
"( T Y Y K J T Y Y Y J Y T T U K Y T B ] ] ] l % # % 9 9 ] c 8 j P 4 d J Y Y H J H D K K K T T Y T H ",
"T Y Y Y K K Y Y Y Y A H T K K P D Y ] ] [ ] l % % % - 9 c ] l b D O & d K Y H 4 : : H D d U T K P 5 ",
"T Y Y Y Y K Y Y K J A J U K Y H 6 P ] ] ] ] y % % % - - l ] v b 4 X O 4 K Y 6 @ < d K D H K K Y K 1 ",
"( T Y J J J Y Y Y Y K ! ^ T T T J R ] [ [ ] w % = = ; - e ] c v H & + S T Y 3 O , d K J Y ~ Q T T H ",
"T T Y S K S Y Y Y Y D Y T T T T J M ] ] ] v w - - = ; = 0 ] ] v L < 6 T T K 1 + , < d d d T T T T H ",
"T T Y Y K J Y Y Y K A K T K T P 6 n ] [ ] v e e r e e 9 0 m ] c g A K T Y K 3 > d < d < 2 U T Y Y 4 ",
"T T Y Y J S Y Y Y U J T T K K J d B ] v ] v w k Y d e 9 u v ] ] j A Y Y T Y 6 A J H L 4 3 U Y Y K 4 ",
"T Y Y Y J 6 K T Y T K Y Y Y Y Y H I R C m v e g U 4 ; q u B { V P S Y T ! T 6 S T T P 4 2 H Y T Y d ",
"T T T T J 4 A H J L 6 J Y Y T J J T Y Y U g e t 4 , : 0 t U T T J J T ! ! ! 6 6 d 5 > & : 4 J ! Y A ",
"( T Y Y Y S K U Y P 5 J Y Y Y K J T Y Y Y g e g H K t 0 r Y T Y J K ! ! T Y S Y H < & & 6 H Y Y Y d ",
"^ ) T Y Y K ^ ) ^ T H Y Y Y Y J J ^ / T T g w R / / d 0 i K T Y H K ! ( T T J ! / D , < H Y Y Y Y A ",
"^ _ ! T Y H ! ( T Y 6 J Y Y K H 6 ! _ T ! b e g Q T g e l L T Y A S _ ! T T H T ! K D < A Y ! ! Y 4 ",
"Y J J J S 5 K Y Y K A H Y Y K H 6 J J H H g r g H H d e u j U Y A 6 K J H H 5 H Y K J D J Y T ! Y 4 ",
"! K H K H 6 K Y T Y H Y T K J H H T J H L P L L 4 5 d r d L U U S J Y J S > @ D K 5 S J K T T T K 4 ",
") T T Y K J Y Y Y Y H Y Y K J K K ! T Y L R k L 4 s d 4 k R R R K Y Q Y K > @ H J 4 A S J Y ( T K H ",
"! ! T Y T Y T Y K K A Y Y Y Y K H T T T H t H Y J H J H Y Y K K H J Q Q K d 4 Y K H K H J Y Y Y K A ",
"! T Y Y Y P T Y Y Y J Y Y Y Y K K T Y Y Y H J Y Y Y K K T Y Y Y J K T Y Y K H Y Y K Y H Y Y Y Y K H "
};
