/* XPM */
static char *m_l_fotor_bg_remover_20240129224948__1_1706565013[] = {
/* columns rows colors chars-per-pixel */
"50 50 136 2 ",
"   c #040303",
".  c #080605",
"X  c #0B0907",
"o  c #0E0B09",
"O  c #120E0C",
"+  c #16110D",
"@  c #19130E",
"#  c #0E1114",
"$  c #0D121B",
"%  c #1C1512",
"&  c #11161D",
"*  c #14191D",
"=  c #1A181A",
"-  c #241B15",
";  c #291E16",
":  c #251D1A",
">  c #281F19",
",  c #2D2116",
"<  c #25201F",
"1  c #2D221A",
"2  c #322417",
"3  c #33251B",
"4  c #36281C",
"5  c #3B2C1D",
"6  c #0F1622",
"7  c #151B23",
"8  c #191E23",
"9  c #161F2C",
"0  c #1C2126",
"q  c #17202D",
"w  c #1D232C",
"e  c #1B2534",
"r  c #1F2837",
"t  c #1C2738",
"y  c #1E2A3B",
"u  c #232324",
"i  c #2F2724",
"p  c #2C2927",
"a  c #22262C",
"s  c #24292D",
"d  c #292829",
"f  c #352A23",
"g  c #3D2D22",
"h  c #322E2B",
"j  c #3F2F29",
"k  c #3E3125",
"l  c #36312D",
"z  c #3B332C",
"x  c #232A33",
"c  c #2A2E34",
"v  c #222D3C",
"b  c #282C38",
"n  c #2C3136",
"m  c #26313E",
"M  c #2B323A",
"N  c #333334",
"B  c #3B3533",
"V  c #31363A",
"C  c #3A3B3D",
"Z  c #402F1E",
"A  c #42301F",
"S  c #402F22",
"D  c #443323",
"F  c #493624",
"G  c #4E3926",
"H  c #43342A",
"J  c #4A352A",
"K  c #45392D",
"L  c #4D3A2A",
"P  c #523C27",
"I  c #543E29",
"U  c #4C3730",
"Y  c #433A33",
"T  c #493D32",
"R  c #533C32",
"E  c #56402B",
"W  c #5A422B",
"Q  c #4E4235",
"!  c #46403B",
"~  c #544232",
"^  c #5B4531",
"/  c #5E4933",
"(  c #5B4938",
")  c #61462A",
"_  c #62492F",
"`  c #624C36",
"'  c #654F39",
"]  c #734B32",
"[  c #765838",
"{  c #232E40",
"}  c #263141",
"|  c #2A3443",
" . c #2E3846",
".. c #2D3948",
"X. c #303A47",
"o. c #3C3B42",
"O. c #333D4A",
"+. c #37404D",
"@. c #39424E",
"#. c #364051",
"$. c #3B4452",
"%. c #434141",
"&. c #474B4F",
"*. c #5B4D4D",
"=. c #404955",
"-. c #625752",
";. c #6C625F",
":. c #646D73",
">. c #777476",
",. c #9D643C",
"<. c #AA743F",
"1. c #80644C",
"2. c #8A694B",
"3. c #8C705C",
"4. c #9F795F",
"5. c #A07358",
"6. c #B47D50",
"7. c #BC8554",
"8. c #AE896C",
"9. c #B08061",
"0. c #B68468",
"q. c #A38575",
"w. c #B48F72",
"e. c #BD9575",
"r. c #DD994E",
"t. c #C78158",
"y. c #CA9A5B",
"u. c #CF936C",
"i. c #D29973",
"p. c #D39D79",
"a. c #E3AA65",
"s. c #959CA0",
"d. c #DDAA86",
"f. c #D8AD8B",
"g. c #E6B28B",
"h. c #EBBB95",
/* pixels */
"O 1 F P G H Z , 4 G D L ~ I L L ; % f P E A F 5 , k F D ~ E E K J G E P P G F E P P P F F ~ E G K F ",
". - H P P 4 - - 3 H 5 Z F F G D + o 1 F E A 2 - - 5 F 5 D F F F 5 Z P P P P F E P P P 5 5 H F F J , ",
"  % D P G - O 3 D G H I P P I H @ X > G G A % < h B K F E G E G Z F P P G G F G E P P A G E P P G 2 ",
"O 1 I P G - O > g F D L ^ I I L 1 @ S I E l s V V V N N Q ^ G E F G P P F F D G P P E F L / W P E H ",
"5 P I P D - % > 1 g 3 g P P P P 4 5 P E k c n x s w s n s z L E F F P P G P A P P P P A F E P P E k ",
"P I P P F 2 5 4 3 g : 5 P P P G 5 P E J a M n w 0 0 s x M a D E Z A P P G P A W P P G F A P P P G 2 ",
"P P P I G 5 G L F H 2 Z P P P G 5 G P k w M x 0 $ * 0 0 M 0 f E Z 5 P P G G 5 A G I L L E E P P G 4 ",
"I P I W P 5 F P G g - 2 A P P P F P I g 0 s 0 * * $ * 0 w * 4 E F F P P P P 5 A P I G F G P P P G A ",
") I ) W P 5 Z 5 ; % @ 2 Z P P G A E E K a a u 8 0 l * 8 8 8 k E F F E P P P 5 5 D F F 3 A P P I P g ",
") I P P P F E A - @ 1 F P P P P A E E E ~ 3.8.3.4.w.p 8 8 d E E F P E P G P A E I E W D F P P G G A ",
"` ' ) I P F ` W g : 2 G I I I G A _ ` E 1.f.h.h.g.q.= * d K E P A F / / E E F E ` ^ W D D P P G G 5 ",
"W W E I G D P P J g 3 F I I ) P 5 W ^ [ 7.d.h.g.p.E # 8 F P W W A g ^ W I G k G W E P Z 5 P P G F 2 ",
"G D Z 5 3 2 G F D D S G W I P A 5 A E y.r.u.d.i.u.9.z g E W P P g 5 F A A A 3 A P P P F F P P D F 2 ",
") P G 5 + - G Z 3 F D P I W P G G E 2.a.r.,.5.0.q.;.N l E E W P D G P F G G 5 F P P P F G P P F G 5 ",
"W I I F - , P S f D D P I W P G F E e.6.<.A ( >.+.r y v l E P P F G E P P L G I P G G D F P P G G D ",
"W W I L 5 D P P G G S P P P P G A E 8.t.] k *. .v x v r r s G P F F E E P I P P P P P D F P P P G g ",
") P G P G G P P P P D E I I L G G E [ 9.I J o.b | v m q e N I L D P I P P P F G P P P G L I I L J D ",
"I G H L G P I P P G k F E P G J F E ( -.u 3 b b | t | q e K P L F G P D H P G I P P G F D E I J L g ",
"W F 3 D G G P P P F 4 D H F L D 5 G Q s.&.u v v v v } x c H F L 4 Z G f S G D I P P G 5 g F F G D , ",
"I Z - 5 G D P P F g k E E E I F A E h :.@.w v m | b } b ~ W I I F F F - 2 L D G P P S f L ^ I I L g ",
"W Z ; g G F P P F D 3 H W I I I G E f 0 w e } X.X.v | M ~ W I E G G F ; 2 F A G P G H 3 g ~ W P E H ",
"I G f S G F P P P k : g P P I P A G H # $ r | X.X.v +.| K P L I G A G f g G F G P I J > 1 P P I I 5 ",
"I G S F G S P P F f % g P P P G 5 G P * 7 v m X.X.v @.O.B P L P Z Z G H H G A P P G S : 1 P P P G 2 ",
"I I G G F Z L L S - O 4 P P W A A G P < 9 v m +.X.v @.@.C P G P A Z P P G G 5 F G J > O > G I I G 5 ",
"I P P I G 2 Z S 1 + + 3 J W W P F P P z | m m +.M v $.$.o.P E P F F P P P P 5 5 g 4 % o 2 A P W P D ",
") P I I G 5 Z 5 4 4 ; g G I P G A E P L x m | @.m v @.$.@.L P P F G P P P P 5 A 5 5 4 ; 5 A P W P 5 ",
") R I I G G W W ^ E A P I W P G G E E F 0 v  .@.m v @.$.=.K P G F G E E P P F E ^ ^ W F F P E P G D ",
") ' ^ I P F ^ ^ W P 5 G W W P G D W ` K 0 v O.#.v m @.$.=.T P G A H ` ^ I I D I ` ~ W A A W ) W G 4 ",
"I P G P D Z G G D F 5 G W E G F 5 G P k 7 v ....r m @.+.$.! G G 5 5 I P G F 5 F P D F S A W W P G 2 ",
"I A Z Z - ; G g 3 F D G W P F F 5 F F 4 7 v +...e m +.@.@.%.F F Z g G A 5 , - Z F 2 D D F E W A F 2 ",
"_ I I A + - G 3 , F A P P A F F G W P k & v ..| e v X.@.X.C J F F I W P G ; + F D : g F G P G F F 5 ",
"W W I A ; 4 P H F A A G E W G F F E E k & v v e q w r m v n G G F F E I G 3 , G F g D D F P G G G D ",
"W I P P A F P P P P F P P I I G F P E k & m e 6 $ $ 7 } y r L P F F I I G D S P P P P D G I P P L D ",
") I P P G F I P P G D I I I G L P W P f $ m } q 6 6 v O.v e Y L F 3 f F P P D L D S P G G I I P I D ",
"W P P P G G I P P G Z D I G L L A P D i $ v  .v e q } O.} t N L S O % g P P S 3 - > D S g L P F J 4 ",
"I P P P P G I P G G Z G G G P S 5 G g < $ v ..} t e } $. .t c I 3 X O 3 G P g + - 4 G S D G G P F 1 ",
"W I G F F D P P I P F W ~ I I P F P , = $ v ..| y t | O.O.{ x T F @ @ D P P 2 O - g L D L ^ ~ I I D ",
"I P G F F F P P P P D P W I I I F G 5 < 6 y ..| y e { O.O.{ e Y G > 5 I P G 2 + : 1 g g g I I I E D ",
"W P P P G A P P I F 5 P I P I J A G D i 7 v | | y t { O.O.| x B S 5 P I P G 2 ; f 1 f 1 1 G I I P 2 ",
"P P P P G Z P P P L F P P G G F 5 G F k a | ....{ t t b o.U J L Z Z P P P P 4 A F H D 4 3 G P P G 3 ",
"P P P P G 5 G I I L G P P P P G D P P G J z l B a & & % A P W W F F P I I P Z A P I F 3 1 H P P P S ",
"W P P I G 3 Z D F D 5 F P P E G F I P I P D 2 5 0 & = - Z G W W F G I W ) W 5 5 5 4 ; % - 3 G W P g ",
"W P P P G A G G I F 5 F P P P G F I I I P F F z a 8 u 4 A I P P F G I W P P D G D ; % % 5 A P P P g ",
"W ` E I G G ^ ` ( E D G P P G G F W / I I F F z w e a k P ) P P A F / ) P I G I ` S : : F P P P P Z ",
"W ` W ~ P D W W E P 5 A P P G F Z W ` I R D S d s a a h W ) P P Z Z ` ) I P F P ^ G S 1 Z P I ) P 2 ",
"I G D F A 4 G P P P Z F P G F D 5 F F D R J S j g j H g W W P P Z 5 F F F D 2 F G G D g D I I W P 3 ",
"W P F F A 5 G P P P F P P G H F D I F H j H U R U S f H P P F F D F P F Z ; @ Z G 4 A F G P I I G 3 ",
"_ I P P G G P P P P A P P G F G P I I P g > f H f f g D P P F F F I I P G ; @ F F 3 Z A G I ) P G D ",
"W W I P I P I P P G Z P P P P G D I W I D 2 H P F F F F P P P P F F W E G g 3 G F D F D F P P P G 5 ",
"W I P P L F P P P P F P P P P G F I P P G D F P P P F F P P P P F F P P I G D P P P I F P P P P P D "
};
