/* XPM */
static char *xpm__removal_ai__20805259_6614_434f_bc6c_d2c5b9918e4f_4983164884753_2nd_1_copy1705281245[] = {
/* columns rows colors chars-per-pixel */
"50 50 101 2 ",
"   c None",
".  c #0C101B",
"X  c #10141F",
"o  c #101520",
"O  c #101521",
"+  c #121620",
"@  c #131722",
"#  c #141821",
"$  c #151922",
"%  c #171C26",
"&  c #1A1B22",
"*  c #181B25",
"=  c #1C1F29",
"-  c #1C2029",
";  c #1E222B",
":  c #18202E",
">  c #1F232C",
",  c #1E232D",
"<  c #1B2332",
"1  c #1B2535",
"2  c #1C2534",
"3  c #1C2536",
"4  c #1C2636",
"5  c #1E2636",
"6  c #222127",
"7  c #2B2023",
"8  c #20252E",
"9  c #22252E",
"0  c #22262E",
"q  c #2F2829",
"w  c #352724",
"e  c #342726",
"r  c #3E2B27",
"t  c #332A2B",
"y  c #302C2F",
"u  c #262A33",
"i  c #212836",
"p  c #282C35",
"a  c #282F36",
"s  c #202839",
"d  c #202939",
"f  c #222B3B",
"g  c #232C3D",
"h  c #262F3F",
"j  c #2B2F39",
"k  c #312E32",
"l  c #2E323B",
"z  c #432E28",
"x  c #44332E",
"c  c #4C362F",
"v  c #483530",
"b  c #283040",
"n  c #283142",
"m  c #2B3342",
"M  c #2D3443",
"N  c #2A3344",
"B  c #2C3444",
"V  c #2C3546",
"C  c #2E3747",
"Z  c #313847",
"A  c #3B3942",
"S  c #303948",
"D  c #323A4A",
"F  c #343C4C",
"G  c #363E4D",
"H  c #363E4E",
"J  c #38404F",
"K  c #394150",
"L  c #3B4352",
"P  c #3C4452",
"I  c #3C4453",
"U  c #3F4856",
"Y  c #4C4241",
"T  c #43464E",
"R  c #444851",
"E  c #5E585C",
"W  c #605654",
"Q  c #706F73",
"!  c #8E6F5D",
"~  c #9D7A65",
"^  c #B08367",
"/  c #B98769",
"(  c #A18474",
")  c #B48A70",
"_  c #C3804D",
"`  c #C6855C",
"'  c #DB9751",
"]  c #CC956F",
"[  c #D09260",
"{  c #D89B62",
"}  c #D29C78",
"|  c #E8AC68",
" . c #EDB26B",
".. c #989BA1",
"X. c #DBA985",
"o. c #DAAC87",
"O. c #DEB08E",
"+. c #E2B08B",
"@. c #E5B28E",
"#. c #E6B58F",
"$. c #ECBB96",
/* pixels */
"                                                                                                    ",
"                                                                                                    ",
"                                                                                                    ",
"                                            i l j j l k                                             ",
"                                          p j u 0 0 u p u -                                         ",
"                                        8 j l 8 * * 8 u j 8                                         ",
"                                        8 p u * X X - 9 j - =                                       ",
"                                        8 8 - X X $ X * 8 * $                                       ",
"                                        > 8 6 * 6 y X & * *                                         ",
"                                          ! ) ! ~ ) 0 * - 8                                         ",
"                                          O.$.$.#.~ * * 8                                           ",
"                                        { o.$.@.} c . &                                             ",
"                                       .' ] X.} ] ^ Y                                               ",
"                                      | ' _ / ) ( Q R                                               ",
"                                    #.[ _     Q D 3 f f i                                           ",
"                                    +.`     E V f f f 3 3 i                                         ",
"                                      ^     A g V f n = 1 5                                         ",
"                                      W - 7 l g V 3 V : 1                                           ",
"                                      ..T 6 f g g 5 V 1 f                                           ",
"                                      Q T < g n n g n f                                             ",
"                                      * - 3 n Z D g V b                                             ",
"                                      . X f n D S f D m                                             ",
"                                      O * f n D S f G G m                                           ",
"                                      O : g n F C g J J D                                           ",
"                                        N b n H N g H I G                                           ",
"                                        < g N K n g K I I                                           ",
"                                        % g S H b f K I U                                           ",
"                                        O g D H f b K I U                                           ",
"                                        % b S D 5 n K K I                                           ",
"                                        @ 5 S C 5 b G H K K                                         ",
"                                        O b S n 1 g D G D D                                         ",
"                                        O 5 b 1 = 1 f g f f                                         ",
"                                        . h < O . . * l f 3                                         ",
"                                        . h h : X * g D g 3                                         ",
"                                        . g V g < 1 n F n 3 5                                       ",
"                                        . g V n 5 1 n K n 1 f                                       ",
"                                        . g V n 5 5 n K S 5 1                                       ",
"                                        X g V n 5 4 b K J n 5                                       ",
"                                        O n V n b 1 b F F V 1                                       ",
"                                        * M V N b 1 5 V N                                           ",
"                                                9 O $                                               ",
"                                                * # O                                               ",
"                                                - * %                                               ",
"                                              = > : >                                               ",
"                                              & > > 8                                               ",
"                                        v z r w w r r                                               ",
"                                        k x c c c r e                                               ",
"                                            t t                                                     ",
"                                                                                                    ",
"                                                                                                    "
};
