/* XPM */
static char *xpm__removal_ai__5744d1db_7abe_4b1e_b037_cdbebe041e56_39a1c84b4b164936a68a07e0e6853a67xl_copy1705281182[] = {
/* columns rows colors chars-per-pixel */
"50 50 82 1 ",
"  c None",
". c #141519",
"X c #14171D",
"o c #171B20",
"O c #191D23",
"+ c #1B1F24",
"@ c #1D2126",
"# c #1C2027",
"$ c #1E2228",
"% c #1F2328",
"& c #1C242F",
"* c #1D242F",
"= c #1E2631",
"- c #1F2631",
"; c #1F2732",
": c #1E2735",
"> c #1F2835",
", c #1F2836",
"< c #222125",
"1 c #2B2424",
"2 c #23252A",
"3 c #23262C",
"4 c #23282E",
"5 c #382E2C",
"6 c #252B31",
"7 c #262B30",
"8 c #202834",
"9 c #202936",
"0 c #292D32",
"q c #2A2F34",
"w c #292F37",
"e c #212A38",
"r c #222A38",
"t c #232C3A",
"y c #242D3C",
"u c #262E3C",
"i c #262F3D",
"p c #2F3338",
"a c #28313F",
"s c #2C323C",
"d c #343338",
"f c #31363B",
"g c #373639",
"h c #34373C",
"j c #3D3739",
"k c #42302B",
"l c #4E372F",
"z c #483630",
"x c #493831",
"c c #4C3B35",
"v c #493E3C",
"b c #5E4A3F",
"n c #2A3341",
"m c #2B3442",
"M c #2C3543",
"N c #2E3745",
"B c #303947",
"V c #3F3E43",
"C c #333B48",
"Z c #484A50",
"A c #635247",
"S c #7A6962",
"D c #A37B64",
"F c #BF8562",
"G c #A28470",
"H c #B98B70",
"J c #BE9578",
"K c #BF9678",
"L c #DA9558",
"P c #DE9B5C",
"I c #E5A05B",
"U c #CE916A",
"Y c #F1B66C",
"T c #F1B76E",
"R c #D4A380",
"E c #D9A784",
"W c #E7B386",
"Q c #E9B285",
"! c #E5B089",
"~ c #E0B390",
"^ c #EBB993",
"/ c #EDBF9B",
/* pixels */
"                                                  ",
"                                                  ",
"                                                  ",
"                      sgsh                        ",
"                    36q0qpfs                      ",
"                   3q04$+2pf-                     ",
"                   $q6OXXO0f2*                    ",
"                   @42XXoo@q$+                    ",
"                   #$+oXOoo$$@                    ",
"                   232+AA2bbg                     ",
"                    6$@GEJ!EJ                     ",
"                     $XxR^^^Q                     ",
"                      .bUE!!IY                    ",
"                       GHFUUIY                    ",
"                     9mBZSD LPW                   ",
"                    9Nm,:nv  ^/                   ",
"                    trryii4  J~                   ",
"                    t99nNNt%sV                    ",
"                    rt9iBNB9yC                    ",
"                     gjyNNBmNM                    ",
"                      cynmimnt                    ",
"                      dyyitr99                    ",
"                      9yit,r99                    ",
"                      8rir,rr9                    ",
"                      ;yy,,e,8                    ",
"                      ,it&,ee                     ",
"                      9Ny##&9                     ",
"                      yNi,te9                     ",
"                     ,iCytNNt*                    ",
"                     9NNtyNMt;                    ",
"                     tNNtiNmt;                    ",
"                    ;yNm9iNmt,                    ",
"                    8aBn,yNMt,                    ",
"                    9aCy,nNMt-                    ",
"                   :9mCrynBNtr                    ",
"                   -yCN,rmBNyr                    ",
"                   8iBn9yMBNrr                    ",
"                   9aBy9ymBmyr                    ",
"                   taMt9ynNnt-                    ",
"                   9sy,:ynMn,-                    ",
"                      -@*tsyt                     ",
"                      9OO8                        ",
"                      3OO*                        ",
"                      $OO@                        ",
"                      6@@@                        ",
"                      62<<1                       ",
"                      kkxkklb                     ",
"                      55zzzzc                     ",
"                                                  ",
"                                                  "
};
