/* XPM */
static char *m_r_fotor_bg_remover_20240129224816__1_1706564927[] = {
/* columns rows colors chars-per-pixel */
"50 50 121 2 ",
"   c #040303",
".  c #080605",
"X  c #0B0907",
"o  c #0E0B09",
"O  c #120E0C",
"+  c #16110D",
"@  c #19130E",
"#  c #1C1512",
"$  c #12161B",
"%  c #16191E",
"&  c #241B15",
"*  c #291E16",
"=  c #251D1A",
"-  c #281F19",
";  c #2D2116",
":  c #2D221A",
">  c #312417",
",  c #33251B",
"<  c #36281C",
"1  c #3B2C1D",
"2  c #171C22",
"3  c #191D23",
"4  c #151D2A",
"5  c #201E22",
"6  c #1E2127",
"7  c #1E232A",
"8  c #1D2532",
"9  c #1F2936",
"0  c #1F2938",
"q  c #232224",
"w  c #292624",
"e  c #21252B",
"r  c #25292E",
"t  c #2B2A2A",
"y  c #332922",
"u  c #3D2D21",
"i  c #352E29",
"p  c #3A2F29",
"a  c #3E3125",
"s  c #35302E",
"d  c #3B322B",
"f  c #212730",
"g  c #212935",
"h  c #2B2E33",
"j  c #232D3B",
"k  c #282F3B",
"l  c #2A3036",
"z  c #27303E",
"x  c #2A323D",
"c  c #333233",
"v  c #3C3632",
"b  c #3F3934",
"n  c #32353A",
"m  c #36383C",
"M  c #39383A",
"N  c #402F1E",
"B  c #42301F",
"V  c #402F21",
"C  c #443323",
"Z  c #493624",
"A  c #4D3926",
"S  c #43352B",
"D  c #4A352C",
"F  c #44382D",
"G  c #4D3A29",
"H  c #523C27",
"J  c #50372D",
"K  c #533E29",
"L  c #413933",
"P  c #4B3C33",
"I  c #56402B",
"U  c #5A422B",
"Y  c #544232",
"T  c #5B4631",
"R  c #5E4933",
"E  c #5C4A3E",
"W  c #61462A",
"Q  c #62492F",
"!  c #624C36",
"~  c #684D31",
"^  c #654E39",
"/  c #6B523D",
"(  c #705434",
")  c #795235",
"_  c #2C3543",
"`  c #2F3846",
"'  c #303A46",
"]  c #313949",
"[  c #39404D",
"{  c #444146",
"}  c #655246",
"|  c #77645F",
" . c #846650",
".. c #8D6C56",
"X. c #937152",
"o. c #A37A4D",
"O. c #AC7B5F",
"+. c #A2826B",
"@. c #A9886B",
"#. c #BC8261",
"$. c #BD9374",
"%. c #BD997C",
"&. c #C5894E",
"*. c #DC9553",
"=. c #E29F56",
"-. c #E6A05F",
";. c #CA8F6C",
":. c #D28D60",
">. c #CF9E60",
",. c #CE9773",
"<. c #CD9C74",
"1. c #D4A27E",
"2. c #F6BA6D",
"3. c #DCA781",
"4. c #DDAB85",
"5. c #D5AA89",
"6. c #DBB28E",
"7. c #EAAF85",
"8. c #E3AF89",
"9. c #E1B18C",
"0. c #EEBC96",
/* pixels */
"O : D H A C C : y Z Z G T K G G ; # y A H Z B 1 : a Z C I I H G G A K H H H Z K K H H B Z I I A G S ",
". & C H H < & & , C < C C Z G C + o , Z I C > & & 1 C 1 S Z Z Z 1 B K H H H A K K H H B u S Z A Z : ",
"  # C H A & O : C A C K H K K C @ X : Z I B # = y Z Z Z I A I G N C H H A A C A K H H C A G H H A , ",
"O : K H Z & O - u Z C D T K J G : @ a K A p l n M M b S Y T A I A Z H H C A C H H H K Z G R U H I C ",
"< A U H Z # & * - u , u K H H H < < H Z c l l r l n n l d I H I Z Z H H A A B H K H K C Z K H H I a ",
"H H H H Z > u < y u - u H H H Z 1 H H t l h r 7 6 7 n n r S H H N B H H H H B I H H A C B K H H Z , ",
"H H H K A 1 A A Z Z > N H H H A N A C 7 h r 6 % $ 2 h n 7 , H H B 1 H H A A 1 B H K G Z K K H H A < ",
"H U K U H 1 Z K Z 1 * , B K H A Z H C 7 8 7 $ % % % 6 l 7 : I I Z Z H H K A 1 B A K K Z H H H K A B ",
"W H W U K 1 B 1 * # @ ; N H H A B I S 7 e 7 2 % 2 % % e e w U I Z Z I H I H 1 1 B Z Z , N H H H H a ",
"U U H H H A I B * + : Z A H H H A I I r e q 3 } } w E E b a I A Z A K H H A C I I I I C C H H H A B ",
"R ^ U U A Z U U u - : A H H H A B R ^ b f e 3 +.1.$.9.5.X.A I H C Z ! R K K C I ~ T U C C K H A A 1 ",
"U U K K A C U K Z u , Z W H W A 1 I U I d e 2 P 1.0.0.0.>.~ U U B u U I K H C A U K H N N H H A Z > ",
"A C u 1 , > A A C Z u H K K K A 1 B B B u : $ ^ ,.3.8.7.-.>.( H B 1 C B B B , B K H H C Z H H Z Z > ",
"Q H A B @ & A N , C C H K U H A B U A A , @ ,  .O.#.;.:.=.2.o.G C A H A A A 1 Z H H H Z Z K H C A 1 ",
"U I K C # > K B y C C H K K H A B I U I u e x k M | ..) &.*.<.! Z A I I H G A K H A H C Z K H A A C ",
"U U H A 1 B I A G A C H H K H A B I U Z c x _ g g _ { C X.4.6.^ C Z I K H K A K K H H C Z H H H A 1 ",
"U H A H H B K H H H Z I K H G G I I B v j 0 g z z x 7 i / %.@.J Z Z K H G H Z H H H H Z H H H K D S ",
"U H V A H H K H H A B F J H G G Z I I G z 9 9 z _ _ z : c { Y G Z A H Z C H A K H H H C Z P J A G C ",
"U Z , Z A Z K H A Z < C Z Z A V 1 A H A m g 9 z ' _ ' g z [ Y S 1 N H y V H Z K K H A < 1 Z Z H C ; ",
"K V & V Z Z H H Z a a I I I K Z B I H A F m v z _ ' ' x x _ L K C Z Z * , D C Z H H C y G R K K A 1 ",
"U V * y Z A H H Z u , Z U K K K Z I H Z Z I Y j z _ _ _ _ z d I A Z Z - > Z B A H H Z y u K K K I C ",
"K Z y Z Z Z H H H C & p H H K H B H H H Z Z b j z z 9 g g g v I Z C A y u A Z H H H Z 5 y H H K K < ",
"K A V Z A N H H A , # y H H H H 1 B U A A C s z z 0 g g 9 9 F A N 1 H C C G B H H A u & - H H K A > ",
"H H H A A 1 H P V & O u H U H B B A I H A C t z z 9 9 g 9 h I H C V H H A A 1 Z G Z - O - Z K K H u ",
"K K H K Z < N V > + + , D U U A C H H K H C e j z 9 9 j 9 v I H Z Z H H K H , 1 V , # O > B H U K C ",
"W H H K A V N < 1 , & a A K U H Z H H H H a f _ j 7 9 9 g b H A Z Z K H H H 1 C < 1 1 * 1 B H U A u ",
"U K K K H Z U U Y I C A K K H H A I I I K a g _ z 4 4 8 9 d H A Z A I K H H C I R U U C Z K U H A C ",
"Q ^ T K H Z U R U H 1 A W U H B B T ^ I I s k ` z 8 0 g 0 v H H V C ^ Q K K Z K R T U B B U U H A , ",
"H H H Z C V Z Z Z Z 1 A U I H Z 1 A H A G h k ` 0 0 _ ] 0 n A Z N 1 H A A Z 1 Z G C Z C B U U H A > ",
"K Z N 1 & * Z V , Z C H U H Z Z 1 Z B B p g _ ` j _ ] _ j l Z Z N N Z C 1 ; & B Z , C C B U U A Z , ",
"Q K H C + & H < > C B H H B C Z A I I H i j _ _ 0 _ ` _ j c Z Z Z K K K A * + C C : u C Z K H C Z B ",
"U U K Z * < H C C B B A I U A A Z I I A h j ` _ 8 _ ` _ j l G G Z Z Y K H > : Z Z u C C Z H H A A B ",
"U K K H B Z H H H A Z H H H H A Z K K Z g _ ] _ 9 k _ _ j k H H Z D H H H Z V H H H H Z A K K H G V ",
"U K H H A Z H H H H Z H K K H G H K H a 9 _ ] k 0 _ ` _ j c H A Z , y Z H A C Z Z V A A Z K K H G Z ",
"K H H H H A H H H A N Z K A D D B K Z t g ` ` g 0 _ ] _ j h G G N O # V H H C , & - V V a J H A Z < ",
"U H H H A A H H H Z N Z Z A H C 1 H p f j ] _ g _ _ ] ] j h K J , X O y A J 1 @ & < A V C G Z H Z : ",
"U H A Z Z C H H I H Z U T I K G Z H w 8 k ` _ g 0 _ ] _ 0 k K K C @ @ C H H > O & u Z C A Y U I K C ",
"K H A Z Z Z H H H H B I U K J K Z H p g _ ] k 0 0 _ _ _ _ n K K Z - 1 K H A ; + = : a u u K I K K C ",
"U H H H A Z H H A A 1 A H H I Z B A s g _ _ g g _ _ _ _ 0 c J H C N A H H A > * y : u : : A A K H , ",
"H H H H Z B H H A A Z I H H A C 1 A v k x z g 0 0 _ _ _ 0 c H H N N H H H H 1 B Z C S , , A H H H , ",
"H H H H A 1 A J I I A I H H H A C H H G G a w 7 7 h z g h v U I Z B H K U H N B J I Z , : C K I H u ",
"U H H I A , B C S C < A H H I A Z K H H K V w 3 2 6 # : s A U U Z H H U U U 1 1 u < & # & , Z U H V ",
"U K A H B Z H A A A < A H H A A Z K H H K C t 3 2 t B < Z H H H Z A K U H H C A B ; # # 1 B A K H 1 ",
"U R I I H A U R R I B A I H I B Z U R K K C r 3 2 t A B I U H H B A R W K H C U ! C & = Z H K K H N ",
"R ~ I I A Z U U I H 1 B H I H B N U ! U K S h 4 7 7 u 1 I W U H B B ! U K H C K U G u , N K U U K > ",
"H Z C Z N 1 A H K H B Z H B H B < Z Z B Z y g 4 q q y C I U H A N 1 A Z Z C , Z H Z Z 1 C K H U K > ",
"U A C A B 1 A H K H C H K A Z Z Z K Z Z , = S D D p S D J K Z Z B Z H Z N * @ V Z < B Z A H U H H , ",
"W I I H A A K H A H B H K A Z A H K K H y & p p S P J D P G Z Z A H K K H * @ Z Z , N B A H U H A V ",
"U I I A I H I H H A B H H H H A B I U H C > C Z C S C C G G H A Z C I I A 1 > K Z C Z C Z H K H A N ",
"U I H H A Z K H H A C K H H H A A K H H A C Z K H H A Z I I H A Z A I H H A C H H H K Z A K H H A C "
};
