/* XPM */
static char *m_u_fotor_bg_remover_2024012922515__1_1706565097[] = {
/* columns rows colors chars-per-pixel */
"50 50 118 2 ",
"   c #040303",
".  c #080605",
"X  c #0B0907",
"o  c #03050B",
"O  c #05080F",
"+  c #0E0B09",
"@  c #120E0C",
"#  c #16100C",
"$  c #19130E",
"%  c #070B13",
"&  c #0B0E14",
"*  c #0E1216",
"=  c #0D121C",
"-  c #161515",
";  c #1C1512",
":  c #1B1815",
">  c #12151D",
",  c #14191E",
"<  c #1B1A1B",
"1  c #241B15",
"2  c #291E16",
"3  c #261D19",
"4  c #281F19",
"5  c #2D2116",
"6  c #26211E",
"7  c #2D221B",
"8  c #312417",
"9  c #33261B",
"0  c #36281C",
"q  c #3B2C1D",
"w  c #0F1621",
"e  c #111721",
"r  c #141A25",
"t  c #1A1E22",
"y  c #161E2A",
"u  c #191F2A",
"i  c #1D2125",
"p  c #1D232B",
"a  c #1D2533",
"s  c #1F2836",
"d  c #252323",
"f  c #2E2725",
"g  c #2E2926",
"h  c #23262B",
"j  c #25292E",
"k  c #2B292A",
"l  c #342A23",
"z  c #3C2E22",
"x  c #322E2C",
"c  c #3B2F2A",
"v  c #3E3125",
"b  c #35302E",
"n  c #3B322C",
"m  c #202733",
"M  c #232A34",
"N  c #2B2D33",
"B  c #232C3A",
"V  c #322F30",
"C  c #2D3135",
"Z  c #27303D",
"A  c #2A323D",
"S  c #343233",
"D  c #3B3532",
"F  c #33363C",
"G  c #3A3939",
"H  c #402F1E",
"J  c #42301F",
"K  c #402F21",
"L  c #453323",
"P  c #493624",
"I  c #4D3926",
"U  c #44352A",
"Y  c #4A362A",
"T  c #44382D",
"R  c #4D3A2A",
"E  c #523C27",
"W  c #543E29",
"Q  c #443B35",
"!  c #56402B",
"~  c #5A422B",
"^  c #534232",
"/  c #5B4631",
"(  c #5E4833",
")  c #60462A",
"_  c #62492F",
"`  c #704E2D",
"'  c #624C35",
"]  c #684E35",
"[  c #654F39",
"{  c #745939",
"}  c #78593F",
"|  c #273141",
" . c #2B3543",
".. c #2F3846",
"X. c #313946",
"o. c #343C4B",
"O. c #383F4D",
"+. c #39404E",
"@. c #554B45",
"#. c #644E41",
"$. c #6E5644",
"%. c #705742",
"&. c #715948",
"*. c #7D5D4A",
"=. c #605856",
"-. c #6C605B",
";. c #864F1B",
":. c #965F27",
">. c #8A663B",
",. c #8B693E",
"<. c #926838",
"1. c #A4743B",
"2. c #A9793E",
"3. c #B87D37",
"4. c #B07938",
"5. c #A4795F",
"6. c #826F65",
"7. c #AF8566",
/* pixels */
"@ 7 P E E U q 8 0 I U E ^ W R R 3 ; l E E I L q 5 z I L ! ~ E R Y I ! E E E I W E E E P L ~ ! R R U ",
". 1 U E I q 1 1 9 P 0 H P P I L # + 4 I W P 5 1 1 z L 0 U L I Y q J E E E E P W E E E z q U P P P 7 ",
"  ; L E I 2 @ 7 K I U E E E W U $ X 4 E E J $ : l Y P I ! R R E J L E E I I L E E E I J I ! E E I 8 ",
"@ 7 E E P 1 @ 4 z I K R / W W R 5 $ K E E J : h N S S b ^ ~ R ! I I E I L I L I ! E ! I R ( ~ E ! U ",
"q I W E P 1 1 2 4 K 9 z W W E E q q W W E z j C C C C N V ! I ! P P E E I I J I E E ! J P ! E E ! v ",
"E W E E P 2 q 0 8 z 3 z E E E P q I W W I k A C p p N F p x ! I H H E E E E J E E E I J J W E E P 8 ",
"E E E E P q I Y I U 8 H E E E I q I E W L h C N i i N F h t I I L q E E I I q I I E R Y ! ! E E I 0 ",
"~ E ~ ~ E q I E I q 2 8 J W E I P E W W U p j i , = p j i < I ! P P E E E I q J E E E I I E E E E J ",
") ~ ~ ~ E q H q 2 $ $ 5 H E E E J ! ! ! P i i i , , t i t , ! ! P P ! E ! E q q L P P 9 H E E W I v ",
"~ W E E E I ! J 1 ; 5 I E E E E J ! ~ ! ^ k p i t i t t i ^ ^ P P I E E I E L ! W W ~ K J W E I I J ",
"~ [ ) W E P _ ~ z 4 7 I E E E I J ] ' ! %.@.p i t t , t d *.' ! L P ( ' ! E L ! ' ( ~ L P E E I I q ",
"~ ~ ~ W I L W W Y z 9 P W W ) I q ! ! ! / $.G , & & * i #.,.~ ~ z L ~ ! E E L I ~ ! E H H E E I I 8 ",
"E L J q 9 5 P P L L K E W W W I q J J J q 8 ^ b - - 6 *.7._ ! ! J q L J J J 8 J E E W L P W E P P 8 ",
"_ E P L $ 1 E H 0 L L E W ) E I J ~ I ! 0 # q &.-.=.6.5.} ! ! ! L I E I E I q P E E W P P W I P I q ",
"~ ! W L ; 5 E K l U H E W W E I J ! ! ! q : k C Z M ..F n ! E J P R ! W E I I W W I I J P W E Y I L ",
"~ ! W I H L W I I I J E E E E I J ! ! E U Z Z Z s M A Z Z b ! ~ L P ! ! E E I E W E E P P E E E I q ",
"~ E I E E J E E E E I R E E E E ! ! E I A | Z Z s s B B A Z b I P I W I E E P E E E E I R E E E Y U ",
"~ I U Y E E W E E I v I ^ E Y Y J ! ! n s s s s s s s M B B m T P I W U P I I W E E E K U W W R R z ",
"W P 0 P E P W E I P q L L P I K q I I k r a p a B s a m s p a k 0 H I l K Y I E E E I q z P P E P 2 ",
") H 1 q P P E E I z z ^ ~ W W I J ! I j w a ^ C a a D { C p a m z P P 1 9 I K I W I L l E ~ W W E q ",
"W H 2 q P P E E P K l Y ~ W W W I ! n s > i ,.1.( ( 1.2.S r p a x I P 2 8 P J I E I U 0 z W W W W P ",
"W P 0 U P P W E E z 1 q E E W I J I b s > r G >.4.3.<.Q s r a a x J I z z I P E W E Y 4 9 R W W E l ",
"W Y K P P P W Y Y 9 ; l E E W J q I N B > > s B ` :.S m s = y s x H I L U I J I E I K 3 4 I E W E 9 ",
"W W I I P q E W K 1 @ z E ) W I J v s s = r s Z W ;.N B B > r M L H E E I I q P I Y 4 @ 4 R W W E q ",
"W W W W I 0 H K 7 @ @ l P W W E P x B a = u |  .S L M  . .r = V P P E E W E q q z 0 ; @ 5 J E ) E z ",
") W W W P q H q q 0 2 K I W E I L M s a * a X...B a B X.X.u > U P P W E E E q H q q q 2 0 P E E E q ",
") W W W Y I ~ ! / W L I W W W I L m a r * B o...| s B X.X.m g I P I ! W E E P ~ ~ ^ ~ P P W ~ E E K ",
") ' / W E P ~ ( ~ E q I ) ~ W I l B y = e  .....| s B X.o.B n E H U ' ( W W L W ' / ~ J H ~ ) E I 9 ",
"W W I I P q E P P P q I ) W E P k a = O y ..o. .Z B Z X.o.Z b I q q E E I P q P I U P H J ) ~ W E 8 ",
"W P H q 1 2 P K 9 P L I ~ E P L M y % O a ..o. .B s M ..+.A k P L z I J H 5 1 H L 0 K P J ~ W P P 9 ",
"_ W E J # 1 I q 2 P J E E P K Y B r o & s ..o. .B s B ..+...N Y P E W E P 2 # P L 5 z P P W E L P H ",
"~ ~ W P 2 9 E L K P H E W E I T M = o e | o.o. .| s B ..+...B U P P ~ W E 9 4 I P q U H P E E I I H ",
"~ W W E J P W E E I L E E W W R U z 6 a | o.o...| s B ..+.o.B U P L ! E E P K E E I E L I W W E R K ",
"~ W E E I I E E E E P E W W E R E ~ n s  .o.o. .B s B | O.+.B b Y 9 q P E I U P L K I I I W W E R L ",
"W E E E E I W E E I H P R I Y Y J W S | ..o.o. .B s B | O.+. .N q @ ; z E E L 9 1 4 L H z R R I R q ",
"~ E E E W J E E E P H P I I E L q I N B ..+.o. .s s B | o.+. .M 0 X + l I E q # 1 q I K L I I E P 5 ",
"~ E I P P J E E E E I ~ / ! E R P R N | X.o.X.| s s s | X.+.X.N v ; # L W E 8 @ 1 z I P R ( ~ E W L ",
"W E I P I P E E E I L E ~ E ! E P Y M | o.o...| s a a B X.O.O.B x 5 q W E E 8 # 3 4 z z l W W W W L ",
"~ E E I I P W E E I q E E E E I H n B  .o.o. .B s a a | X.O.o.B k q E W E P 8 2 l 5 l 5 9 I E E E 9 ",
"E E E E P J E E R R P W E E R L q D B | | | B M s a y a B  .Z B S H E W E E q J I U U 9 9 R E E I 9 ",
"E E E E J q I ! E ! I ! E E E I K R T c l t e d T 7 - > < d l U R J E W ) W H J E W P 0 5 K E W E H ",
"~ E E W E 0 q L L L 0 I E E ! I P E W W W l e 3 0 4 - > l I ~ E P I W ~ W W H q z 0 2 ; 1 9 I ~ E z ",
"~ W E E I J I P W Y 0 P E E E I I W W W E k e 7 L I 7 p n E W E P I W ~ W W P P L 4 ; ; 0 P I W E K ",
"~ ( ~ E E I ( ' ( ! L I E E I P Y W ' W R j t z ( ( k h n ~ W E P I _ ) W E P W ( K 3 3 P E E W E H ",
"( ' ~ ! E L ~ ~ ! E q J E E I P H W ' W T h t U ! W k p x ) W E H H _ _ W W P W _ I K 7 H E W ) E 8 ",
"E I P L J 0 I E E E J I E I I J 0 P P P c M t c U K d m x ~ W E H 0 P P L L 9 L I P L K L W W W W 9 ",
"_ I L P J q I E W E L I E I L I P W Y U Y T z K 5 0 c c U Y P P L P E P J 2 $ K P 0 J P I W ) W I 9 ",
"~ ! W E I I W E E I L E E I P I R W W U l f l U 9 l c l l U P P P E W W I 2 $ P P 9 H J I W W E I K ",
"~ ~ W E W E W E E I H E E E E P P E ~ E L 9 L R P L L L E E E I L P ! ! I z 9 E I L P L P E E E I q ",
"~ ! E E R P W E E E P E E E E I P W W E I L P W E E I I W E E E P I W E E I L I E E E P E W E E E L "
};
