/* XPM */
static char *xpm__removal_ai__22c24306_1a73_4e2f_8e64_b3d8a8f8863a_4983164884753_3rd_copy1705281213[] = {
/* columns rows colors chars-per-pixel */
"50 50 88 1 ",
"  c None",
". c #05070B",
"X c #0A0D13",
"o c #0E1116",
"O c #0E1118",
"+ c #111318",
"@ c #10151B",
"# c #10151C",
"$ c #13171E",
"% c #13181F",
"& c #15191F",
"* c #161A20",
"= c #161A21",
"- c #151A23",
"; c #161B22",
": c #171B22",
"> c #181D24",
", c #1C1F24",
"< c #18202B",
"1 c #1E2228",
"2 c #1E2229",
"3 c #1B232F",
"4 c #1C232E",
"5 c #1F242E",
"6 c #1C2430",
"7 c #1F2631",
"8 c #1E2633",
"9 c #1F2734",
"0 c #1F2835",
"q c #20232A",
"w c #21252B",
"e c #21262C",
"r c #22272F",
"t c #24282D",
"y c #392A26",
"u c #302A29",
"i c #372C2A",
"p c #212630",
"a c #202731",
"s c #222832",
"d c #272C31",
"f c #202937",
"g c #212A37",
"h c #232B37",
"j c #252B34",
"k c #292E34",
"l c #2A2F34",
"z c #232C38",
"x c #222C3A",
"c c #272E38",
"v c #242D3B",
"b c #252E3B",
"n c #262F3D",
"m c #2E3136",
"M c #29313D",
"N c #28313F",
"B c #2F363D",
"V c #343030",
"C c #3F3A36",
"Z c #393739",
"A c #41312B",
"S c #46322B",
"D c #4F392C",
"F c #5B4835",
"G c #705336",
"H c #2A3340",
"J c #2C3542",
"K c #2D3744",
"L c #2E3845",
"P c #303A47",
"I c #323D4A",
"U c #353F4C",
"Y c #37404D",
"T c #524843",
"R c #614E42",
"E c #625955",
"W c #735F53",
"Q c #845223",
"! c #94612C",
"~ c #8C673D",
"^ c #A4753F",
"/ c #B37B3B",
"( c #83634D",
") c #866B58",
"_ c #856E5F",
"` c #806E63",
"' c #A88063",
"] c #C59675",
/* pixels */
"                                                  ",
"                                                  ",
"                                                  ",
"                       slchj                      ",
"                      cmkkmka                     ",
"                     wmmt2kBe:                    ",
"                     2md,>dBw&                    ",
"                     2t2%%2t,:                    ",
"                     11,%%>2>:                    ",
"                     71,>>,,,Z                    ",
"                     Tt1>:>>t(                    ",
"                     )i&oXo,R                     ",
"                       V++,W]                     ",
"                       `WE`'                      ",
"                       cnxJZ                      ",
"                     cnH9xHHnc                    ",
"                    xNxN00xxHNs                   ",
"                    000h0700xx0                   ",
"                   q>6670088067s                  ",
"                   a-6Cm98CGm<60                  ",
"                   hO2~^FF^^m-36                  ",
"                  9hO-C~//~C7-69                  ",
"                  jx--0xG!m00%<0                  ",
"                  x0O-0xDQlnxO-7                  ",
"                  x9+-HJmixJJ-Oh                  ",
"                 a06O8PPxhxLP1O                   ",
"                 07>+xPJn0xPL7:                   ",
"                 x3X-HPPnhnLIx                    ",
"                a7O.-PIJH0cPUn                    ",
"                a3X.6PIJx0nPUH4                   ",
"                7:.X0PIJx0xLYJx                   ",
"                0O.-HIIJxxnLYLh                   ",
"                  $6HIUJc0nJUUv                   ",
"                   xHUULx0xKUUn                   ",
"                   cLIIJx0xHUUH6                  ",
"                  6nPIPHx90HUUJp                  ",
"                  hnPILHx99nPULa                  ",
"                  0NIIKn099nPUUh                  ",
"                  xKIIJc997xLUIv                  ",
"                  xnHHzx7666vHnnN                 ",
"                    ::$O  $$::4                   ",
"                     :-$   %:                     ",
"                     q$    ,                      ",
"                     a-   $e                      ",
"                     7,   qe4                     ",
"                    ue>   5e5                     ",
"                   SDAy   uAAi                    ",
"                   iquu   iau                     ",
"                                                  ",
"                                                  "
};
