/* XPM */
static char *wall1704603945[] = {
/* columns rows colors chars-per-pixel */
"50 50 128 2 ",
"   c #14192D",
".  c #181D31",
"X  c #191E32",
"o  c #1A1F33",
"O  c #1B2034",
"+  c #1C2135",
"@  c #1D2236",
"#  c #1E2337",
"$  c #1F2438",
"%  c #202539",
"&  c #21263A",
"*  c #22273B",
"=  c #21293C",
"-  c #23283C",
";  c #222A3D",
":  c #24293D",
">  c #252A3E",
",  c #242B3E",
"<  c #262B3F",
"1  c #252C3F",
"2  c #272C40",
"3  c #262D40",
"4  c #262E41",
"5  c #272E41",
"6  c #282D41",
"7  c #2B2D42",
"8  c #292E42",
"9  c #2A2F43",
"0  c #2C2E43",
"q  c #293043",
"w  c #293144",
"e  c #2B3044",
"r  c #2A3144",
"t  c #2B3245",
"y  c #2C3145",
"u  c #2D3246",
"i  c #2E3347",
"p  c #2D3447",
"a  c #2F3448",
"s  c #2E3548",
"d  c #2F3649",
"f  c #303549",
"g  c #31364A",
"h  c #30374A",
"j  c #32374B",
"k  c #34364B",
"l  c #31384B",
"z  c #33384C",
"x  c #32394C",
"c  c #333B4E",
"v  c #34394D",
"b  c #37394E",
"n  c #353A4E",
"m  c #343B4E",
"M  c #363B4F",
"N  c #373C50",
"B  c #363D50",
"V  c #373E51",
"C  c #373F52",
"Z  c #383D51",
"A  c #393E52",
"S  c #383F52",
"D  c #3A3F53",
"F  c #3D3F54",
"G  c #384053",
"H  c #394053",
"J  c #394154",
"K  c #3B4054",
"L  c #3A4154",
"P  c #3B4255",
"I  c #3C4155",
"U  c #3D4256",
"Y  c #3C4356",
"T  c #3E4357",
"R  c #3F4458",
"E  c #3E4558",
"W  c #404559",
"Q  c #41465A",
"!  c #42475B",
"~  c #45475C",
"^  c #41485B",
"/  c #43485C",
"(  c #434A5D",
")  c #44495D",
"_  c #46485D",
"`  c #454A5E",
"'  c #444B5E",
"]  c #464B5F",
"[  c #484A5F",
"{  c #474C60",
"}  c #494B60",
"|  c #484D61",
" . c #494E62",
".. c #4A4F63",
"X. c #4C4E63",
"o. c #4D4F64",
"O. c #4B5064",
"+. c #4C5165",
"@. c #4E5065",
"#. c #4F5166",
"$. c #4D5266",
"%. c #4E5367",
"&. c #4D5568",
"*. c #4F5468",
"=. c #505267",
"-. c #515368",
";. c #505569",
":. c #525469",
">. c #53556A",
",. c #51566A",
"<. c #52576B",
"1. c #55576C",
"2. c #53586C",
"3. c #54596D",
"4. c #555A6E",
"5. c #565B6F",
"6. c #585A6F",
"7. c #575C70",
"8. c #585D71",
"9. c #595E72",
"0. c #5A5F73",
"q. c #5B6074",
"w. c #5C6175",
"e. c #5D6276",
"r. c #5E6377",
"t. c #5F6478",
"y. c #606579",
"u. c #61667A",
/* pixels */
"%.! K R u : ! ` ! N K : N  .v %./ ! ` Z a ` %.v & `  .T R v u T O.! f v 8 f ,.v `  .!  .T 8 ` ` u 8 ",
"! T N N 8 : N ! ! T u & f / ! `  .T K N u f a @ f ! Z f f 8 - v ! Z ! v & f ! !  .! T Z v v v ` 8 & ",
"$ u 8 8 : @ 2 u u v & & u z T T a u f Z v f N ` u 8 - : e & @ : f 8 Z & @ f f ` ! v v u v Z @ 8 T f ",
"8 R N N T f u u @ - u v v a u v N Z N Z T v Z O.8 a Z ! ! K z f 8 : : & v ! u 8 : u f f ! ` v %.{ Z ",
" .7. .{ %.` T N f @ Z  .{ T : v ,.%.R v T / ! ! f ` ,.%. . .! T a v & f ,.%.Z @  .q. .! T u v { ! v ",
"%.*.R !  .` { ` { O N { %.O.: a K ! ! f u v ! ! v %.,.! T ` `  .` ` : f O./ ` f : ! v T Z : v R Z v ",
"` ! Z { ! T ` ` T @ 8 T ` ` v a : 8 f u O & a : T *.{ Z `  .!  .T Z : : v ! ` / : 8 8 8 u 8 8 : N T ",
"T Z T  .Z : u : & @ 8 T Z T { v u X @ z R ,.%.8 Z  .Z N  .T - 2 : X 8 8 T %.Z T ! & & @ 8 ` ` %.: z ",
"K Z v f 8 e a z f u u T ! K ! ,.v X u %.! ! ` u : v v v f u u v f Z u 8 T ! Z  .,.f & 8 9.Z  .` u : ",
"v v v Z R ! Z u u : 8 Z  . .` / a & v { Z N R f 2 Z T f Z ` ! v u u - : T { ` ` ! u @ v / f T Z f u ",
"2 & u ! R u : 8 & - : u K  ./ Z : 8 Z ! f f K T v e : f ! K e 8 : : & 8 v R ! ! Z u : %.v Z Z T v v ",
"Z u : 2 u : 8 u u Z Z a a ! ` ! : N T Z v N R `  .Z 8 2 u 2 : f 8 f T Z u u T  .T u e  .8 v v T  .{ ",
",.T : @ N 2.%.N  .,.O.Z z R  .` u Z v f Z ! ! `  .3.! @ @ T O.O.T ` 3.%.v a T  .` f f T 8 v ! `  .` ",
"N : : ` r.9. .R %.O.! z a f v f : 2 & : v ` ` ! T K 8 & ! u.9.! `  .O.! Z u a Z N & u : u v ` ` %. .",
"8 @ a 9.r.T f / ! Z z u 2 & : f f u 8 8 f Z Z v u - @ z 3.9./ f ! ` T v v u & : f : f & 8 u f f 8 8 ",
"`  .! N v T ` ` ` ! ! K e $ z *.q.%.` T f 8 : & 8 `  .T N Z T ` ! %.! v T f & u 9.7.9.` T T 2 u : 8 ",
"u./ 8 : : a ! T ! ! K N & u 7.2.! %.` T ! f a { { u.%.& 8 & u K T ` ! ! Z & 8 3.9. .! `  .! f : ,.%.",
"f & 2 %. .: : f 2 z e 2 : Z %.Z T Z v N R v u T N z : $ ` T a & f u u u : 2 K  .v T ! Z v N v 8 T N ",
": R { ,.%.v f f & e $ - N `  .z ` N f z f : : v u e Z ` 7.` Z z u & : & @ v %.T T T Z z f f u & u 8 ",
"u t.7.N z ! ` v T N : u ` ! v ! / K Z u @ @ u Z : a 9.7.{ f T  .T v N u u !  .v O.T v Z v : & 8 K v ",
"f *.{ T ! T R Z ` ` v f K u $ K v v f 8 $ u T ! f u %.` T Z ! T T  .` Z K v 8 u v v Z v 8 X 8 ! K N ",
"8 Z v Z K f f u u K N - 8 8 @ f a u 2 : f R ! T T : T z v K z : : K v u f 8 @ e 8 f f : & f T ! v f ",
"@ f f e $ & z 8 u z f @ 8 N u v N f - u / ! v Z z O N e e 8 & 8 8 f a 8 8 8 u f Z Z a & u ` / f ! Z ",
"8 f Z R u u %.3.*.K f : v / v ! Z z : f { v u  .v @ K v K z u ,.,. .! v 2 Z  .v T v f u v ! T z Z v ",
"R *.T ! v u  .%.O.R T Z 2 & 2 - 2 : e e u v T N & ! T T %.v : %. . .T ` Z : u 2 2 8 * z f 8 T W T 8 ",
"!  .N ! v - K ! / T v a u T ` R ! ! ! N f !  .T &  . .N Z f 2 T  .` Z v v v T K ^ ` ! ! Z a Z ` u - ",
"` ! u v u O v ` T Z u & f ` O.{ { { ` z 8 a f & 8 / ! f a u : f ! T K 8 : v T `  .] ~ Z Z v u ! < 8 ",
"e u & 8 : X 8 v u z : & f Z N K u u v v f v K v 8 : : 8 u : $ & f u Z : & a u ! Z v f : N K : T v v ",
"e v Z ! T v f 8 - 2 2 f T f 8 N Z a v T T Z ` %.a a N T R v z f e @ q u v Z u v v v T u T ! 8 ` ` N ",
"%.2.,. .{ { ` Z 8 8 f {  .v 8 v 3.` T ! v f K ` f  .9.%.`  .{ ! ! < & v O.%.z < Z  .,.` W Z z  .` z ",
",.O.` T K ! ! ! K u z  .%.R z e ! T K N a v ! ` a  .%.R T ! ! R  .N : l  .%.! 0 f ! ! ! f 8 v Z v v ",
"` T ! `  .{ ! ` K : : Z `  .T 8 & e f : @ 2 u : ` O.! !  . .`  .F T 8 e Z ! ,.T - q & 8 : & z 8 8 K ",
"R Z T  .T : & u @ @ u ! T Z Z Z : 8 @ u  .,.,.8 T ! v Z %.N & 8 & : & 8 Z T T T Z 2 : X u  .` ,.Z N ",
"Z N u 8 8 a f a Z 8 u T ! R  .%.Z & 2  .` T / f @ Z T f u 8 u v Z v u u ! ` ! T ` Z & 8 ` ` T ! : - ",
"v Z Z Z T ! T f f & 8 T ` ` ` ` v   v ,.Z v Z v u v v v Z ! ! N f u & 8 Z  .` ` R Z X v ,.K Z T v f ",
": : u T R f : : & @ : v T / ! N : @ ! ! u Z T Z T : : z T K f & & & & & f T ! %.v 8 : R ! u v Z Z N ",
"K 8 & : u 8 8 e v v v u u ! O.! : Z  .f a ` Z ! ! f u u : 8 u u u v K v v v T  .` : T ! : f ! v  .` ",
",.T : 2 Z %. .T O.*. .v 8 T  .! 8 Z v : Z ! T %.,.*.Z : 8 R  .%.T %.,.` T f v  . .@ Z v & !  .Z / ` ",
"Z u u R 2.3. .T O. .{ K a f N f 8 u : : v T ! ` ! ! 8 & T 3.,.` ! %. .! Z f u Z v : 8 8 : v ` !  .` ",
": @ u 3.t.` Z !  .Z v z 8 - 2 8 u f : : 2 v  .f : : @ u 9.r./ Z T ! T v f u : 8 : Z 8 e 8 & v ! f p ",
"! 3.Z a T T K { ` ! T ! v X 8 r.u. .`  .N < & X p ` r.u T Z ! T ! *.! v ! f @ u u.3.%.` ! v u : : 8 ",
"q.! : 8 u : z !  .Z T z O f 3.3.{ { ! T R z z %. .%.[ : 8 8 8 z T ! T T Z 2 8 %.%.%. .! ! T f 8 O.%.",
"K 8 e ! K 8 f 8 v u u 2 & T ,.Z f / Z M / l 8 ` ^ v 8 f T W 8 q u u a u 8 : Z ,.v T T Z Z T v 8 T Z ",
"X Z  .,.` Z Z - & u & & ! ` z v T / v u v 8 @ 8 8 & v ` ,. .Z Z 8 8 8 @ $ Z  .T Z T K Z f 8 8 8 u 8 ",
"u r.,.K Z R ! K N Z : 8 ` ! f ` %.T f 2 & : v T 8 f r.%. .l T ] Z Z K f 8 `  .u ` ! ! K 8 $ & u H v ",
"N 3.! f ! ! Z ! { ! K f u z v a b a z u @ 8 !  .k p 3.T ] v W F / T ! ! f f v u N v f u 8 & u T H M ",
"- v f Z R v f a v K Z p 2 2 8 & : u u 8 f v Z Z f & v v W Z N < f v Z v 8 : 8 : u u u : 2 v T T N M ",
"- u f u @ @ u : & Z : O z e & ` v Z & @ / %.Z Z v & u f - - * 8 : f f 8 : u f 8 v ! v & 8 ! ` v Y H ",
": Y d G z e ,.9.=.F f p l H Y c K 4 w Y G l G ^ q q W v ~ k 0 >.3.:.~ 0 f f T T G N w d G N E G ^ p ",
"G *.R ( N 2 X.%.>.~ F v e q e - 4 $ 4 d p c Y Y 8 l  .Z [ b 0 =.@.X.} b Z 0 8 u 2 e < q p p H G Y < "
};
