/* XPM */
static char *wall1705701070[] = {
/* columns rows colors chars-per-pixel */
"50 50 75 1 ",
"  c #150D0D",
". c #171712",
"X c #1E1212",
"o c #151813",
"O c #1A1C17",
"+ c #1B1E19",
"@ c #211515",
"# c #221817",
"$ c #251A19",
"% c #2B1D1D",
"& c #321D1D",
"* c #1F231E",
"= c #24211E",
"- c #2A211E",
"; c #242622",
": c #2E2423",
"> c #252823",
", c #2B2926",
"< c #2C2E29",
"1 c #352323",
"2 c #382626",
"3 c #302827",
"4 c #342B2B",
"5 c #3C2C2C",
"6 c #2E312D",
"7 c #32322E",
"8 c #39322F",
"9 c #343331",
"0 c #3C3333",
"q c #363A35",
"w c #3A3A36",
"e c #3D3B39",
"r c #402E2E",
"t c #423434",
"y c #443837",
"u c #453A3A",
"i c #4B3D3D",
"p c #47403F",
"a c #454443",
"s c #4C4343",
"d c #474946",
"f c #4B4947",
"g c #4C4C4C",
"h c #514444",
"j c #504847",
"k c #534A4A",
"l c #594E4E",
"z c #4E514D",
"x c #52514E",
"c c #4F5050",
"v c #535353",
"b c #5C5353",
"n c #5C5C5B",
"m c #615757",
"M c #625C5B",
"N c #60605E",
"B c #646463",
"V c #6A6666",
"C c #6C6768",
"Z c #6C6C6C",
"A c #736E6D",
"S c #6F7070",
"D c #747474",
"F c #797777",
"G c #7D7D7D",
"H c #827F7F",
"J c #7F8080",
"K c #848383",
"L c #898585",
"P c #8C8C8C",
"I c #918F8F",
"U c #949494",
"Y c #9C9C9C",
"T c #A09F9F",
"R c #A4A4A4",
/* pixels */
"RA2ZDnURRRRRRRKn1CDnPRRRRRRRRRRRRRRRRRRRRRKV1NFnKR",
"UM-nZZLUUUUUUIIB%nZZKUUUUUUUUUUUUUUUUUUUUUIZ%vSZJU",
"Hz+vZGGGGJGGGJTZOdVGGGGGJGGGGGGGGGFGGGGGGGYF+dVGGF",
"Jb1HIGJGGGGGGJKnOgVGGGGGJGGJGGJGGJGGGGJGGJKV+ZUGJG",
"Hv1KUPJGGDZZDGSgOvDPJGGDCCZSFFSFFZFGGDZGGGJN+ZYLKJ",
"Gk#VPYKGGNfgBFv0XBKTPFGBgggkSZgSScZGGBgDGGGn@nKTPG",
"8:X40uuuy5540t3$X30u0045444496;00>4y945yuu01X,qsiy",
"424#$42tiiiiii0wee03$@44risiqqquueuieet&153300wiii",
"FFD:0FBZYTYTTTTTTTUG0:DVBUTTTTTTRTTTTPD50nnSYTTTTT",
"JJF50CZFPPPPPPPPPPIUs4BSDPPPPPPPPPPPPUP00nZFPPIPPP",
"GGF0yBFJGGGGGGGGGGKYk4BDGGGGGGGGGGGGGIU0uVFJGGGGGG",
"GGF0kYLGGGGGJGGGGGGJe9UPGGGGGGGGGGGGGGF>gTKGGGGGGG",
"GGD4gRLFGGJGGJJGGGFB66YPGGGGGGGGJGGGGGD;gRJGGGJGGJ",
"GGF,aTPGGGGFFGFFFGSc>9YPJGGGFGFGGFFFGGD;gTPJGFFGGG",
"HJF3eKYYJJFvZFnvvDGD04JUYKGGnvvDDvvnGGD:pLYUJBnGJG",
"mbv%3cBCnMbugbpeuvMv:$kMZMmnp0uvvuepbbk=4vVVvipmmn",
"1&@$X X$&1111111111$X  X$111111112111&$@$@@@@%1112",
"LLHZgXkMkDLKPLLKLLLJSk eBgCKLLLLLLLLLLKKFM:2BbnHLL",
"YYYIB$MDCKTYYYYYYTYYID@gDVGYYTTYYYYYYYYYUK43MBSUTY",
"GGHTF&gVGGGHGGGJGGGGYP1pBFGJGGGGGGGGGGGGPYe.$nJGHG",
"GGGPC1CLGGGJGGGGGGGGLD=nPGGGGGGGGGGGGGJFKK66DGGGGG",
"GGGGM1GYLJGDDDDSDDDDFZ+NTPJGGFDGGDFGDDDDFG<eYPKJGG",
"JGHJnXBPRIDvccccggggSZ+cKTIJGScSDcZFvgcgNG40JUTJGG",
"hkhs0X0sMlh04,444000ueX9smbhki0sd0is744<qp$%plmkkh",
"5r51:::15rrt2%X$%1551::::5rr5trrtr05&$X%%%:112r5r5",
"YUUUUUUUUUUUJC%0SnVUUUUUUUUUUUUUUUUIDp$BBvKUUUUUUU",
"UUUUUUUUUUUUUK3eSZDUUUUUUUUUUUUUUUUUIv$BSZPUUUUUUU",
"GGGGJGGGGGGGIU<9BDGGGGGGGGGGGGGHFJFKTn+vZGFGGGGGHG",
"GGGGGGGGGJGGJG;sUKGGGGJGGGGGGGGGJGGGKg*KPGGGGGGGGG",
"JDZZZSFGGDSGGD:gUIPPJGZZZGGGSZZFFZZSFg;KUPJGGHGHGG",
"GBggggSGFnvFGD5sGYTTLSggcDGFvjgZSggvFg$CPTKGGFFHGF",
"u4;;;:44055te612tssse6;::404554tt;,44;X4yhuyiyyyyy",
"su0q04$$445iuqpiiiiieqq94X=45tiiueuiqw000t11t5riii",
"TTTTIF44DVBYTTTTTTTTTTYPZ%pFnATTTTYTTYTTUFtuFBBYTT",
"PPPPIUi4VZDPPPPPPPPPPPPUL;cUPPPPPPPPPPPPPPe4VZFPPP",
"GGGGLYh5BDJGGGGGGGGGFGGII;cYTUGGGGGGGGGGPYq<BDGGGG",
"GJGJGJiiYPGGGGGGJGGGGGGHD;qBFJGGGGGGGGGGJG6eYPGGGG",
"GGGGGGyuPUPJGGVZFZVBBBBDD:pSPPGGGGJGGGGGGF8uIIPGGG",
"DDSDDDytSPUFDSgnDcaaddsBZ2hFUIDFFDDDDDDDDDttDPUDDD",
"54;>:51&533550125=++:1122&150r555555>>>;,51155t555",
"blggvbbbbcgh51iiefcgvbbbbbbbbks52suufzzzu&hmbbbbbb",
"RRRRRRRRRRYKl2SSNURRRRRRRRRRRYGiuFZZTRRRA2LRTRTRRR",
"KGSYRRTRRRTKk2SSnURRRTRTRRRRRTYPPYUURRRPM2AHAGLLKL",
"DZBPYYYYYUUIb1VSVPYYYYYYUTYUYYUYYUYYUYUPN&NSBDGGGG",
"nZGGJGGJJGKTn+cCGGJGJGJGHGGHGGJJGGGGGGKTZogBGGGGGG",
"PKGGGGGJGGJPc+cZGGGGGGGGHGGFJJFJGGGGGGGPn*SPGBnnAG",
"YUKJGJDDDGGDa*vSKJGGDDDDDGFDFFDFGGFDGGGGv*GYKBvvCG",
"JIRKGGnggZFc9%CPRLGGncccvFCcDSvSGGBvFJGGvOBPRLGFGG",
"afbkhkyt0ih4%#ykbspp00000aw6sp<pjau0jjks5@wfmbhkhk",
"XXX%&&&&&&%@XXXXXXXX%&&&&.oo%%o%%o$&&&%@XX.O&&&&&&"
};
